{"glyphs":{"0":{"ha":818,"x_min":0,"x_max":0,"o":"m 410 -19 b 54 422 190 -19 54 158 b 410 864 54 686 190 864 b 764 422 631 864 764 685 b 410 -19 764 160 631 -19 m 410 75 b 571 422 521 75 571 197 b 410 769 571 647 521 769 b 246 422 297 769 246 647 b 410 75 246 197 297 75 "},"1":{"ha":510,"x_min":0,"x_max":0,"o":"m 294 -8 b 206 40 225 -8 206 13 b 213 389 206 67 213 238 l 213 663 b 189 690 213 685 204 690 b 67 667 163 690 96 667 b 31 699 46 667 31 674 b 342 853 31 753 229 853 b 386 794 372 853 386 831 l 386 40 b 294 -8 386 14 364 -8 "},"2":{"ha":726,"x_min":0,"x_max":0,"o":"m 539 -14 b 203 22 444 -14 260 22 b 88 -3 151 22 128 -3 b 33 65 63 -3 33 17 b 468 624 33 315 468 394 b 346 761 468 728 403 761 b 128 572 208 761 199 572 b 42 681 94 572 42 640 b 353 863 42 731 149 863 b 658 610 550 863 658 756 b 206 172 658 371 268 260 b 196 154 199 163 196 158 b 211 146 196 149 201 146 l 514 146 b 643 199 613 146 608 199 b 688 114 671 199 688 156 b 539 -14 688 38 639 -14 "},"3":{"ha":726,"x_min":0,"x_max":0,"o":"m 338 -19 b 17 129 136 -19 17 82 b 101 244 17 169 61 244 b 338 79 165 244 175 79 b 490 229 419 79 490 131 b 303 382 490 328 429 382 b 238 381 281 382 256 381 b 213 431 224 381 213 392 b 238 481 213 468 222 481 b 303 479 258 481 281 479 b 465 628 383 479 465 525 b 336 764 465 729 389 764 b 119 607 194 764 183 607 b 38 717 85 607 38 676 b 336 863 38 764 149 863 b 656 638 550 863 656 758 b 501 446 656 515 549 461 b 485 435 497 444 485 443 b 501 422 485 426 497 424 b 686 214 574 403 686 357 b 338 -19 686 82 558 -19 "},"4":{"ha":771,"x_min":0,"x_max":0,"o":"m 522 -8 b 435 43 463 -8 435 10 l 436 163 b 415 179 436 172 432 179 l 121 179 b 33 263 61 179 33 211 b 553 864 33 543 354 864 b 615 796 614 864 615 822 l 615 300 b 639 276 615 285 624 276 l 711 276 b 740 238 732 276 740 263 b 697 179 740 200 722 179 l 639 179 b 615 156 624 179 615 171 l 615 43 b 522 -8 615 11 583 -8 m 419 276 b 443 300 435 276 443 285 l 443 697 b 435 706 443 701 440 706 b 188 304 392 706 188 511 b 215 276 188 288 197 276 "},"5":{"ha":754,"x_min":0,"x_max":0,"o":"m 353 -19 b 42 129 181 -19 42 79 b 126 244 42 169 86 244 b 354 81 189 244 201 81 b 510 258 464 81 510 160 b 361 432 510 357 457 432 b 153 358 265 432 219 358 b 69 411 97 358 69 381 b 85 697 69 440 85 531 l 85 790 b 151 846 85 824 99 846 b 463 838 214 846 343 838 b 624 864 579 838 583 864 b 668 793 661 864 668 828 b 526 686 668 740 629 686 b 242 707 422 686 265 707 b 213 678 224 707 214 700 b 196 485 203 558 196 494 b 203 475 196 478 200 475 b 426 542 224 475 278 542 b 700 268 588 542 700 424 b 353 -19 700 113 582 -19 "},"6":{"ha":797,"x_min":0,"x_max":0,"o":"m 414 -19 b 54 421 188 -19 54 156 b 429 863 54 689 201 863 b 724 717 611 863 724 764 b 642 607 724 676 675 607 b 429 764 578 607 563 764 b 244 474 306 764 244 638 b 251 442 244 457 246 442 b 467 547 275 442 308 547 b 746 275 600 547 746 444 b 414 -19 746 106 610 -19 m 411 75 b 558 258 496 75 558 149 b 413 439 558 365 496 439 b 264 258 326 439 264 365 b 411 75 264 149 326 75 "},"7":{"ha":693,"x_min":0,"x_max":0,"o":"m 290 -7 b 196 68 219 -7 196 18 b 508 675 196 361 451 611 b 519 692 515 682 519 688 b 504 700 519 697 514 700 l 182 700 b 53 646 83 700 88 646 b 8 732 25 646 8 692 b 157 860 8 807 57 860 b 508 822 251 860 451 822 b 624 850 560 822 583 850 b 678 781 647 850 678 829 b 386 56 678 626 386 465 b 290 -7 386 11 361 -7 "},"8":{"ha":801,"x_min":0,"x_max":0,"o":"m 401 -18 b 54 217 219 -18 54 60 b 222 415 54 328 151 388 b 239 428 231 419 239 421 b 222 443 239 433 232 436 b 83 636 163 474 83 526 b 401 865 83 782 224 865 b 721 654 592 865 721 779 b 574 478 721 549 628 499 b 556 465 564 474 556 474 b 569 454 556 460 561 458 b 747 229 651 422 747 357 b 401 -18 747 63 581 -18 m 436 517 b 569 656 453 517 569 563 b 401 769 569 728 488 769 b 247 663 317 769 247 729 b 436 517 247 571 418 517 m 401 76 b 569 203 492 76 569 121 b 361 367 569 318 379 367 b 217 215 344 367 217 329 b 401 76 217 124 310 76 "},"9":{"ha":797,"x_min":0,"x_max":0,"o":"m 368 -19 b 74 128 186 -19 74 79 b 156 236 74 168 122 236 b 368 79 219 236 235 79 b 553 369 492 79 553 206 b 546 401 553 388 551 401 b 331 296 522 401 489 296 b 51 568 197 296 51 399 b 383 863 51 738 188 863 b 743 422 610 863 743 689 b 368 -19 743 154 596 -19 m 385 404 b 533 586 471 404 533 479 b 386 768 533 694 471 768 b 239 586 301 768 239 694 b 385 404 239 479 301 404 "},"\r":{"ha":219,"x_min":0,"x_max":0,"o":""}," ":{"ha":219,"x_min":0,"x_max":0,"o":""},"A":{"ha":822,"x_min":0,"x_max":0,"o":"m 701 -11 b 528 176 613 -11 567 32 b 499 197 524 192 517 197 l 249 197 b 219 176 231 197 224 192 l 178 43 b 97 -3 168 11 154 -3 b 28 35 64 -3 28 4 b 38 65 28 43 32 51 b 158 383 50 93 99 219 b 271 719 224 561 271 694 b 219 782 271 757 219 757 b 376 857 219 822 288 857 b 557 725 463 857 528 818 l 725 186 b 831 61 761 74 831 100 b 701 -11 831 24 769 -11 m 475 294 b 493 308 486 294 493 300 b 490 317 493 311 492 313 l 394 636 b 378 661 390 653 386 661 b 361 636 369 661 365 650 l 258 317 b 256 308 257 313 256 311 b 274 294 256 300 263 294 "},"Á":{"ha":822,"x_min":0,"x_max":0,"o":"m 361 910 b 282 947 313 910 282 929 b 368 1032 282 971 342 986 b 456 1106 399 1065 400 1106 b 551 1053 511 1106 551 1083 b 361 910 551 986 442 910 m 701 -11 b 528 176 613 -11 567 32 b 499 197 524 192 517 197 l 249 197 b 219 176 231 197 224 192 l 178 43 b 97 -3 168 11 154 -3 b 28 35 64 -3 28 4 b 38 65 28 43 32 51 b 158 383 50 93 99 219 b 271 719 224 561 271 694 b 219 782 271 757 219 757 b 376 857 219 822 288 857 b 557 725 463 857 528 818 l 725 186 b 831 61 761 74 831 100 b 701 -11 831 24 769 -11 m 475 294 b 493 308 486 294 493 300 b 490 317 493 311 492 313 l 394 636 b 378 661 390 653 386 661 b 361 636 369 661 365 650 l 258 317 b 256 308 257 313 256 311 b 274 294 256 300 263 294 "},"Ă":{"ha":822,"x_min":0,"x_max":0,"o":"m 392 915 b 185 1060 249 915 185 1003 b 219 1103 185 1086 196 1103 b 392 1015 267 1103 279 1015 b 563 1103 507 1015 518 1103 b 600 1060 586 1103 600 1086 b 392 915 600 1003 538 915 m 701 -11 b 528 176 613 -11 567 32 b 499 197 524 192 517 197 l 249 197 b 219 176 231 197 224 192 l 178 43 b 97 -3 168 11 154 -3 b 28 35 64 -3 28 4 b 38 65 28 43 32 51 b 158 383 50 93 99 219 b 271 719 224 561 271 694 b 219 782 271 757 219 757 b 376 857 219 822 288 857 b 557 725 463 857 528 818 l 725 186 b 831 61 761 74 831 100 b 701 -11 831 24 769 -11 m 475 294 b 493 308 486 294 493 300 b 490 317 493 311 492 313 l 394 636 b 378 661 390 653 386 661 b 361 636 369 661 365 650 l 258 317 b 256 308 257 313 256 311 b 274 294 256 300 263 294 "},"Â":{"ha":822,"x_min":0,"x_max":0,"o":"m 247 911 b 172 947 207 911 172 926 b 276 1043 172 972 233 993 b 389 1103 311 1081 321 1103 l 399 1103 b 508 1043 465 1103 475 1081 b 611 947 551 993 611 972 b 536 911 611 926 578 911 b 392 1001 490 911 426 957 b 247 911 357 957 294 911 m 701 -11 b 528 176 613 -11 567 32 b 499 197 524 192 517 197 l 249 197 b 219 176 231 197 224 192 l 178 43 b 97 -3 168 11 154 -3 b 28 35 64 -3 28 4 b 38 65 28 43 32 51 b 158 383 50 93 99 219 b 271 719 224 561 271 694 b 219 782 271 757 219 757 b 376 857 219 822 288 857 b 557 725 463 857 528 818 l 725 186 b 831 61 761 74 831 100 b 701 -11 831 24 769 -11 m 475 294 b 493 308 486 294 493 300 b 490 317 493 311 492 313 l 394 636 b 378 661 390 653 386 661 b 361 636 369 661 365 650 l 258 317 b 256 308 257 313 256 311 b 274 294 256 300 263 294 "},"Ä":{"ha":822,"x_min":0,"x_max":0,"o":"m 256 922 b 160 1010 206 922 160 964 b 256 1096 160 1053 200 1096 b 351 1008 307 1096 351 1056 b 256 922 350 965 307 922 m 526 922 b 433 1010 476 922 433 964 b 526 1096 433 1053 472 1096 b 624 1008 579 1096 625 1056 b 526 922 622 965 579 922 m 701 -11 b 528 176 613 -11 567 32 b 499 197 524 192 517 197 l 249 197 b 219 176 231 197 224 192 l 178 43 b 97 -3 168 11 154 -3 b 28 35 64 -3 28 4 b 38 65 28 43 32 51 b 158 383 50 93 99 219 b 271 719 224 561 271 694 b 219 782 271 757 219 757 b 376 857 219 822 288 857 b 557 725 463 857 528 818 l 725 186 b 831 61 761 74 831 100 b 701 -11 831 24 769 -11 m 475 294 b 493 308 486 294 493 300 b 490 317 493 311 492 313 l 394 636 b 378 661 390 653 386 661 b 361 636 369 661 365 650 l 258 317 b 256 308 257 313 256 311 b 274 294 256 300 263 294 "},"À":{"ha":822,"x_min":0,"x_max":0,"o":"m 410 910 b 219 1053 331 910 219 986 b 317 1106 219 1083 261 1106 b 401 1032 371 1106 371 1065 b 488 947 429 986 488 971 b 410 910 488 929 460 910 m 701 -11 b 528 176 613 -11 567 32 b 499 197 524 192 517 197 l 249 197 b 219 176 231 197 224 192 l 178 43 b 97 -3 168 11 154 -3 b 28 35 64 -3 28 4 b 38 65 28 43 32 51 b 158 383 50 93 99 219 b 271 719 224 561 271 694 b 219 782 271 757 219 757 b 376 857 219 822 288 857 b 557 725 463 857 528 818 l 725 186 b 831 61 761 74 831 100 b 701 -11 831 24 769 -11 m 475 294 b 493 308 486 294 493 300 b 490 317 493 311 492 313 l 394 636 b 378 661 390 653 386 661 b 361 636 369 661 365 650 l 258 317 b 256 308 257 313 256 311 b 274 294 256 300 263 294 "},"Ā":{"ha":822,"x_min":0,"x_max":0,"o":"m 224 960 b 186 993 197 960 186 967 l 186 1028 b 224 1060 186 1053 197 1060 l 560 1060 b 599 1028 586 1060 599 1053 l 599 993 b 560 960 599 967 586 960 m 701 -11 b 528 176 613 -11 567 32 b 499 197 524 192 517 197 l 249 197 b 219 176 231 197 224 192 l 178 43 b 97 -3 168 11 154 -3 b 28 35 64 -3 28 4 b 38 65 28 43 32 51 b 158 383 50 93 99 219 b 271 719 224 561 271 694 b 219 782 271 757 219 757 b 376 857 219 822 288 857 b 557 725 463 857 528 818 l 725 186 b 831 61 761 74 831 100 b 701 -11 831 24 769 -11 m 475 294 b 493 308 486 294 493 300 b 490 317 493 311 492 313 l 394 636 b 378 661 390 653 386 661 b 361 636 369 661 365 650 l 258 317 b 256 308 257 313 256 311 b 274 294 256 300 263 294 "},"Ą":{"ha":822,"x_min":0,"x_max":0,"o":"m 678 -254 b 543 -143 601 -254 543 -212 b 649 -3 543 -87 586 -33 b 528 176 590 15 557 68 b 499 197 524 192 517 197 l 249 197 b 219 176 231 197 224 192 l 178 43 b 97 -3 168 11 154 -3 b 28 35 64 -3 28 4 b 38 65 28 43 32 51 b 158 383 50 93 99 219 b 271 719 224 561 271 694 b 219 782 271 757 219 757 b 376 857 219 822 288 857 b 557 725 463 857 528 818 l 725 186 b 831 61 761 74 831 100 b 757 -4 831 29 796 15 b 653 -115 706 -31 653 -67 b 714 -160 653 -147 675 -160 b 788 -147 746 -160 765 -147 b 815 -172 806 -147 815 -154 b 678 -254 815 -206 756 -254 m 475 294 b 493 308 486 294 493 300 b 490 317 493 311 492 313 l 394 636 b 378 661 390 653 386 661 b 361 636 369 661 365 650 l 258 317 b 256 308 257 313 256 311 b 274 294 256 300 263 294 "},"Å":{"ha":822,"x_min":0,"x_max":0,"o":"m 390 907 b 218 1065 296 907 218 978 b 390 1224 218 1153 296 1224 b 564 1065 489 1224 564 1153 b 390 907 564 978 489 907 m 392 982 b 474 1065 438 982 474 1018 b 392 1149 474 1110 438 1149 b 310 1065 347 1149 310 1110 b 392 982 310 1018 347 982 m 701 -11 b 528 176 613 -11 567 32 b 499 197 524 192 517 197 l 249 197 b 219 176 231 197 224 192 l 178 43 b 97 -3 168 11 154 -3 b 28 35 64 -3 28 4 b 38 65 28 43 32 51 b 158 383 50 93 99 219 b 271 719 224 561 271 694 b 219 782 271 757 219 757 b 376 857 219 822 288 857 b 557 725 463 857 528 818 l 725 186 b 831 61 761 74 831 100 b 701 -11 831 24 769 -11 m 475 294 b 493 308 486 294 493 300 b 490 317 493 311 492 313 l 394 636 b 378 661 390 653 386 661 b 361 636 369 661 365 650 l 258 317 b 256 308 257 313 256 311 b 274 294 256 300 263 294 "},"Ã":{"ha":822,"x_min":0,"x_max":0,"o":"m 490 901 b 303 1008 401 901 340 1008 b 222 906 258 1008 279 906 b 175 982 193 906 175 939 b 293 1117 175 1046 204 1117 b 479 1011 382 1117 442 1011 b 560 1114 525 1011 504 1114 b 608 1038 588 1114 608 1081 b 490 901 608 975 578 901 m 701 -11 b 528 176 613 -11 567 32 b 499 197 524 192 517 197 l 249 197 b 219 176 231 197 224 192 l 178 43 b 97 -3 168 11 154 -3 b 28 35 64 -3 28 4 b 38 65 28 43 32 51 b 158 383 50 93 99 219 b 271 719 224 561 271 694 b 219 782 271 757 219 757 b 376 857 219 822 288 857 b 557 725 463 857 528 818 l 725 186 b 831 61 761 74 831 100 b 701 -11 831 24 769 -11 m 475 294 b 493 308 486 294 493 300 b 490 317 493 311 492 313 l 394 636 b 378 661 390 653 386 661 b 361 636 369 661 365 650 l 258 317 b 256 308 257 313 256 311 b 274 294 256 300 263 294 "},"Æ":{"ha":1186,"x_min":0,"x_max":0,"o":"m 1058 -6 b 844 0 1015 -6 924 0 b 625 -3 789 0 694 -3 b 547 54 561 -3 547 18 b 550 179 547 69 550 107 b 529 197 550 190 543 197 l 286 197 b 256 175 269 197 264 190 l 183 39 b 103 -3 169 13 161 -3 b 28 35 63 -3 28 4 b 57 97 28 49 40 65 b 204 357 72 124 136 232 b 400 722 292 514 400 692 b 344 782 400 754 344 756 b 481 851 344 813 390 851 b 775 844 575 851 631 844 b 1046 850 919 844 1003 850 b 1121 729 1103 850 1121 790 b 1082 644 1121 679 1115 644 b 879 750 1035 644 1003 750 l 815 750 l 757 750 b 733 726 742 750 733 742 l 733 506 b 757 482 733 490 742 482 b 933 483 817 482 892 483 b 964 442 957 483 964 468 b 919 381 964 401 946 381 l 757 381 b 733 357 742 381 733 372 l 733 119 b 757 94 733 103 742 94 l 890 94 b 1093 201 1008 94 1047 201 b 1133 115 1128 201 1133 167 b 1058 -6 1133 56 1115 -6 m 531 294 b 551 315 546 294 551 300 l 551 710 b 539 728 551 722 549 728 b 518 711 528 728 525 725 l 304 315 b 319 294 299 304 307 294 "},"B":{"ha":792,"x_min":0,"x_max":0,"o":"m 339 -12 b 93 50 108 -12 93 15 b 104 408 93 72 104 251 l 104 649 b 39 790 104 778 39 749 b 288 854 39 818 76 854 l 339 854 b 704 629 593 854 704 753 b 569 450 704 513 615 465 b 551 438 561 447 551 447 b 569 426 551 429 561 429 b 757 224 632 407 757 364 b 379 -12 757 88 639 -12 l 339 -12 m 349 471 b 517 617 432 471 517 517 b 343 764 517 719 440 764 l 310 764 b 281 739 286 764 281 758 b 283 675 281 722 283 704 l 283 496 b 313 471 283 479 288 471 m 375 79 b 561 231 490 79 561 128 b 358 388 561 328 486 388 l 317 388 b 283 363 286 388 283 378 l 283 106 b 331 79 283 89 288 79 "},"":{"ha":792,"x_min":0,"x_max":0,"o":"m 339 -12 l 379 -12 b 757 224 639 -12 757 88 b 569 426 757 364 632 407 b 551 438 561 429 551 429 b 569 450 551 447 561 447 b 704 629 615 465 704 513 b 339 854 704 753 593 854 l 288 854 b 39 790 76 854 39 818 b 104 649 39 749 104 778 l 104 408 b 93 50 104 251 93 72 b 339 -12 93 15 108 -12 m 313 471 b 283 496 288 471 283 479 l 283 675 b 281 739 283 704 281 722 b 310 764 281 758 286 764 l 343 764 b 517 617 440 764 517 719 b 349 471 517 517 432 471 m 331 79 b 283 106 288 79 283 89 l 283 363 b 317 388 283 378 286 388 l 358 388 b 561 231 486 388 561 328 b 375 79 561 128 490 79 "},"C":{"ha":804,"x_min":0,"x_max":0,"o":"m 439 -19 b 54 419 203 -19 54 171 b 443 863 54 696 219 863 b 760 679 658 863 760 731 b 679 565 760 629 722 565 b 443 769 610 565 593 769 b 247 440 314 769 247 644 b 474 106 247 232 331 106 b 728 243 621 106 679 243 b 761 210 749 243 761 231 b 439 -19 761 136 651 -19 "},"Ć":{"ha":804,"x_min":0,"x_max":0,"o":"m 413 910 b 333 947 364 910 333 929 b 419 1032 333 971 393 986 b 507 1106 450 1065 451 1106 b 603 1053 563 1106 603 1083 b 413 910 603 986 493 910 m 439 -19 b 54 419 203 -19 54 171 b 443 863 54 696 219 863 b 760 679 658 863 760 731 b 679 565 760 629 722 565 b 443 769 610 565 593 769 b 247 440 314 769 247 644 b 474 106 247 232 331 106 b 728 243 621 106 679 243 b 761 210 749 243 761 231 b 439 -19 761 136 651 -19 "},"Č":{"ha":804,"x_min":0,"x_max":0,"o":"m 439 908 b 328 967 371 908 363 931 b 224 1063 285 1018 224 1038 b 299 1100 224 1085 258 1100 b 443 1010 346 1100 410 1053 b 588 1100 481 1053 542 1100 b 663 1063 629 1100 663 1085 b 560 967 663 1038 603 1018 b 449 908 526 931 515 908 m 439 -19 b 54 419 203 -19 54 171 b 443 863 54 696 219 863 b 760 679 658 863 760 731 b 679 565 760 629 722 565 b 443 769 610 565 593 769 b 247 440 314 769 247 644 b 474 106 247 232 331 106 b 728 243 621 106 679 243 b 761 210 749 243 761 231 b 439 -19 761 136 651 -19 "},"Ç":{"ha":804,"x_min":0,"x_max":0,"o":"m 761 210 b 483 -17 761 142 667 3 b 565 -168 528 -67 565 -115 b 429 -254 565 -231 490 -254 b 319 -137 369 -254 319 -218 b 351 -94 319 -103 333 -94 b 435 -129 372 -94 408 -129 b 463 -103 451 -129 463 -121 b 411 -18 463 -81 438 -49 b 54 419 190 -4 54 181 b 443 863 54 696 219 863 b 760 679 658 863 760 731 b 679 565 760 629 722 565 b 443 769 610 565 593 769 b 247 440 314 769 247 644 b 474 106 247 232 331 106 b 728 243 621 106 679 243 b 761 210 749 243 761 231 "},"Ĉ":{"ha":804,"x_min":0,"x_max":0,"o":"m 299 911 b 224 947 258 911 224 926 b 328 1043 224 972 285 993 b 440 1103 363 1081 372 1103 l 450 1103 b 560 1043 517 1103 526 1081 b 663 947 603 993 663 972 b 588 911 663 926 629 911 b 443 1001 542 911 478 957 b 299 911 408 957 346 911 m 439 -19 b 54 419 203 -19 54 171 b 443 863 54 696 219 863 b 760 679 658 863 760 731 b 679 565 760 629 722 565 b 443 769 610 565 593 769 b 247 440 314 769 247 644 b 474 106 247 232 331 106 b 728 243 621 106 679 243 b 761 210 749 243 761 231 b 439 -19 761 136 651 -19 "},"Ċ":{"ha":804,"x_min":0,"x_max":0,"o":"m 442 921 b 343 1010 390 921 343 961 b 442 1096 343 1054 386 1096 b 543 1008 496 1096 543 1057 b 442 921 542 963 496 921 m 439 -19 b 54 419 203 -19 54 171 b 443 863 54 696 219 863 b 760 679 658 863 760 731 b 679 565 760 629 722 565 b 443 769 610 565 593 769 b 247 440 314 769 247 644 b 474 106 247 232 331 106 b 728 243 621 106 679 243 b 761 210 749 243 761 231 b 439 -19 761 136 651 -19 "},"D":{"ha":864,"x_min":0,"x_max":0,"o":"m 261 -12 b 93 50 175 -12 93 -3 b 107 408 93 72 107 251 l 107 647 b 39 790 107 778 39 749 b 82 831 39 808 56 821 b 318 856 142 850 244 856 b 808 418 636 856 808 686 b 297 -14 808 156 646 -14 b 261 -12 281 -14 269 -12 m 349 83 b 615 421 514 83 615 193 b 344 761 615 647 517 761 b 317 760 335 761 318 760 b 288 736 290 760 288 756 b 290 628 288 714 290 693 b 286 107 290 357 286 193 b 324 83 286 89 293 83 "},"Ð":{"ha":875,"x_min":0,"x_max":0,"o":"m 329 856 b 819 418 647 856 819 686 b 308 -14 819 156 657 -14 b 272 -12 292 -14 281 -12 b 106 50 188 -12 106 -3 b 118 375 106 71 117 226 l 75 375 b 39 406 50 375 39 382 l 39 438 b 75 468 39 463 50 468 l 118 468 l 118 647 b 50 790 118 778 50 749 b 93 831 50 808 67 821 b 329 856 153 850 256 856 m 360 83 b 628 421 525 83 628 193 b 356 761 628 647 528 761 b 328 760 346 761 329 760 b 299 736 301 760 299 756 b 301 628 299 714 301 693 l 301 468 l 417 468 b 453 438 442 468 453 463 l 453 406 b 417 375 453 382 442 375 l 300 375 b 297 107 299 249 297 163 b 335 83 297 89 306 83 l 360 83 "},"Ď":{"ha":864,"x_min":0,"x_max":0,"o":"m 360 908 b 249 967 292 908 283 931 b 144 1063 206 1018 144 1038 b 219 1100 144 1085 179 1100 b 364 1010 267 1100 331 1053 b 508 1100 401 1053 463 1100 b 583 1063 550 1100 583 1085 b 481 967 583 1038 524 1018 b 369 908 447 931 436 908 m 261 -12 b 93 50 175 -12 93 -3 b 107 408 93 72 107 251 l 107 647 b 39 790 107 778 39 749 b 82 831 39 808 56 821 b 318 856 142 850 244 856 b 808 418 636 856 808 686 b 297 -14 808 156 646 -14 b 261 -12 281 -14 269 -12 m 349 83 b 615 421 514 83 615 193 b 344 761 615 647 517 761 b 317 760 335 761 318 760 b 288 736 290 760 288 756 b 290 628 288 714 290 693 b 286 107 290 357 286 193 b 324 83 286 89 293 83 "},"Đ":{"ha":875,"x_min":0,"x_max":0,"o":"m 329 856 b 819 418 647 856 819 686 b 308 -14 819 156 657 -14 b 272 -12 292 -14 281 -12 b 106 50 188 -12 106 -3 b 118 375 106 71 117 226 l 75 375 b 39 406 50 375 39 382 l 39 438 b 75 468 39 463 50 468 l 118 468 l 118 647 b 50 790 118 778 50 749 b 93 831 50 808 67 821 b 329 856 153 850 256 856 m 360 83 b 628 421 525 83 628 193 b 356 761 628 647 528 761 b 328 760 346 761 329 760 b 299 736 301 760 299 756 b 301 628 299 714 301 693 l 301 468 l 417 468 b 453 438 442 468 453 463 l 453 406 b 417 375 453 382 442 375 l 300 375 b 297 107 299 249 297 163 b 335 83 297 89 306 83 l 360 83 "},"E":{"ha":740,"x_min":0,"x_max":0,"o":"m 614 -6 b 400 0 569 -6 472 0 l 161 0 b 93 50 106 0 93 22 b 106 408 93 72 106 258 l 106 649 b 39 792 106 771 39 753 b 217 844 39 832 118 844 l 406 844 b 600 850 481 844 557 850 b 676 729 657 850 676 790 b 636 644 676 679 669 644 b 433 750 589 644 558 750 l 369 750 b 308 750 342 750 318 750 b 288 710 292 750 288 742 l 288 503 b 311 479 288 488 296 479 l 489 479 b 519 438 511 479 519 464 b 474 376 519 399 501 376 b 311 378 449 376 372 378 b 288 354 296 378 288 369 l 288 119 b 311 94 288 103 296 94 l 446 94 b 649 201 564 94 601 201 b 688 115 682 201 688 167 b 614 -6 688 56 669 -6 "},"":{"ha":740,"x_min":0,"x_max":0,"o":"m 614 -6 b 688 115 669 -6 688 56 b 649 201 688 167 682 201 b 446 94 601 201 564 94 l 311 94 b 288 119 296 94 288 103 l 288 354 b 311 378 288 369 296 378 b 474 376 372 378 449 376 b 519 438 501 376 519 399 b 489 479 519 464 511 479 l 311 479 b 288 503 296 479 288 488 l 288 710 b 308 750 288 742 292 750 b 369 750 318 750 342 750 l 433 750 b 636 644 558 750 589 644 b 676 729 669 644 676 679 b 600 850 676 790 657 850 b 406 844 557 850 481 844 l 217 844 b 39 792 118 844 39 832 b 106 649 39 753 106 771 l 106 408 b 93 50 106 258 93 72 b 161 0 93 22 106 0 l 400 0 b 614 -6 472 0 569 -6 "},"É":{"ha":740,"x_min":0,"x_max":0,"o":"m 333 910 b 254 947 285 910 254 929 b 340 1032 254 971 314 986 b 428 1106 371 1065 372 1106 b 524 1053 483 1106 524 1083 b 333 910 524 986 414 910 m 614 -6 b 400 0 569 -6 472 0 l 161 0 b 93 50 106 0 93 22 b 106 408 93 72 106 258 l 106 649 b 39 792 106 771 39 753 b 217 844 39 832 118 844 l 406 844 b 600 850 481 844 557 850 b 676 729 657 850 676 790 b 636 644 676 679 669 644 b 433 750 589 644 558 750 l 369 750 b 308 750 342 750 318 750 b 288 710 292 750 288 742 l 288 503 b 311 479 288 488 296 479 l 489 479 b 519 438 511 479 519 464 b 474 376 519 399 501 376 b 311 378 449 376 372 378 b 288 354 296 378 288 369 l 288 119 b 311 94 288 103 296 94 l 446 94 b 649 201 564 94 601 201 b 688 115 682 201 688 167 b 614 -6 688 56 669 -6 "},"Ĕ":{"ha":740,"x_min":0,"x_max":0,"o":"m 364 915 b 157 1060 221 915 157 1003 b 192 1103 157 1086 168 1103 b 364 1015 239 1103 251 1015 b 535 1103 479 1015 490 1103 b 572 1060 558 1103 572 1086 b 364 915 572 1003 510 915 m 614 -6 b 400 0 569 -6 472 0 l 161 0 b 93 50 106 0 93 22 b 106 408 93 72 106 258 l 106 649 b 39 792 106 771 39 753 b 217 844 39 832 118 844 l 406 844 b 600 850 481 844 557 850 b 676 729 657 850 676 790 b 636 644 676 679 669 644 b 433 750 589 644 558 750 l 369 750 b 308 750 342 750 318 750 b 288 710 292 750 288 742 l 288 503 b 311 479 288 488 296 479 l 489 479 b 519 438 511 479 519 464 b 474 376 519 399 501 376 b 311 378 449 376 372 378 b 288 354 296 378 288 369 l 288 119 b 311 94 288 103 296 94 l 446 94 b 649 201 564 94 601 201 b 688 115 682 201 688 167 b 614 -6 688 56 669 -6 "},"Ě":{"ha":740,"x_min":0,"x_max":0,"o":"m 360 908 b 249 967 292 908 283 931 b 144 1063 206 1018 144 1038 b 219 1100 144 1085 179 1100 b 364 1010 267 1100 331 1053 b 508 1100 401 1053 463 1100 b 583 1063 550 1100 583 1085 b 481 967 583 1038 524 1018 b 369 908 447 931 436 908 m 614 -6 b 400 0 569 -6 472 0 l 161 0 b 93 50 106 0 93 22 b 106 408 93 72 106 258 l 106 649 b 39 792 106 771 39 753 b 217 844 39 832 118 844 l 406 844 b 600 850 481 844 557 850 b 676 729 657 850 676 790 b 636 644 676 679 669 644 b 433 750 589 644 558 750 l 369 750 b 308 750 342 750 318 750 b 288 710 292 750 288 742 l 288 503 b 311 479 288 488 296 479 l 489 479 b 519 438 511 479 519 464 b 474 376 519 399 501 376 b 311 378 449 376 372 378 b 288 354 296 378 288 369 l 288 119 b 311 94 288 103 296 94 l 446 94 b 649 201 564 94 601 201 b 688 115 682 201 688 167 b 614 -6 688 56 669 -6 "},"Ê":{"ha":740,"x_min":0,"x_max":0,"o":"m 219 911 b 144 947 179 911 144 926 b 249 1043 144 972 206 993 b 361 1103 283 1081 293 1103 l 371 1103 b 481 1043 438 1103 447 1081 b 583 947 524 993 583 972 b 508 911 583 926 550 911 b 364 1001 463 911 399 957 b 219 911 329 957 267 911 m 614 -6 b 400 0 569 -6 472 0 l 161 0 b 93 50 106 0 93 22 b 106 408 93 72 106 258 l 106 649 b 39 792 106 771 39 753 b 217 844 39 832 118 844 l 406 844 b 600 850 481 844 557 850 b 676 729 657 850 676 790 b 636 644 676 679 669 644 b 433 750 589 644 558 750 l 369 750 b 308 750 342 750 318 750 b 288 710 292 750 288 742 l 288 503 b 311 479 288 488 296 479 l 489 479 b 519 438 511 479 519 464 b 474 376 519 399 501 376 b 311 378 449 376 372 378 b 288 354 296 378 288 369 l 288 119 b 311 94 288 103 296 94 l 446 94 b 649 201 564 94 601 201 b 688 115 682 201 688 167 b 614 -6 688 56 669 -6 "},"Ë":{"ha":740,"x_min":0,"x_max":0,"o":"m 228 922 b 132 1010 178 922 132 964 b 228 1096 132 1053 172 1096 b 324 1008 279 1096 324 1056 b 228 922 322 965 279 922 m 499 922 b 406 1010 449 922 406 964 b 499 1096 406 1053 444 1096 b 596 1008 551 1096 597 1056 b 499 922 594 965 551 922 m 614 -6 b 400 0 569 -6 472 0 l 161 0 b 93 50 106 0 93 22 b 106 408 93 72 106 258 l 106 649 b 39 792 106 771 39 753 b 217 844 39 832 118 844 l 406 844 b 600 850 481 844 557 850 b 676 729 657 850 676 790 b 636 644 676 679 669 644 b 433 750 589 644 558 750 l 369 750 b 308 750 342 750 318 750 b 288 710 292 750 288 742 l 288 503 b 311 479 288 488 296 479 l 489 479 b 519 438 511 479 519 464 b 474 376 519 399 501 376 b 311 378 449 376 372 378 b 288 354 296 378 288 369 l 288 119 b 311 94 288 103 296 94 l 446 94 b 649 201 564 94 601 201 b 688 115 682 201 688 167 b 614 -6 688 56 669 -6 "},"Ė":{"ha":740,"x_min":0,"x_max":0,"o":"m 363 921 b 264 1010 311 921 264 961 b 363 1096 264 1054 307 1096 b 464 1008 417 1096 464 1057 b 363 921 463 963 417 921 m 614 -6 b 400 0 569 -6 472 0 l 161 0 b 93 50 106 0 93 22 b 106 408 93 72 106 258 l 106 649 b 39 792 106 771 39 753 b 217 844 39 832 118 844 l 406 844 b 600 850 481 844 557 850 b 676 729 657 850 676 790 b 636 644 676 679 669 644 b 433 750 589 644 558 750 l 369 750 b 308 750 342 750 318 750 b 288 710 292 750 288 742 l 288 503 b 311 479 288 488 296 479 l 489 479 b 519 438 511 479 519 464 b 474 376 519 399 501 376 b 311 378 449 376 372 378 b 288 354 296 378 288 369 l 288 119 b 311 94 288 103 296 94 l 446 94 b 649 201 564 94 601 201 b 688 115 682 201 688 167 b 614 -6 688 56 669 -6 "},"È":{"ha":740,"x_min":0,"x_max":0,"o":"m 382 910 b 192 1053 303 910 192 986 b 289 1106 192 1083 233 1106 b 374 1032 343 1106 343 1065 b 460 947 401 986 460 971 b 382 910 460 929 432 910 m 614 -6 b 400 0 569 -6 472 0 l 161 0 b 93 50 106 0 93 22 b 106 408 93 72 106 258 l 106 649 b 39 792 106 771 39 753 b 217 844 39 832 118 844 l 406 844 b 600 850 481 844 557 850 b 676 729 657 850 676 790 b 636 644 676 679 669 644 b 433 750 589 644 558 750 l 369 750 b 308 750 342 750 318 750 b 288 710 292 750 288 742 l 288 503 b 311 479 288 488 296 479 l 489 479 b 519 438 511 479 519 464 b 474 376 519 399 501 376 b 311 378 449 376 372 378 b 288 354 296 378 288 369 l 288 119 b 311 94 288 103 296 94 l 446 94 b 649 201 564 94 601 201 b 688 115 682 201 688 167 b 614 -6 688 56 669 -6 "},"Ē":{"ha":740,"x_min":0,"x_max":0,"o":"m 196 960 b 158 993 169 960 158 967 l 158 1028 b 196 1060 158 1053 169 1060 l 532 1060 b 571 1028 558 1060 571 1053 l 571 993 b 532 960 571 967 558 960 m 614 -6 b 400 0 569 -6 472 0 l 161 0 b 93 50 106 0 93 22 b 106 408 93 72 106 258 l 106 649 b 39 792 106 771 39 753 b 217 844 39 832 118 844 l 406 844 b 600 850 481 844 557 850 b 676 729 657 850 676 790 b 636 644 676 679 669 644 b 433 750 589 644 558 750 l 369 750 b 308 750 342 750 318 750 b 288 710 292 750 288 742 l 288 503 b 311 479 288 488 296 479 l 489 479 b 519 438 511 479 519 464 b 474 376 519 399 501 376 b 311 378 449 376 372 378 b 288 354 296 378 288 369 l 288 119 b 311 94 288 103 296 94 l 446 94 b 649 201 564 94 601 201 b 688 115 682 201 688 167 b 614 -6 688 56 669 -6 "},"Ę":{"ha":740,"x_min":0,"x_max":0,"o":"m 532 -251 b 397 -140 456 -251 397 -210 b 524 -3 397 -86 446 -36 b 400 0 482 -1 436 0 l 161 0 b 93 50 106 0 93 22 b 106 408 93 72 106 258 l 106 649 b 39 792 106 771 39 753 b 217 844 39 832 118 844 l 406 844 b 600 850 481 844 557 850 b 676 729 657 850 676 790 b 636 644 676 679 669 644 b 433 750 589 644 558 750 l 369 750 l 308 750 b 288 710 292 750 288 742 l 288 503 b 311 479 288 488 296 479 l 489 479 b 519 438 511 479 519 464 b 474 376 519 399 501 376 b 311 378 436 376 367 378 b 288 354 296 378 288 369 l 288 119 b 311 94 288 103 296 94 l 446 94 b 649 201 564 94 601 201 b 688 115 682 201 688 167 b 507 -112 688 -40 507 -33 b 568 -157 507 -144 529 -157 b 642 -144 600 -157 619 -144 b 669 -169 660 -144 669 -151 b 532 -251 669 -204 610 -251 "},"F":{"ha":714,"x_min":0,"x_max":0,"o":"m 192 -8 b 93 46 117 -8 93 14 b 106 406 93 68 106 256 l 106 649 b 39 792 106 771 39 753 b 217 844 39 832 118 844 l 407 844 b 610 850 482 844 560 850 b 686 729 667 850 686 789 b 646 644 686 679 679 644 b 443 750 599 644 568 750 l 375 750 l 310 750 b 289 710 292 750 289 742 l 289 483 b 313 460 289 468 297 460 l 533 460 b 563 418 556 460 563 446 b 518 358 563 379 544 358 l 313 358 b 289 335 297 358 289 350 l 289 43 b 192 -8 289 14 265 -8 "},"G":{"ha":850,"x_min":0,"x_max":0,"o":"m 447 -19 b 54 421 219 -19 54 139 b 461 864 54 703 238 864 b 769 703 653 864 769 756 b 683 585 769 657 726 585 b 461 769 631 585 622 769 b 249 424 358 769 249 688 b 458 86 249 179 339 86 b 613 197 554 86 613 114 l 613 242 b 510 367 613 326 510 319 b 672 422 510 401 590 422 b 778 314 747 422 778 389 l 778 132 b 447 -19 778 53 656 -19 "},"Ğ":{"ha":850,"x_min":0,"x_max":0,"o":"m 447 915 b 240 1060 304 915 240 1003 b 275 1103 240 1086 251 1103 b 447 1015 322 1103 335 1015 b 618 1103 563 1015 574 1103 b 656 1060 642 1103 656 1086 b 447 915 656 1003 593 915 m 447 -19 b 54 421 219 -19 54 139 b 461 864 54 703 238 864 b 769 703 653 864 769 756 b 683 585 769 657 726 585 b 461 769 631 585 622 769 b 249 424 358 769 249 688 b 458 86 249 179 339 86 b 613 197 554 86 613 114 l 613 242 b 510 367 613 326 510 319 b 672 422 510 401 590 422 b 778 314 747 422 778 389 l 778 132 b 447 -19 778 53 656 -19 "},"Ĝ":{"ha":850,"x_min":0,"x_max":0,"o":"m 303 911 b 228 947 263 911 228 926 b 332 1043 228 972 289 993 b 444 1103 367 1081 376 1103 l 454 1103 b 564 1043 521 1103 531 1081 b 667 947 607 993 667 972 b 592 911 667 926 633 911 b 447 1001 546 911 482 957 b 303 911 413 957 350 911 m 447 -19 b 54 421 219 -19 54 139 b 461 864 54 703 238 864 b 769 703 653 864 769 756 b 683 585 769 657 726 585 b 461 769 631 585 622 769 b 249 424 358 769 249 688 b 458 86 249 179 339 86 b 613 197 554 86 613 114 l 613 242 b 510 367 613 326 510 319 b 672 422 510 401 590 422 b 778 314 747 422 778 389 l 778 132 b 447 -19 778 53 656 -19 "},"Ģ":{"ha":850,"x_min":0,"x_max":0,"o":"m 447 -19 b 54 421 219 -19 54 139 b 461 864 54 703 238 864 b 769 703 653 864 769 756 b 683 585 769 657 726 585 b 461 769 631 585 622 769 b 249 424 358 769 249 688 b 458 86 249 179 339 86 b 613 197 554 86 613 114 l 613 242 b 510 367 613 326 510 319 b 672 422 510 401 590 422 b 778 314 747 422 778 389 l 778 132 b 447 -19 778 53 656 -19 m 374 -322 b 344 -297 357 -322 344 -312 b 396 -201 344 -271 396 -253 b 372 -129 396 -176 372 -161 b 451 -64 372 -87 410 -64 b 531 -147 496 -64 531 -96 b 374 -322 531 -246 438 -322 "},"Ġ":{"ha":850,"x_min":0,"x_max":0,"o":"m 446 921 b 347 1010 394 921 347 961 b 446 1096 347 1054 390 1096 b 547 1008 500 1096 547 1057 b 446 921 546 963 500 921 m 447 -19 b 54 421 219 -19 54 139 b 461 864 54 703 238 864 b 769 703 653 864 769 756 b 683 585 769 657 726 585 b 461 769 631 585 622 769 b 249 424 358 769 249 688 b 458 86 249 179 339 86 b 613 197 554 86 613 114 l 613 242 b 510 367 613 326 510 319 b 672 422 510 401 590 422 b 778 314 747 422 778 389 l 778 132 b 447 -19 778 53 656 -19 "},"H":{"ha":888,"x_min":0,"x_max":0,"o":"m 193 -8 b 93 53 115 -8 93 17 b 107 408 93 90 107 161 l 107 672 b 39 790 107 767 39 751 b 190 851 39 828 124 851 b 290 729 260 851 290 814 l 290 496 b 307 478 290 483 293 478 l 581 478 b 597 496 593 478 597 483 l 597 788 b 694 851 597 826 619 851 b 793 790 771 851 793 828 b 781 438 793 753 781 678 l 781 169 b 849 53 781 75 849 90 b 697 -8 849 14 764 -8 b 597 114 628 -8 597 29 l 597 360 b 581 378 597 371 593 378 l 307 378 b 290 360 293 378 290 372 l 290 56 b 193 -8 290 17 268 -8 "},"Ħ":{"ha":888,"x_min":0,"x_max":0,"o":"m 835 681 b 871 650 860 681 871 674 l 871 624 b 835 593 871 599 860 593 l 782 593 b 781 438 782 551 781 500 l 781 169 b 849 53 781 75 849 90 b 697 -8 849 14 764 -8 b 597 114 628 -8 597 29 l 597 361 b 581 379 597 372 593 379 l 307 379 b 290 361 293 379 290 374 l 290 56 b 193 -8 290 17 268 -8 b 93 53 115 -8 93 17 b 107 408 93 90 107 161 l 107 449 b 106 593 107 507 107 554 l 53 593 b 17 624 28 593 17 599 l 17 650 b 53 681 17 674 28 681 l 101 681 b 94 790 99 746 94 769 b 194 851 94 828 117 851 b 290 788 268 851 290 826 l 290 681 l 597 681 l 597 788 b 694 851 597 826 619 851 b 793 790 771 851 793 828 b 786 681 793 771 789 740 m 597 593 l 290 593 l 290 493 b 307 475 290 482 293 475 l 581 475 b 597 493 593 475 597 482 "},"Ĥ":{"ha":888,"x_min":0,"x_max":0,"o":"m 294 911 b 219 947 254 911 219 926 b 324 1043 219 972 281 993 b 436 1103 358 1081 368 1103 l 446 1103 b 556 1043 513 1103 522 1081 b 658 947 599 993 658 972 b 583 911 658 926 625 911 b 439 1001 538 911 474 957 b 294 911 404 957 342 911 m 193 -8 b 93 53 115 -8 93 17 b 107 408 93 90 107 161 l 107 672 b 39 790 107 767 39 751 b 190 851 39 828 124 851 b 290 729 260 851 290 814 l 290 496 b 307 478 290 483 293 478 l 581 478 b 597 496 593 478 597 483 l 597 788 b 694 851 597 826 619 851 b 793 790 771 851 793 828 b 781 438 793 753 781 678 l 781 169 b 849 53 781 75 849 90 b 697 -8 849 14 764 -8 b 597 114 628 -8 597 29 l 597 360 b 581 378 597 371 593 378 l 307 378 b 290 360 293 378 290 372 l 290 56 b 193 -8 290 17 268 -8 "},"I":{"ha":388,"x_min":0,"x_max":0,"o":"m 193 -8 b 93 43 118 -8 93 14 b 107 408 93 71 107 251 l 107 672 b 39 790 107 767 39 751 b 189 851 39 831 124 851 b 290 729 260 851 290 814 l 290 43 b 193 -8 290 14 267 -8 "},"Í":{"ha":388,"x_min":0,"x_max":0,"o":"m 146 910 b 65 947 96 910 65 929 b 151 1032 65 971 125 986 b 239 1106 183 1065 183 1106 b 335 1053 294 1106 335 1083 b 146 910 335 986 225 910 m 193 -8 b 93 43 118 -8 93 14 b 107 408 93 71 107 251 l 107 672 b 39 790 107 767 39 751 b 189 851 39 831 124 851 b 290 729 260 851 290 814 l 290 43 b 193 -8 290 14 267 -8 "},"Ĭ":{"ha":388,"x_min":0,"x_max":0,"o":"m 193 915 b -14 1060 50 915 -14 1003 b 21 1103 -14 1086 -3 1103 b 193 1015 68 1103 81 1015 b 364 1103 308 1015 319 1103 b 401 1060 388 1103 401 1086 b 193 915 401 1003 339 915 m 193 -8 b 93 43 118 -8 93 14 b 107 408 93 71 107 251 l 107 672 b 39 790 107 767 39 751 b 189 851 39 831 124 851 b 290 729 260 851 290 814 l 290 43 b 193 -8 290 14 267 -8 "},"Î":{"ha":388,"x_min":0,"x_max":0,"o":"m 64 913 b -4 949 28 913 -4 926 b 88 1044 -4 974 50 992 b 189 1104 118 1082 128 1104 l 199 1104 b 299 1044 258 1104 268 1082 b 389 949 335 992 389 974 b 322 913 389 926 358 913 b 193 994 279 913 222 957 b 64 913 161 957 107 913 m 193 -8 b 93 43 118 -8 93 14 b 107 408 93 71 107 251 l 107 672 b 39 790 107 767 39 751 b 189 851 39 831 124 851 b 290 729 260 851 290 814 l 290 43 b 193 -8 290 14 267 -8 "},"Ï":{"ha":388,"x_min":0,"x_max":0,"o":"m 72 922 b -17 1010 26 922 -17 964 b 72 1096 -17 1053 22 1096 b 160 1008 119 1096 160 1056 b 72 922 158 965 119 922 m 311 922 b 224 1010 265 922 224 964 b 311 1096 224 1053 261 1096 b 400 1008 358 1096 401 1056 b 311 922 399 965 358 922 m 193 -8 b 93 43 118 -8 93 14 b 107 408 93 71 107 251 l 107 672 b 39 790 107 767 39 751 b 189 851 39 831 124 851 b 290 729 260 851 290 814 l 290 43 b 193 -8 290 14 267 -8 "},"İ":{"ha":388,"x_min":0,"x_max":0,"o":"m 192 921 b 93 1010 140 921 93 961 b 192 1096 93 1054 136 1096 b 293 1008 246 1096 293 1057 b 192 921 292 963 246 921 m 193 -8 b 93 43 118 -8 93 14 b 107 408 93 71 107 251 l 107 672 b 39 790 107 767 39 751 b 189 851 39 831 124 851 b 290 729 260 851 290 814 l 290 43 b 193 -8 290 14 267 -8 "},"Ì":{"ha":388,"x_min":0,"x_max":0,"o":"m 238 910 b 46 1053 158 910 46 986 b 143 1106 46 1083 88 1106 b 229 1032 199 1106 199 1065 b 315 947 257 986 315 971 b 238 910 315 929 286 910 m 193 -8 b 93 43 118 -8 93 14 b 107 408 93 71 107 251 l 107 672 b 39 790 107 767 39 751 b 189 851 39 831 124 851 b 290 729 260 851 290 814 l 290 43 b 193 -8 290 14 267 -8 "},"Ī":{"ha":388,"x_min":0,"x_max":0,"o":"m 25 960 b -12 993 -1 960 -12 967 l -12 1028 b 25 1060 -12 1053 -1 1060 l 361 1060 b 400 1028 388 1060 400 1053 l 400 993 b 361 960 400 967 388 960 m 193 -8 b 93 43 118 -8 93 14 b 107 408 93 71 107 251 l 107 672 b 39 790 107 767 39 751 b 189 851 39 831 124 851 b 290 729 260 851 290 814 l 290 43 b 193 -8 290 14 267 -8 "},"Į":{"ha":388,"x_min":0,"x_max":0,"o":"m 169 -254 b 42 -143 106 -254 42 -212 b 142 -1 42 -90 79 -37 b 93 43 106 6 93 22 b 107 408 93 71 107 251 l 107 672 b 39 790 107 767 39 751 b 189 851 39 831 124 851 b 290 729 260 851 290 814 l 290 43 b 240 -8 290 17 275 7 b 153 -115 197 -31 153 -74 b 204 -160 153 -147 181 -160 b 272 -147 235 -160 250 -147 b 301 -172 290 -147 301 -154 b 169 -254 301 -207 243 -254 "},"Ĩ":{"ha":388,"x_min":0,"x_max":0,"o":"m 292 901 b 104 1008 203 901 142 1008 b 24 906 60 1008 81 906 b -24 982 -6 906 -24 939 b 94 1117 -24 1046 6 1117 b 281 1011 183 1117 243 1011 b 361 1114 326 1011 306 1114 b 410 1038 389 1114 410 1081 b 292 901 410 975 379 901 m 193 -8 b 93 43 118 -8 93 14 b 107 408 93 71 107 251 l 107 672 b 39 790 107 767 39 751 b 189 851 39 831 124 851 b 290 729 260 851 290 814 l 290 43 b 193 -8 290 14 267 -8 "},"J":{"ha":368,"x_min":0,"x_max":0,"o":"m 26 -187 b -61 -137 -24 -187 -61 -168 b 107 56 -61 -87 107 -90 l 107 672 b 39 790 107 767 39 751 b 189 851 39 831 124 851 b 290 729 260 851 290 814 l 290 56 b 26 -187 290 -131 157 -187 "},"Ĵ":{"ha":368,"x_min":0,"x_max":0,"o":"m 54 913 b -14 949 18 913 -14 926 b 78 1044 -14 974 40 992 b 179 1104 108 1082 118 1104 l 189 1104 b 289 1044 249 1104 258 1082 b 379 949 325 992 379 974 b 313 913 379 926 349 913 b 183 994 269 913 213 957 b 54 913 151 957 97 913 m 26 -187 b -61 -137 -24 -187 -61 -168 b 107 56 -61 -87 107 -90 l 107 672 b 39 790 107 767 39 751 b 189 851 39 831 124 851 b 290 729 260 851 290 814 l 290 56 b 26 -187 290 -131 157 -187 "},"K":{"ha":792,"x_min":0,"x_max":0,"o":"m 661 -17 b 375 351 544 -17 493 68 b 338 378 368 369 357 378 l 315 378 b 288 353 297 378 288 372 l 288 43 b 196 -8 288 14 264 -8 b 93 43 118 -8 93 14 b 107 408 93 71 107 246 l 107 672 b 39 792 107 767 39 751 b 189 851 39 831 124 851 b 288 729 258 851 288 811 l 288 494 b 311 469 288 476 294 469 l 335 469 b 385 500 353 469 372 479 l 571 803 b 668 847 590 836 607 847 b 733 815 718 847 733 833 b 710 765 733 797 726 786 b 517 483 554 554 517 510 b 699 139 517 457 618 206 b 743 119 717 124 729 119 b 769 124 754 119 760 124 b 799 94 789 124 799 108 b 661 -17 799 65 765 -17 "},"Ķ":{"ha":792,"x_min":0,"x_max":0,"o":"m 661 -17 b 375 351 544 -17 493 68 b 338 378 368 369 357 378 l 315 378 b 288 353 297 378 288 372 l 288 43 b 196 -8 288 14 264 -8 b 93 43 118 -8 93 14 b 107 408 93 71 107 246 l 107 672 b 39 792 107 767 39 751 b 189 851 39 831 124 851 b 288 729 258 851 288 811 l 288 494 b 311 469 288 476 294 469 l 335 469 b 385 500 353 469 372 479 l 571 803 b 668 847 590 836 607 847 b 733 815 718 847 733 833 b 710 765 733 797 726 786 b 517 483 554 554 517 510 b 699 139 517 457 618 206 b 743 119 717 124 729 119 b 769 124 754 119 760 124 b 799 94 789 124 799 108 b 661 -17 799 65 765 -17 m 324 -322 b 294 -297 307 -322 294 -312 b 346 -201 294 -271 346 -253 b 322 -129 346 -176 322 -161 b 401 -64 322 -87 360 -64 b 481 -147 446 -64 481 -96 b 324 -322 481 -246 388 -322 "},"L":{"ha":715,"x_min":0,"x_max":0,"o":"m 614 -6 b 411 0 569 -6 486 0 l 161 0 b 93 50 106 0 93 22 b 107 408 93 79 107 251 l 107 672 b 39 790 107 767 39 751 b 189 851 39 831 124 851 b 290 729 260 851 290 814 l 290 119 b 314 94 290 103 299 94 l 444 94 b 649 219 564 94 601 219 b 689 115 686 219 689 179 b 614 -6 689 56 671 -6 "},"Ĺ":{"ha":715,"x_min":0,"x_max":0,"o":"m 164 915 b 85 953 115 915 85 935 b 171 1038 85 976 144 992 b 258 1111 201 1071 203 1111 b 354 1058 314 1111 354 1089 b 164 915 354 992 244 915 m 614 -6 b 411 0 569 -6 486 0 l 161 0 b 93 50 106 0 93 22 b 107 408 93 79 107 251 l 107 672 b 39 790 107 767 39 751 b 189 851 39 831 124 851 b 290 729 260 851 290 814 l 290 119 b 314 94 290 103 299 94 l 444 94 b 649 219 564 94 601 219 b 689 115 686 219 689 179 b 614 -6 689 56 671 -6 "},"Ľ":{"ha":715,"x_min":0,"x_max":0,"o":"m 457 603 b 429 628 442 603 429 614 b 479 724 429 654 479 672 b 457 796 479 749 457 764 b 536 861 457 838 494 861 b 614 778 579 861 614 829 b 457 603 614 679 522 603 m 614 -6 b 411 0 569 -6 486 0 l 161 0 b 93 50 106 0 93 22 b 107 408 93 79 107 251 l 107 672 b 39 790 107 767 39 751 b 189 851 39 831 124 851 b 290 729 260 851 290 814 l 290 119 b 314 94 290 103 299 94 l 444 94 b 649 219 564 94 601 219 b 689 115 686 219 689 179 b 614 -6 689 56 671 -6 "},"Ļ":{"ha":715,"x_min":0,"x_max":0,"o":"m 614 -6 b 411 0 569 -6 486 0 l 161 0 b 93 50 106 0 93 22 b 107 408 93 79 107 251 l 107 672 b 39 790 107 767 39 751 b 189 851 39 831 124 851 b 290 729 260 851 290 814 l 290 119 b 314 94 290 103 299 94 l 444 94 b 649 219 564 94 601 219 b 689 115 686 219 689 179 b 614 -6 689 56 671 -6 m 290 -322 b 261 -297 274 -322 261 -312 b 313 -201 261 -271 313 -253 b 289 -129 313 -176 289 -161 b 368 -64 289 -87 326 -64 b 447 -147 413 -64 447 -96 b 290 -322 447 -246 354 -322 "},"Ŀ":{"ha":715,"x_min":0,"x_max":0,"o":"m 614 -6 b 411 0 569 -6 486 0 l 161 0 b 93 50 106 0 93 22 b 107 408 93 79 107 251 l 107 672 b 39 790 107 767 39 751 b 189 851 39 831 124 851 b 290 729 260 851 290 814 l 290 119 b 314 94 290 103 299 94 l 444 94 b 649 219 564 94 601 219 b 689 115 686 219 689 179 b 614 -6 689 56 671 -6 m 554 356 b 450 450 492 356 450 394 b 554 540 450 504 492 540 b 658 449 615 540 658 503 b 554 356 658 393 615 356 "},"Ł":{"ha":715,"x_min":0,"x_max":0,"o":"m 649 219 b 689 115 686 219 689 179 b 614 -6 689 56 671 -6 b 411 0 569 -6 486 0 l 161 0 b 93 50 106 0 93 22 b 106 300 93 72 101 181 b 51 281 88 289 74 281 b 14 306 22 281 14 292 b 53 353 14 322 25 335 l 107 390 l 107 408 l 107 672 b 39 790 107 767 39 751 b 189 851 39 831 124 851 b 290 729 260 851 290 814 l 290 518 l 311 532 b 381 564 339 551 351 564 b 418 539 410 564 418 553 b 379 489 418 522 407 508 l 290 428 l 290 119 b 314 94 290 103 299 94 l 444 94 b 649 219 564 94 601 219 "},"M":{"ha":1113,"x_min":0,"x_max":0,"o":"m 960 -12 b 821 150 888 -12 825 19 b 813 617 817 304 817 496 b 803 639 813 632 810 639 b 785 614 793 639 790 633 l 590 44 b 528 -6 581 15 576 -6 b 464 44 483 -6 476 13 l 268 614 b 251 639 263 633 257 639 b 240 622 243 639 240 632 b 233 342 239 567 233 461 b 236 42 233 200 236 78 b 163 -3 236 13 215 -3 b 93 40 110 -3 93 13 b 113 342 93 92 104 200 b 129 694 119 483 129 653 b 54 789 129 761 54 754 b 200 857 54 826 128 857 b 456 626 328 857 397 804 l 544 375 b 561 349 550 363 551 349 b 579 375 572 349 574 363 l 668 626 b 915 857 726 806 814 857 b 1053 789 1010 857 1053 817 b 985 694 1053 756 985 756 b 1003 172 985 633 997 321 b 1081 60 1007 86 1081 99 b 960 -12 1081 22 1024 -12 "},"N":{"ha":890,"x_min":0,"x_max":0,"o":"m 706 -8 b 617 43 668 -8 643 3 l 250 571 b 236 581 244 579 240 581 b 226 569 232 581 226 578 b 238 39 226 389 238 115 b 167 -7 238 10 219 -7 b 94 39 113 -7 94 10 b 114 683 94 103 114 461 b 33 789 114 758 33 756 b 158 856 33 819 89 856 b 369 711 239 856 290 822 l 649 313 b 665 300 656 301 660 300 b 674 313 669 300 674 304 b 657 807 674 540 657 743 b 729 853 657 836 675 853 b 800 807 781 853 800 836 b 789 400 800 758 793 551 b 790 43 786 286 790 83 b 715 -8 790 15 768 -8 "},"Ń":{"ha":890,"x_min":0,"x_max":0,"o":"m 414 910 b 335 947 365 910 335 929 b 421 1032 335 971 394 986 b 508 1106 451 1065 453 1106 b 604 1053 564 1106 604 1083 b 414 910 604 986 494 910 m 706 -8 b 617 43 668 -8 643 3 l 250 571 b 236 581 244 579 240 581 b 226 569 232 581 226 578 b 238 39 226 389 238 115 b 167 -7 238 10 219 -7 b 94 39 113 -7 94 10 b 114 683 94 103 114 461 b 33 789 114 758 33 756 b 158 856 33 819 89 856 b 369 711 239 856 290 822 l 649 313 b 665 300 656 301 660 300 b 674 313 669 300 674 304 b 657 807 674 540 657 743 b 729 853 657 836 675 853 b 800 807 781 853 800 836 b 789 400 800 758 793 551 b 790 43 786 286 790 83 b 715 -8 790 15 768 -8 "},"Ň":{"ha":890,"x_min":0,"x_max":0,"o":"m 440 908 b 329 967 372 908 364 931 b 225 1063 286 1018 225 1038 b 300 1100 225 1085 260 1100 b 444 1010 347 1100 411 1053 b 589 1100 482 1053 543 1100 b 664 1063 631 1100 664 1085 b 561 967 664 1038 604 1018 b 450 908 528 931 517 908 m 706 -8 b 617 43 668 -8 643 3 l 250 571 b 236 581 244 579 240 581 b 226 569 232 581 226 578 b 238 39 226 389 238 115 b 167 -7 238 10 219 -7 b 94 39 113 -7 94 10 b 114 683 94 103 114 461 b 33 789 114 758 33 756 b 158 856 33 819 89 856 b 369 711 239 856 290 822 l 649 313 b 665 300 656 301 660 300 b 674 313 669 300 674 304 b 657 807 674 540 657 743 b 729 853 657 836 675 853 b 800 807 781 853 800 836 b 789 400 800 758 793 551 b 790 43 786 286 790 83 b 715 -8 790 15 768 -8 "},"Ņ":{"ha":890,"x_min":0,"x_max":0,"o":"m 706 -8 b 617 43 668 -8 643 3 l 250 571 b 236 581 244 579 240 581 b 226 569 232 581 226 578 b 238 39 226 389 238 115 b 167 -7 238 10 219 -7 b 94 39 113 -7 94 10 b 114 683 94 103 114 461 b 33 789 114 758 33 756 b 158 856 33 819 89 856 b 369 711 239 856 290 822 l 649 313 b 665 300 656 301 660 300 b 674 313 669 300 674 304 b 657 807 674 540 657 743 b 729 853 657 836 675 853 b 800 807 781 853 800 836 b 789 400 800 758 793 551 b 790 43 786 286 790 83 b 715 -8 790 15 768 -8 m 367 -322 b 338 -297 350 -322 338 -312 b 389 -201 338 -271 389 -253 b 365 -129 389 -176 365 -161 b 444 -64 365 -87 403 -64 b 524 -147 489 -64 524 -96 b 367 -322 524 -246 431 -322 "},"Ŋ":{"ha":890,"x_min":0,"x_max":0,"o":"m 619 -210 b 539 -162 578 -210 539 -194 b 649 -36 539 -125 649 -131 b 632 21 649 -11 643 6 l 250 571 b 236 581 244 579 240 581 b 226 569 232 581 226 578 b 238 39 226 389 238 115 b 167 -7 238 10 219 -7 b 94 39 113 -7 94 10 b 114 683 94 133 114 438 b 33 789 114 758 33 756 b 158 856 33 819 89 856 b 369 711 239 856 290 822 l 649 313 b 665 300 656 301 660 300 b 674 313 669 300 674 304 b 657 807 674 540 657 743 b 729 853 657 836 675 853 b 800 807 781 853 800 836 b 789 400 800 758 793 551 b 790 -11 786 293 790 47 b 619 -210 790 -185 681 -210 "},"Ñ":{"ha":890,"x_min":0,"x_max":0,"o":"m 543 901 b 356 1008 454 901 393 1008 b 275 906 311 1008 332 906 b 228 982 246 906 228 939 b 346 1117 228 1046 257 1117 b 532 1011 435 1117 494 1011 b 613 1114 578 1011 557 1114 b 661 1038 640 1114 661 1081 b 543 901 661 975 631 901 m 706 -8 b 617 43 668 -8 643 3 l 250 571 b 236 581 244 579 240 581 b 226 569 232 581 226 578 b 238 39 226 389 238 115 b 167 -7 238 10 219 -7 b 94 39 113 -7 94 10 b 114 683 94 103 114 461 b 33 789 114 758 33 756 b 158 856 33 819 89 856 b 369 711 239 856 290 822 l 649 313 b 665 300 656 301 660 300 b 674 313 669 300 674 304 b 657 807 674 540 657 743 b 729 853 657 836 675 853 b 800 807 781 853 800 836 b 789 400 800 758 793 551 b 790 43 786 286 790 83 b 715 -8 790 15 768 -8 "},"O":{"ha":906,"x_min":0,"x_max":0,"o":"m 451 -19 b 54 422 199 -19 54 156 b 451 864 54 689 199 864 b 850 422 706 864 850 688 b 451 -19 850 157 706 -19 m 451 85 b 657 422 585 85 657 203 b 451 760 657 642 585 760 b 247 422 321 760 247 642 b 451 85 247 203 321 85 "},"Ó":{"ha":906,"x_min":0,"x_max":0,"o":"m 421 910 b 342 947 372 910 342 929 b 428 1032 342 971 401 986 b 515 1106 458 1065 460 1106 b 611 1053 571 1106 611 1083 b 421 910 611 986 501 910 m 451 -19 b 54 422 199 -19 54 156 b 451 864 54 689 199 864 b 850 422 706 864 850 688 b 451 -19 850 157 706 -19 m 451 85 b 657 422 585 85 657 203 b 451 760 657 642 585 760 b 247 422 321 760 247 642 b 451 85 247 203 321 85 "},"Ŏ":{"ha":906,"x_min":0,"x_max":0,"o":"m 451 915 b 244 1060 308 915 244 1003 b 279 1103 244 1086 256 1103 b 451 1015 326 1103 339 1015 b 622 1103 567 1015 578 1103 b 660 1060 646 1103 660 1086 b 451 915 660 1003 597 915 m 451 -19 b 54 422 199 -19 54 156 b 451 864 54 689 199 864 b 850 422 706 864 850 688 b 451 -19 850 157 706 -19 m 451 85 b 657 422 585 85 657 203 b 451 760 657 642 585 760 b 247 422 321 760 247 642 b 451 85 247 203 321 85 "},"Ô":{"ha":906,"x_min":0,"x_max":0,"o":"m 307 911 b 232 947 267 911 232 926 b 336 1043 232 972 293 993 b 449 1103 371 1081 381 1103 l 458 1103 b 568 1043 525 1103 535 1081 b 671 947 611 993 671 972 b 596 911 671 926 638 911 b 451 1001 550 911 486 957 b 307 911 417 957 354 911 m 451 -19 b 54 422 199 -19 54 156 b 451 864 54 689 199 864 b 850 422 706 864 850 688 b 451 -19 850 157 706 -19 m 451 85 b 657 422 585 85 657 203 b 451 760 657 642 585 760 b 247 422 321 760 247 642 b 451 85 247 203 321 85 "},"Ö":{"ha":906,"x_min":0,"x_max":0,"o":"m 315 922 b 219 1010 265 922 219 964 b 315 1096 219 1053 260 1096 b 411 1008 367 1096 411 1056 b 315 922 410 965 367 922 m 586 922 b 493 1010 536 922 493 964 b 586 1096 493 1053 532 1096 b 683 1008 639 1096 685 1056 b 586 922 682 965 639 922 m 451 -19 b 54 422 199 -19 54 156 b 451 864 54 689 199 864 b 850 422 706 864 850 688 b 451 -19 850 157 706 -19 m 451 85 b 657 422 585 85 657 203 b 451 760 657 642 585 760 b 247 422 321 760 247 642 b 451 85 247 203 321 85 "},"Ò":{"ha":906,"x_min":0,"x_max":0,"o":"m 469 910 b 279 1053 390 910 279 986 b 376 1106 279 1083 321 1106 b 461 1032 431 1106 431 1065 b 547 947 489 986 547 971 b 469 910 547 929 519 910 m 451 -19 b 54 422 199 -19 54 156 b 451 864 54 689 199 864 b 850 422 706 864 850 688 b 451 -19 850 157 706 -19 m 451 85 b 657 422 585 85 657 203 b 451 760 657 642 585 760 b 247 422 321 760 247 642 b 451 85 247 203 321 85 "},"Ő":{"ha":906,"x_min":0,"x_max":0,"o":"m 326 910 b 249 947 276 910 249 929 b 335 1032 249 971 307 986 b 419 1106 367 1065 367 1106 b 518 1053 475 1106 518 1083 b 326 910 518 986 406 910 m 576 910 b 497 947 526 910 497 929 b 585 1032 497 971 557 986 b 669 1106 615 1065 615 1106 b 767 1053 725 1106 767 1083 b 576 910 767 986 656 910 m 451 -19 b 54 422 199 -19 54 156 b 451 864 54 689 199 864 b 850 422 706 864 850 688 b 451 -19 850 157 706 -19 m 451 85 b 657 422 585 85 657 203 b 451 760 657 642 585 760 b 247 422 321 760 247 642 b 451 85 247 203 321 85 "},"Ō":{"ha":906,"x_min":0,"x_max":0,"o":"m 283 960 b 246 993 257 960 246 967 l 246 1028 b 283 1060 246 1053 257 1060 l 619 1060 b 658 1028 646 1060 658 1053 l 658 993 b 619 960 658 967 646 960 m 451 -19 b 54 422 199 -19 54 156 b 451 864 54 689 199 864 b 850 422 706 864 850 688 b 451 -19 850 157 706 -19 m 451 85 b 657 422 585 85 657 203 b 451 760 657 642 585 760 b 247 422 321 760 247 642 b 451 85 247 203 321 85 "},"Ø":{"ha":906,"x_min":0,"x_max":0,"o":"m 738 751 b 850 422 811 674 850 560 b 451 -19 850 157 706 -19 b 221 46 360 -19 283 3 l 175 -18 b 118 -53 156 -44 146 -53 b 81 -28 90 -53 81 -42 b 110 24 81 -12 90 0 l 163 96 b 54 422 92 174 54 286 b 451 864 54 689 199 864 b 679 801 542 864 618 842 l 724 863 b 782 897 743 889 753 897 b 818 872 810 897 818 886 b 789 821 818 857 807 846 m 247 422 b 269 242 247 351 256 292 l 594 688 b 451 760 561 735 513 760 b 247 422 321 760 247 642 m 451 85 b 657 422 585 85 657 203 b 633 608 657 496 649 558 l 307 161 b 451 85 342 111 390 85 "},"Õ":{"ha":906,"x_min":0,"x_max":0,"o":"m 550 901 b 363 1008 461 901 400 1008 b 282 906 318 1008 339 906 b 235 982 253 906 235 939 b 353 1117 235 1046 264 1117 b 539 1011 442 1117 501 1011 b 619 1114 585 1011 564 1114 b 668 1038 647 1114 668 1081 b 550 901 668 975 638 901 m 451 -19 b 54 422 199 -19 54 156 b 451 864 54 689 199 864 b 850 422 706 864 850 688 b 451 -19 850 157 706 -19 m 451 85 b 657 422 585 85 657 203 b 451 760 657 642 585 760 b 247 422 321 760 247 642 b 451 85 247 203 321 85 "},"Œ":{"ha":1281,"x_min":0,"x_max":0,"o":"m 438 -19 b 54 422 204 -19 54 156 b 438 864 54 689 204 864 b 693 732 574 864 654 801 b 685 818 693 807 685 801 b 758 847 685 839 718 847 b 946 844 813 847 876 844 b 1140 850 1021 844 1097 850 b 1217 729 1197 850 1217 790 b 1176 644 1217 679 1211 644 b 974 750 1129 644 1099 750 l 910 750 l 851 750 b 828 710 833 750 828 742 l 828 506 b 851 482 828 490 836 482 b 1029 483 911 482 988 483 b 1060 442 1051 483 1060 468 b 1015 381 1060 401 1042 381 l 851 381 b 828 357 836 381 828 372 l 828 119 b 851 94 828 103 836 94 l 986 94 b 1189 201 1104 94 1142 201 b 1228 115 1222 201 1228 167 b 1154 -6 1228 56 1210 -6 b 940 0 1110 -6 1013 0 b 746 -3 874 0 811 -3 b 688 28 715 -3 688 4 b 693 114 688 35 692 71 b 438 -19 657 44 574 -19 m 438 75 b 626 422 568 75 626 196 b 438 769 626 649 568 769 b 250 422 308 769 250 647 b 438 75 250 197 308 75 "},"P":{"ha":756,"x_min":0,"x_max":0,"o":"m 193 -8 b 92 43 115 -8 92 14 b 104 408 92 71 104 251 l 104 674 b 39 790 104 767 39 749 b 293 854 39 818 81 854 l 329 854 b 718 569 575 854 718 739 b 317 282 718 401 579 282 b 286 257 292 282 286 274 l 286 43 b 193 -8 286 14 264 -8 m 317 372 b 526 574 439 372 526 432 b 340 764 526 724 410 764 l 313 764 b 281 739 286 764 281 758 b 283 675 281 722 283 704 l 283 397 b 317 372 283 379 289 372 "},"Þ":{"ha":817,"x_min":0,"x_max":0,"o":"m 193 -8 b 93 43 118 -8 93 14 b 107 408 93 71 107 251 l 107 672 b 39 790 107 767 39 751 b 189 851 39 831 124 851 b 290 732 260 851 290 814 l 290 714 b 319 690 290 696 297 690 b 779 424 633 690 779 597 b 319 151 779 250 635 151 b 290 128 300 151 290 144 l 290 43 b 193 -8 290 14 267 -8 m 311 242 b 586 424 507 242 586 297 b 311 599 586 550 507 599 b 290 578 294 599 290 593 l 290 264 b 311 242 290 249 294 242 "},"Q":{"ha":906,"x_min":0,"x_max":0,"o":"m 793 -210 b 593 -21 689 -210 643 -146 b 575 8 585 0 582 8 b 546 -1 569 8 564 4 b 451 -19 528 -10 496 -19 b 54 422 206 -19 54 158 b 451 864 54 686 204 864 b 850 422 697 864 850 686 b 728 96 850 246 788 151 b 707 68 715 85 707 81 b 763 -12 707 56 736 14 b 897 -57 799 -49 840 -57 b 926 -86 917 -57 926 -71 b 793 -210 926 -115 900 -210 m 282 254 b 290 257 285 254 289 256 b 299 264 293 258 297 263 b 431 325 322 292 358 325 b 622 213 556 325 611 213 b 657 422 635 213 657 254 b 451 760 657 642 583 760 b 247 422 321 760 247 642 b 282 254 247 299 272 254 m 436 78 b 536 125 501 78 536 103 b 411 228 536 149 490 228 b 325 160 357 228 325 199 b 436 78 325 118 368 78 "},"R":{"ha":781,"x_min":0,"x_max":0,"o":"m 619 -18 b 365 274 497 -18 456 107 b 319 307 349 297 342 307 l 304 307 b 286 290 293 307 286 303 l 286 43 b 193 -8 286 14 264 -8 b 92 43 115 -8 92 14 b 104 408 92 71 104 251 l 104 674 b 39 790 104 767 39 749 b 292 854 39 818 81 854 l 324 854 b 717 583 571 854 717 746 b 531 356 717 458 622 389 b 496 332 500 342 496 339 b 521 299 496 326 503 319 b 683 140 607 210 643 140 b 738 156 708 140 721 156 b 765 119 758 156 765 135 b 619 -18 765 72 733 -18 m 311 399 b 525 578 439 399 525 457 b 336 764 525 735 411 764 l 313 764 b 281 739 286 764 281 758 b 283 675 281 722 283 704 l 283 421 b 311 399 283 407 288 399 "},"Ŕ":{"ha":781,"x_min":0,"x_max":0,"o":"m 326 910 b 247 947 278 910 247 929 b 333 1032 247 971 307 986 b 421 1106 364 1065 365 1106 b 517 1053 476 1106 517 1083 b 326 910 517 986 407 910 m 619 -18 b 365 274 497 -18 456 107 b 319 307 349 297 342 307 l 304 307 b 286 290 293 307 286 303 l 286 43 b 193 -8 286 14 264 -8 b 92 43 115 -8 92 14 b 104 408 92 71 104 251 l 104 674 b 39 790 104 767 39 749 b 292 854 39 818 81 854 l 324 854 b 717 583 571 854 717 746 b 531 356 717 458 622 389 b 496 332 500 342 496 339 b 521 299 496 326 503 319 b 683 140 607 210 643 140 b 738 156 708 140 721 156 b 765 119 758 156 765 135 b 619 -18 765 72 733 -18 m 311 399 b 525 578 439 399 525 457 b 336 764 525 735 411 764 l 313 764 b 281 739 286 764 281 758 b 283 675 281 722 283 704 l 283 421 b 311 399 283 407 288 399 "},"Ř":{"ha":781,"x_min":0,"x_max":0,"o":"m 353 908 b 242 967 285 908 276 931 b 138 1063 199 1018 138 1038 b 213 1100 138 1085 172 1100 b 357 1010 260 1100 324 1053 b 501 1100 394 1053 456 1100 b 576 1063 543 1100 576 1085 b 474 967 576 1038 517 1018 b 363 908 440 931 429 908 m 619 -18 b 365 274 497 -18 456 107 b 319 307 349 297 342 307 l 304 307 b 286 290 293 307 286 303 l 286 43 b 193 -8 286 14 264 -8 b 92 43 115 -8 92 14 b 104 408 92 71 104 251 l 104 674 b 39 790 104 767 39 749 b 292 854 39 818 81 854 l 324 854 b 717 583 571 854 717 746 b 531 356 717 458 622 389 b 496 332 500 342 496 339 b 521 299 496 326 503 319 b 683 140 607 210 643 140 b 738 156 708 140 721 156 b 765 119 758 156 765 135 b 619 -18 765 72 733 -18 m 311 399 b 525 578 439 399 525 457 b 336 764 525 735 411 764 l 313 764 b 281 739 286 764 281 758 b 283 675 281 722 283 704 l 283 421 b 311 399 283 407 288 399 "},"Ŗ":{"ha":781,"x_min":0,"x_max":0,"o":"m 619 -18 b 365 274 497 -18 456 107 b 319 307 349 297 342 307 l 304 307 b 286 290 293 307 286 303 l 286 43 b 193 -8 286 14 264 -8 b 92 43 115 -8 92 14 b 104 408 92 71 104 251 l 104 674 b 39 790 104 767 39 749 b 292 854 39 818 81 854 l 324 854 b 717 583 571 854 717 746 b 531 356 717 458 622 389 b 496 332 500 342 496 339 b 521 299 496 326 503 319 b 683 140 607 210 643 140 b 738 156 708 140 721 156 b 765 119 758 156 765 135 b 619 -18 765 72 733 -18 m 311 399 b 525 578 439 399 525 457 b 336 764 525 735 411 764 l 313 764 b 281 739 286 764 281 758 b 283 675 281 722 283 704 l 283 421 b 311 399 283 407 288 399 m 318 -322 b 289 -297 301 -322 289 -312 b 340 -201 289 -271 340 -253 b 317 -129 340 -176 317 -161 b 396 -64 317 -87 354 -64 b 475 -147 440 -64 475 -96 b 318 -322 475 -246 382 -322 "},"S":{"ha":726,"x_min":0,"x_max":0,"o":"m 353 -18 b 29 150 131 -18 29 97 b 103 272 29 193 69 272 b 353 76 169 272 188 76 b 497 182 442 76 497 111 b 307 354 497 251 440 286 b 56 638 174 424 56 497 b 356 863 56 774 176 863 b 650 722 531 863 650 781 b 568 607 650 683 601 607 b 347 768 506 607 497 768 b 226 674 264 768 226 726 b 400 513 226 614 267 582 b 672 229 533 444 672 367 b 353 -18 672 94 575 -18 "},"":{"ha":726,"x_min":0,"x_max":0,"o":"m 353 -18 b 672 229 575 -18 672 94 b 400 513 672 367 533 444 b 226 674 267 582 226 614 b 347 768 226 726 264 768 b 568 607 497 768 506 607 b 650 722 601 607 650 683 b 356 863 650 781 531 863 b 56 638 176 863 56 774 b 307 354 56 497 174 424 b 497 182 440 286 497 251 b 353 76 497 111 442 76 b 103 272 188 76 169 272 b 29 150 69 272 29 193 b 353 -18 29 97 131 -18 "},"Ś":{"ha":726,"x_min":0,"x_max":0,"o":"m 328 910 b 249 947 279 910 249 929 b 335 1032 249 971 308 986 b 422 1106 365 1065 367 1106 b 518 1053 478 1106 518 1083 b 328 910 518 986 408 910 m 353 -18 b 29 150 131 -18 29 97 b 103 272 29 193 69 272 b 353 76 169 272 188 76 b 497 182 442 76 497 111 b 307 354 497 251 440 286 b 56 638 174 424 56 497 b 356 863 56 774 176 863 b 650 722 531 863 650 781 b 568 607 650 683 601 607 b 347 768 506 607 497 768 b 226 674 264 768 226 726 b 400 513 226 614 267 582 b 672 229 533 444 672 367 b 353 -18 672 94 575 -18 "},"Š":{"ha":726,"x_min":0,"x_max":0,"o":"m 354 908 b 243 967 286 908 278 931 b 139 1063 200 1018 139 1038 b 214 1100 139 1085 174 1100 b 358 1010 261 1100 325 1053 b 503 1100 396 1053 457 1100 b 578 1063 544 1100 578 1085 b 475 967 578 1038 518 1018 b 364 908 442 931 431 908 m 353 -18 b 29 150 131 -18 29 97 b 103 272 29 193 69 272 b 353 76 169 272 188 76 b 497 182 442 76 497 111 b 307 354 497 251 440 286 b 56 638 174 424 56 497 b 356 863 56 774 176 863 b 650 722 531 863 650 781 b 568 607 650 683 601 607 b 347 768 506 607 497 768 b 226 674 264 768 226 726 b 400 513 226 614 267 582 b 672 229 533 444 672 367 b 353 -18 672 94 575 -18 "},"Ş":{"ha":726,"x_min":0,"x_max":0,"o":"m 672 229 b 396 -17 672 104 588 -3 b 479 -168 442 -65 479 -115 b 343 -254 479 -231 404 -254 b 233 -137 283 -254 233 -218 b 265 -94 233 -103 247 -94 b 349 -129 286 -94 322 -129 b 376 -103 365 -129 376 -121 b 324 -18 376 -81 350 -49 b 29 150 122 -8 29 100 b 103 272 29 193 69 272 b 353 76 169 272 188 76 b 497 182 442 76 497 111 b 307 354 497 251 440 286 b 56 638 174 424 56 497 b 356 863 56 774 176 863 b 650 722 531 863 650 781 b 568 607 650 683 601 607 b 347 768 506 607 497 768 b 226 674 264 768 226 726 b 400 513 226 614 267 582 b 672 229 533 444 672 367 "},"Ŝ":{"ha":726,"x_min":0,"x_max":0,"o":"m 214 911 b 139 947 174 911 139 926 b 243 1043 139 972 200 993 b 356 1103 278 1081 288 1103 l 365 1103 b 475 1043 432 1103 442 1081 b 578 947 518 993 578 972 b 503 911 578 926 544 911 b 358 1001 457 911 393 957 b 214 911 324 957 261 911 m 353 -18 b 29 150 131 -18 29 97 b 103 272 29 193 69 272 b 353 76 169 272 188 76 b 497 182 442 76 497 111 b 307 354 497 251 440 286 b 56 638 174 424 56 497 b 356 863 56 774 176 863 b 650 722 531 863 650 781 b 568 607 650 683 601 607 b 347 768 506 607 497 768 b 226 674 264 768 226 726 b 400 513 226 614 267 582 b 672 229 533 444 672 367 b 353 -18 672 94 575 -18 "},"Ș":{"ha":726,"x_min":0,"x_max":0,"o":"m 353 -18 b 29 150 131 -18 29 97 b 103 272 29 193 69 272 b 353 76 169 272 188 76 b 497 182 442 76 497 111 b 307 354 497 251 440 286 b 56 638 174 424 56 497 b 356 863 56 774 176 863 b 650 722 531 863 650 781 b 568 607 650 683 601 607 b 347 768 506 607 497 768 b 226 674 264 768 226 726 b 400 513 226 614 267 582 b 672 229 533 444 672 367 b 353 -18 672 94 575 -18 m 283 -322 b 254 -297 267 -322 254 -312 b 306 -201 254 -271 306 -253 b 282 -129 306 -176 282 -161 b 361 -64 282 -87 319 -64 b 440 -147 406 -64 440 -96 b 283 -322 440 -246 347 -322 "},"ẞ":{"ha":894,"x_min":0,"x_max":0,"o":"m 572 -18 b 374 71 450 -18 374 28 b 428 140 374 111 399 140 b 569 78 463 140 496 78 b 668 174 625 78 668 107 b 435 493 668 293 435 318 b 594 697 435 624 546 678 b 608 710 606 700 608 704 b 594 724 608 715 604 719 b 458 754 569 735 526 754 b 272 544 317 754 272 663 l 272 56 b 175 -8 272 17 251 -8 b 76 53 100 -8 76 17 b 89 389 76 90 89 143 l 89 531 b 447 858 89 721 186 858 b 778 738 614 858 778 776 b 724 647 778 704 763 665 b 604 536 661 617 604 594 b 847 197 604 424 847 392 b 572 -18 847 72 731 -18 "},"Ə":{"ha":860,"x_min":0,"x_max":0,"o":"m 417 -19 b 53 361 181 -19 53 151 b 140 443 53 417 82 443 l 594 443 b 613 458 607 443 613 449 b 389 738 613 610 538 738 b 122 600 240 738 172 600 b 90 635 103 600 90 613 b 415 863 90 690 189 863 b 806 404 651 863 806 672 b 417 -19 806 149 653 -19 m 417 75 b 613 328 536 75 613 183 b 594 346 613 339 607 346 l 247 346 b 231 328 235 346 231 339 b 417 75 231 189 299 75 "},"T":{"ha":767,"x_min":0,"x_max":0,"o":"m 378 -8 b 279 46 301 -8 279 14 b 292 408 279 68 292 253 l 292 721 b 268 744 292 736 283 744 b 224 746 236 744 229 746 b 76 626 150 746 125 626 b 31 735 36 626 31 672 b 107 860 31 794 49 860 b 286 839 150 860 167 839 l 479 839 b 660 860 599 839 615 860 b 735 735 717 860 735 794 b 690 626 735 672 729 626 b 542 746 640 626 617 746 b 497 744 536 746 531 744 b 475 721 483 744 475 736 l 475 43 b 378 -8 475 14 451 -8 "},"Ŧ":{"ha":767,"x_min":0,"x_max":0,"o":"m 660 860 b 735 735 717 860 735 794 b 690 626 735 672 729 626 b 542 746 640 626 617 746 b 497 744 536 746 531 744 b 475 721 483 744 475 736 l 475 463 l 554 463 b 590 432 579 463 590 456 l 590 400 b 554 369 590 375 579 369 l 475 369 l 475 43 b 378 -8 475 14 451 -8 b 279 46 301 -8 279 14 b 292 369 279 67 290 224 l 213 369 b 176 400 188 369 176 375 l 176 432 b 213 463 176 456 188 463 l 292 463 l 292 721 b 268 744 292 736 283 744 b 224 746 236 744 229 746 b 76 626 150 746 125 626 b 31 735 36 626 31 672 b 107 860 31 794 49 860 b 286 839 150 860 167 839 l 479 839 b 660 860 599 839 615 860 "},"Ť":{"ha":767,"x_min":0,"x_max":0,"o":"m 379 908 b 268 967 311 908 303 931 b 164 1063 225 1018 164 1038 b 239 1100 164 1085 199 1100 b 383 1010 286 1100 350 1053 b 528 1100 421 1053 482 1100 b 603 1063 569 1100 603 1085 b 500 967 603 1038 543 1018 b 389 908 467 931 456 908 m 378 -8 b 279 46 301 -8 279 14 b 292 408 279 68 292 253 l 292 721 b 268 744 292 736 283 744 b 224 746 236 744 229 746 b 76 626 150 746 125 626 b 31 735 36 626 31 672 b 107 860 31 794 49 860 b 286 839 150 860 167 839 l 479 839 b 660 860 599 839 615 860 b 735 735 717 860 735 794 b 690 626 735 672 729 626 b 542 746 640 626 617 746 b 497 744 536 746 531 744 b 475 721 483 744 475 736 l 475 43 b 378 -8 475 14 451 -8 "},"Ţ":{"ha":767,"x_min":0,"x_max":0,"o":"m 660 860 b 735 735 717 860 735 794 b 690 626 735 672 729 626 b 542 746 640 626 617 746 b 497 744 536 746 531 744 b 475 721 483 744 475 736 l 475 43 b 406 -7 475 18 457 -1 b 497 -168 454 -60 497 -112 b 361 -254 497 -231 422 -254 b 251 -137 301 -254 251 -218 b 283 -94 251 -103 265 -94 b 367 -129 304 -94 340 -129 b 394 -103 383 -129 394 -121 b 331 -4 394 -78 361 -39 b 279 46 292 3 279 22 b 292 408 279 68 292 253 l 292 721 b 268 744 292 736 283 744 b 224 746 236 744 229 746 b 76 626 150 746 125 626 b 31 735 36 626 31 672 b 107 860 31 794 49 860 b 286 839 150 860 167 839 l 479 839 b 660 860 599 839 615 860 "},"Ț":{"ha":767,"x_min":0,"x_max":0,"o":"m 378 -8 b 279 46 301 -8 279 14 b 292 408 279 68 292 253 l 292 721 b 268 744 292 736 283 744 b 224 746 236 744 229 746 b 76 626 150 746 125 626 b 31 735 36 626 31 672 b 107 860 31 794 49 860 b 286 839 150 860 167 839 l 479 839 b 660 860 599 839 615 860 b 735 735 717 860 735 794 b 690 626 735 672 729 626 b 542 746 640 626 617 746 b 497 744 536 746 531 744 b 475 721 483 744 475 736 l 475 43 b 378 -8 475 14 451 -8 m 301 -322 b 272 -297 285 -322 272 -312 b 324 -201 272 -271 324 -253 b 300 -129 324 -176 300 -161 b 379 -64 300 -87 338 -64 b 458 -147 424 -64 458 -96 b 301 -322 458 -246 365 -322 "},"U":{"ha":865,"x_min":0,"x_max":0,"o":"m 426 -25 b 92 265 204 -25 92 94 b 103 672 92 444 103 503 b 35 790 103 767 35 751 b 186 851 35 831 121 851 b 288 729 257 851 288 814 b 276 303 288 546 276 485 b 458 93 276 172 325 93 b 642 301 590 93 642 171 b 631 799 642 542 631 729 b 704 849 631 842 651 849 b 774 806 757 849 774 833 b 761 251 774 747 767 401 b 426 -25 754 101 654 -25 "},"Ú":{"ha":865,"x_min":0,"x_max":0,"o":"m 415 910 b 336 947 367 910 336 929 b 422 1032 336 971 396 986 b 510 1106 453 1065 454 1106 b 606 1053 565 1106 606 1083 b 415 910 606 986 496 910 m 426 -25 b 92 265 204 -25 92 94 b 103 672 92 444 103 503 b 35 790 103 767 35 751 b 186 851 35 831 121 851 b 288 729 257 851 288 814 b 276 303 288 546 276 485 b 458 93 276 172 325 93 b 642 301 590 93 642 171 b 631 799 642 542 631 729 b 704 849 631 842 651 849 b 774 806 757 849 774 833 b 761 251 774 747 767 401 b 426 -25 754 101 654 -25 "},"Ŭ":{"ha":865,"x_min":0,"x_max":0,"o":"m 446 915 b 239 1060 303 915 239 1003 b 274 1103 239 1086 250 1103 b 446 1015 321 1103 333 1015 b 617 1103 561 1015 572 1103 b 654 1060 640 1103 654 1086 b 446 915 654 1003 592 915 m 426 -25 b 92 265 204 -25 92 94 b 103 672 92 444 103 503 b 35 790 103 767 35 751 b 186 851 35 831 121 851 b 288 729 257 851 288 814 b 276 303 288 546 276 485 b 458 93 276 172 325 93 b 642 301 590 93 642 171 b 631 799 642 542 631 729 b 704 849 631 842 651 849 b 774 806 757 849 774 833 b 761 251 774 747 767 401 b 426 -25 754 101 654 -25 "},"Û":{"ha":865,"x_min":0,"x_max":0,"o":"m 301 911 b 226 947 261 911 226 926 b 331 1043 226 972 288 993 b 443 1103 365 1081 375 1103 l 453 1103 b 563 1043 519 1103 529 1081 b 665 947 606 993 665 972 b 590 911 665 926 632 911 b 446 1001 544 911 481 957 b 301 911 411 957 349 911 m 426 -25 b 92 265 204 -25 92 94 b 103 672 92 444 103 503 b 35 790 103 767 35 751 b 186 851 35 831 121 851 b 288 729 257 851 288 814 b 276 303 288 546 276 485 b 458 93 276 172 325 93 b 642 301 590 93 642 171 b 631 799 642 542 631 729 b 704 849 631 842 651 849 b 774 806 757 849 774 833 b 761 251 774 747 767 401 b 426 -25 754 101 654 -25 "},"Ü":{"ha":865,"x_min":0,"x_max":0,"o":"m 310 922 b 214 1010 260 922 214 964 b 310 1096 214 1053 254 1096 b 406 1008 361 1096 406 1056 b 310 922 404 965 361 922 m 581 922 b 488 1010 531 922 488 964 b 581 1096 488 1053 526 1096 b 678 1008 633 1096 679 1056 b 581 922 676 965 633 922 m 426 -25 b 92 265 204 -25 92 94 b 103 672 92 444 103 503 b 35 790 103 767 35 751 b 186 851 35 831 121 851 b 288 729 257 851 288 814 b 276 303 288 546 276 485 b 458 93 276 172 325 93 b 642 301 590 93 642 171 b 631 799 642 542 631 729 b 704 849 631 842 651 849 b 774 806 757 849 774 833 b 761 251 774 747 767 401 b 426 -25 754 101 654 -25 "},"Ù":{"ha":865,"x_min":0,"x_max":0,"o":"m 464 910 b 274 1053 385 910 274 986 b 371 1106 274 1083 315 1106 b 456 1032 425 1106 425 1065 b 542 947 483 986 542 971 b 464 910 542 929 514 910 m 426 -25 b 92 265 204 -25 92 94 b 103 672 92 444 103 503 b 35 790 103 767 35 751 b 186 851 35 831 121 851 b 288 729 257 851 288 814 b 276 303 288 546 276 485 b 458 93 276 172 325 93 b 642 301 590 93 642 171 b 631 799 642 542 631 729 b 704 849 631 842 651 849 b 774 806 757 849 774 833 b 761 251 774 747 767 401 b 426 -25 754 101 654 -25 "},"Ű":{"ha":865,"x_min":0,"x_max":0,"o":"m 321 910 b 243 947 271 910 243 929 b 329 1032 243 971 301 986 b 414 1106 361 1065 361 1106 b 513 1053 469 1106 513 1083 b 321 910 513 986 400 910 m 571 910 b 492 947 521 910 492 929 b 579 1032 492 971 551 986 b 664 1106 610 1065 610 1106 b 761 1053 719 1106 761 1083 b 571 910 761 986 650 910 m 426 -25 b 92 265 204 -25 92 94 b 103 672 92 444 103 503 b 35 790 103 767 35 751 b 186 851 35 831 121 851 b 288 729 257 851 288 814 b 276 303 288 546 276 485 b 458 93 276 172 325 93 b 642 301 590 93 642 171 b 631 799 642 542 631 729 b 704 849 631 842 651 849 b 774 806 757 849 774 833 b 761 251 774 747 767 401 b 426 -25 754 101 654 -25 "},"Ū":{"ha":865,"x_min":0,"x_max":0,"o":"m 278 960 b 240 993 251 960 240 967 l 240 1028 b 278 1060 240 1053 251 1060 l 614 1060 b 653 1028 640 1060 653 1053 l 653 993 b 614 960 653 967 640 960 m 426 -25 b 92 265 204 -25 92 94 b 103 672 92 444 103 503 b 35 790 103 767 35 751 b 186 851 35 831 121 851 b 288 729 257 851 288 814 b 276 303 288 546 276 485 b 458 93 276 172 325 93 b 642 301 590 93 642 171 b 631 799 642 542 631 729 b 704 849 631 842 651 849 b 774 806 757 849 774 833 b 761 251 774 747 767 401 b 426 -25 754 101 654 -25 "},"Ų":{"ha":865,"x_min":0,"x_max":0,"o":"m 474 -254 b 339 -149 393 -254 339 -212 b 432 -24 339 -100 369 -57 b 418 -25 428 -25 424 -25 b 92 265 201 -21 92 97 b 103 672 92 444 103 503 b 35 790 103 767 35 751 b 186 851 35 831 121 851 b 288 729 257 851 288 814 b 276 303 288 546 276 485 b 458 93 276 172 325 93 b 642 301 590 93 642 171 b 631 799 642 542 631 729 b 704 849 631 842 651 849 b 774 806 757 849 774 833 b 761 251 774 736 767 401 b 449 -114 749 -24 449 -6 b 510 -160 449 -147 474 -160 b 583 -147 542 -160 561 -147 b 611 -172 601 -147 611 -154 b 474 -254 611 -206 551 -254 "},"Ů":{"ha":865,"x_min":0,"x_max":0,"o":"m 444 907 b 272 1065 350 907 272 978 b 444 1224 272 1153 350 1224 b 618 1065 543 1224 618 1153 b 444 907 618 978 543 907 m 446 982 b 528 1065 492 982 528 1018 b 446 1149 528 1110 492 1149 b 364 1065 401 1149 364 1110 b 446 982 364 1018 401 982 m 426 -25 b 92 265 204 -25 92 94 b 103 672 92 444 103 503 b 35 790 103 767 35 751 b 186 851 35 831 121 851 b 288 729 257 851 288 814 b 276 303 288 546 276 485 b 458 93 276 172 325 93 b 642 301 590 93 642 171 b 631 799 642 542 631 729 b 704 849 631 842 651 849 b 774 806 757 849 774 833 b 761 251 774 747 767 401 b 426 -25 754 101 654 -25 "},"Ũ":{"ha":865,"x_min":0,"x_max":0,"o":"m 544 901 b 357 1008 456 901 394 1008 b 276 906 313 1008 333 906 b 229 982 247 906 229 939 b 347 1117 229 1046 258 1117 b 533 1011 436 1117 496 1011 b 614 1114 579 1011 558 1114 b 663 1038 642 1114 663 1081 b 544 901 663 975 632 901 m 426 -25 b 92 265 204 -25 92 94 b 103 672 92 444 103 503 b 35 790 103 767 35 751 b 186 851 35 831 121 851 b 288 729 257 851 288 814 b 276 303 288 546 276 485 b 458 93 276 172 325 93 b 642 301 590 93 642 171 b 631 799 642 542 631 729 b 704 849 631 842 651 849 b 774 806 757 849 774 833 b 761 251 774 747 767 401 b 426 -25 754 101 654 -25 "},"V":{"ha":825,"x_min":0,"x_max":0,"o":"m 407 -14 b 289 54 344 -14 303 7 l 113 660 b 7 790 79 772 7 750 b 125 851 7 831 88 851 b 296 696 200 851 263 821 l 426 206 b 444 181 431 192 438 181 b 464 206 453 181 460 192 b 639 803 507 353 608 719 b 721 849 650 836 665 849 b 789 814 763 849 789 838 b 781 785 789 806 786 799 b 664 451 771 761 710 593 b 522 49 617 303 556 136 b 407 -14 506 4 474 -14 "},"W":{"ha":1154,"x_min":0,"x_max":0,"o":"m 356 -14 b 247 57 299 -14 260 6 l 108 660 b 7 790 82 772 7 750 b 131 851 7 831 92 851 b 290 696 183 851 261 836 l 381 240 b 397 214 383 225 389 214 b 414 240 407 214 411 228 l 513 607 b 524 679 519 633 524 654 b 479 761 524 726 499 749 b 457 792 468 771 457 778 b 590 851 457 828 531 851 b 704 738 646 851 690 808 l 806 240 b 822 214 808 225 813 214 b 839 240 831 214 836 226 l 971 803 b 1050 849 979 847 1006 849 b 1118 815 1093 849 1118 838 b 1111 785 1118 806 1115 797 b 1011 431 1101 749 1051 589 b 910 53 971 275 926 104 b 797 -14 893 3 860 -14 b 679 61 738 -14 689 6 l 607 440 b 589 469 604 457 600 469 b 571 440 582 469 575 456 l 474 61 b 356 -14 461 7 414 -14 "},"Ẃ":{"ha":1154,"x_min":0,"x_max":0,"o":"m 567 910 b 488 947 518 910 488 929 b 574 1032 488 971 547 986 b 661 1106 604 1065 606 1106 b 757 1053 717 1106 757 1083 b 567 910 757 986 647 910 m 356 -14 b 247 57 299 -14 260 6 l 108 660 b 7 790 82 772 7 750 b 131 851 7 831 92 851 b 290 696 183 851 261 836 l 381 240 b 397 214 383 225 389 214 b 414 240 407 214 411 228 l 513 607 b 524 679 519 633 524 654 b 479 761 524 726 499 749 b 457 792 468 771 457 778 b 590 851 457 828 531 851 b 704 738 646 851 690 808 l 806 240 b 822 214 808 225 813 214 b 839 240 831 214 836 226 l 971 803 b 1050 849 979 847 1006 849 b 1118 815 1093 849 1118 838 b 1111 785 1118 806 1115 797 b 1011 431 1101 749 1051 589 b 910 53 971 275 926 104 b 797 -14 893 3 860 -14 b 679 61 738 -14 689 6 l 607 440 b 589 469 604 457 600 469 b 571 440 582 469 575 456 l 474 61 b 356 -14 461 7 414 -14 "},"Ŵ":{"ha":1154,"x_min":0,"x_max":0,"o":"m 453 911 b 378 947 413 911 378 926 b 482 1043 378 972 439 993 b 594 1103 517 1081 526 1103 l 604 1103 b 714 1043 671 1103 681 1081 b 817 947 757 993 817 972 b 742 911 817 926 783 911 b 597 1001 696 911 632 957 b 453 911 563 957 500 911 m 356 -14 b 247 57 299 -14 260 6 l 108 660 b 7 790 82 772 7 750 b 131 851 7 831 92 851 b 290 696 183 851 261 836 l 381 240 b 397 214 383 225 389 214 b 414 240 407 214 411 228 l 513 607 b 524 679 519 633 524 654 b 479 761 524 726 499 749 b 457 792 468 771 457 778 b 590 851 457 828 531 851 b 704 738 646 851 690 808 l 806 240 b 822 214 808 225 813 214 b 839 240 831 214 836 226 l 971 803 b 1050 849 979 847 1006 849 b 1118 815 1093 849 1118 838 b 1111 785 1118 806 1115 797 b 1011 431 1101 749 1051 589 b 910 53 971 275 926 104 b 797 -14 893 3 860 -14 b 679 61 738 -14 689 6 l 607 440 b 589 469 604 457 600 469 b 571 440 582 469 575 456 l 474 61 b 356 -14 461 7 414 -14 "},"Ẅ":{"ha":1154,"x_min":0,"x_max":0,"o":"m 461 922 b 365 1010 411 922 365 964 b 461 1096 365 1053 406 1096 b 557 1008 513 1096 557 1056 b 461 922 556 965 513 922 m 732 922 b 639 1010 682 922 639 964 b 732 1096 639 1053 678 1096 b 829 1008 785 1096 831 1056 b 732 922 828 965 785 922 m 356 -14 b 247 57 299 -14 260 6 l 108 660 b 7 790 82 772 7 750 b 131 851 7 831 92 851 b 290 696 183 851 261 836 l 381 240 b 397 214 383 225 389 214 b 414 240 407 214 411 228 l 513 607 b 524 679 519 633 524 654 b 479 761 524 726 499 749 b 457 792 468 771 457 778 b 590 851 457 828 531 851 b 704 738 646 851 690 808 l 806 240 b 822 214 808 225 813 214 b 839 240 831 214 836 226 l 971 803 b 1050 849 979 847 1006 849 b 1118 815 1093 849 1118 838 b 1111 785 1118 806 1115 797 b 1011 431 1101 749 1051 589 b 910 53 971 275 926 104 b 797 -14 893 3 860 -14 b 679 61 738 -14 689 6 l 607 440 b 589 469 604 457 600 469 b 571 440 582 469 575 456 l 474 61 b 356 -14 461 7 414 -14 "},"Ẁ":{"ha":1154,"x_min":0,"x_max":0,"o":"m 615 910 b 425 1053 536 910 425 986 b 522 1106 425 1083 467 1106 b 607 1032 576 1106 576 1065 b 693 947 635 986 693 971 b 615 910 693 929 665 910 m 356 -14 b 247 57 299 -14 260 6 l 108 660 b 7 790 82 772 7 750 b 131 851 7 831 92 851 b 290 696 183 851 261 836 l 381 240 b 397 214 383 225 389 214 b 414 240 407 214 411 228 l 513 607 b 524 679 519 633 524 654 b 479 761 524 726 499 749 b 457 792 468 771 457 778 b 590 851 457 828 531 851 b 704 738 646 851 690 808 l 806 240 b 822 214 808 225 813 214 b 839 240 831 214 836 226 l 971 803 b 1050 849 979 847 1006 849 b 1118 815 1093 849 1118 838 b 1111 785 1118 806 1115 797 b 1011 431 1101 749 1051 589 b 910 53 971 275 926 104 b 797 -14 893 3 860 -14 b 679 61 738 -14 689 6 l 607 440 b 589 469 604 457 600 469 b 571 440 582 469 575 456 l 474 61 b 356 -14 461 7 414 -14 "},"X":{"ha":771,"x_min":0,"x_max":0,"o":"m 626 -17 b 440 150 538 -17 492 43 l 368 297 b 349 318 363 308 358 318 b 328 297 340 318 335 308 l 189 43 b 100 -4 174 14 163 -4 b 28 32 43 -4 28 15 b 53 82 28 49 39 60 l 267 410 b 275 432 271 417 275 422 b 267 454 275 442 271 447 l 136 676 b 31 790 83 765 31 757 b 156 856 31 818 81 856 b 301 754 215 856 261 829 l 399 565 b 417 544 404 554 407 544 b 436 565 425 544 431 554 l 575 803 b 661 849 594 836 606 849 b 731 814 715 849 731 831 b 707 764 731 796 719 783 l 497 451 b 490 429 493 444 490 440 b 497 407 490 419 493 413 l 601 232 b 713 122 644 158 676 122 b 719 124 717 122 717 124 b 750 94 740 124 750 108 b 626 -17 750 65 715 -17 "},"Y":{"ha":793,"x_min":0,"x_max":0,"o":"m 381 -8 b 283 43 307 -8 283 14 b 292 296 283 68 292 213 b 275 368 292 332 285 350 l 113 676 b 7 790 60 772 7 753 b 128 856 7 819 60 856 b 275 754 190 856 235 832 l 397 508 b 417 486 403 497 407 486 b 438 510 425 486 431 497 l 600 803 b 686 849 618 836 631 849 b 757 814 742 849 757 831 b 732 761 757 797 746 783 l 500 400 b 476 318 485 375 476 350 l 476 43 b 381 -8 476 14 453 -8 "},"Ý":{"ha":793,"x_min":0,"x_max":0,"o":"m 375 910 b 296 947 326 910 296 929 b 382 1032 296 971 356 986 b 469 1106 413 1065 414 1106 b 565 1053 525 1106 565 1083 b 375 910 565 986 456 910 m 381 -8 b 283 43 307 -8 283 14 b 292 296 283 68 292 213 b 275 368 292 332 285 350 l 113 676 b 7 790 60 772 7 753 b 128 856 7 819 60 856 b 275 754 190 856 235 832 l 397 508 b 417 486 403 497 407 486 b 438 510 425 486 431 497 l 600 803 b 686 849 618 836 631 849 b 757 814 742 849 757 831 b 732 761 757 797 746 783 l 500 400 b 476 318 485 375 476 350 l 476 43 b 381 -8 476 14 453 -8 "},"Ŷ":{"ha":793,"x_min":0,"x_max":0,"o":"m 261 911 b 186 947 221 911 186 926 b 290 1043 186 972 247 993 b 403 1103 325 1081 335 1103 l 413 1103 b 522 1043 479 1103 489 1081 b 625 947 565 993 625 972 b 550 911 625 926 592 911 b 406 1001 504 911 440 957 b 261 911 371 957 308 911 m 381 -8 b 283 43 307 -8 283 14 b 292 296 283 68 292 213 b 275 368 292 332 285 350 l 113 676 b 7 790 60 772 7 753 b 128 856 7 819 60 856 b 275 754 190 856 235 832 l 397 508 b 417 486 403 497 407 486 b 438 510 425 486 431 497 l 600 803 b 686 849 618 836 631 849 b 757 814 742 849 757 831 b 732 761 757 797 746 783 l 500 400 b 476 318 485 375 476 350 l 476 43 b 381 -8 476 14 453 -8 "},"Ÿ":{"ha":793,"x_min":0,"x_max":0,"o":"m 269 922 b 174 1010 219 922 174 964 b 269 1096 174 1053 214 1096 b 365 1008 321 1096 365 1056 b 269 922 364 965 321 922 m 540 922 b 447 1010 490 922 447 964 b 540 1096 447 1053 486 1096 b 638 1008 593 1096 639 1056 b 540 922 636 965 593 922 m 381 -8 b 283 43 307 -8 283 14 b 292 296 283 68 292 213 b 275 368 292 332 285 350 l 113 676 b 7 790 60 772 7 753 b 128 856 7 819 60 856 b 275 754 190 856 235 832 l 397 508 b 417 486 403 497 407 486 b 438 510 425 486 431 497 l 600 803 b 686 849 618 836 631 849 b 757 814 742 849 757 831 b 732 761 757 797 746 783 l 500 400 b 476 318 485 375 476 350 l 476 43 b 381 -8 476 14 453 -8 "},"Ỳ":{"ha":793,"x_min":0,"x_max":0,"o":"m 424 910 b 233 1053 344 910 233 986 b 331 1106 233 1083 275 1106 b 415 1032 385 1106 385 1065 b 501 947 443 986 501 971 b 424 910 501 929 474 910 m 381 -8 b 283 43 307 -8 283 14 b 292 296 283 68 292 213 b 275 368 292 332 285 350 l 113 676 b 7 790 60 772 7 753 b 128 856 7 819 60 856 b 275 754 190 856 235 832 l 397 508 b 417 486 403 497 407 486 b 438 510 425 486 431 497 l 600 803 b 686 849 618 836 631 849 b 757 814 742 849 757 831 b 732 761 757 797 746 783 l 500 400 b 476 318 485 375 476 350 l 476 43 b 381 -8 476 14 453 -8 "},"Z":{"ha":754,"x_min":0,"x_max":0,"o":"m 626 -6 b 425 0 582 -6 500 0 l 136 0 b 50 71 67 0 50 32 b 465 736 50 225 465 674 b 446 750 465 747 460 750 l 294 750 b 117 633 192 750 167 633 b 71 735 82 633 71 668 b 147 860 71 794 89 860 b 279 842 186 860 218 842 b 528 844 333 842 431 844 b 697 788 611 844 697 833 b 272 136 697 683 272 253 b 338 94 272 106 293 94 l 425 94 b 661 219 589 94 606 219 b 701 115 699 219 701 181 b 626 -6 701 56 683 -6 "},"Ź":{"ha":754,"x_min":0,"x_max":0,"o":"m 371 910 b 292 947 322 910 292 929 b 378 1032 292 971 351 986 b 465 1106 408 1065 410 1106 b 561 1053 521 1106 561 1083 b 371 910 561 986 451 910 m 626 -6 b 425 0 582 -6 500 0 l 136 0 b 50 71 67 0 50 32 b 465 736 50 225 465 674 b 446 750 465 747 460 750 l 294 750 b 117 633 192 750 167 633 b 71 735 82 633 71 668 b 147 860 71 794 89 860 b 279 842 186 860 218 842 b 528 844 333 842 431 844 b 697 788 611 844 697 833 b 272 136 697 683 272 253 b 338 94 272 106 293 94 l 425 94 b 661 219 589 94 606 219 b 701 115 699 219 701 181 b 626 -6 701 56 683 -6 "},"Ž":{"ha":754,"x_min":0,"x_max":0,"o":"m 397 908 b 286 967 329 908 321 931 b 182 1063 243 1018 182 1038 b 257 1100 182 1085 217 1100 b 401 1010 304 1100 368 1053 b 546 1100 439 1053 500 1100 b 621 1063 588 1100 621 1085 b 518 967 621 1038 561 1018 b 407 908 485 931 474 908 m 626 -6 b 425 0 582 -6 500 0 l 136 0 b 50 71 67 0 50 32 b 465 736 50 225 465 674 b 446 750 465 747 460 750 l 294 750 b 117 633 192 750 167 633 b 71 735 82 633 71 668 b 147 860 71 794 89 860 b 279 842 186 860 218 842 b 528 844 333 842 431 844 b 697 788 611 844 697 833 b 272 136 697 683 272 253 b 338 94 272 106 293 94 l 425 94 b 661 219 589 94 606 219 b 701 115 699 219 701 181 b 626 -6 701 56 683 -6 "},"Ż":{"ha":754,"x_min":0,"x_max":0,"o":"m 400 921 b 301 1010 349 921 301 961 b 400 1096 301 1054 344 1096 b 501 1008 454 1096 501 1057 b 400 921 500 963 454 921 m 626 -6 b 425 0 582 -6 500 0 l 136 0 b 50 71 67 0 50 32 b 465 736 50 225 465 674 b 446 750 465 747 460 750 l 294 750 b 117 633 192 750 167 633 b 71 735 82 633 71 668 b 147 860 71 794 89 860 b 279 842 186 860 218 842 b 528 844 333 842 431 844 b 697 788 611 844 697 833 b 272 136 697 683 272 253 b 338 94 272 106 293 94 l 425 94 b 661 219 589 94 606 219 b 701 115 699 219 701 181 b 626 -6 701 56 683 -6 "},"a":{"ha":733,"x_min":0,"x_max":0,"o":"m 281 -11 b 47 314 131 -11 47 119 b 311 642 47 507 165 642 b 492 561 432 642 475 561 b 599 639 510 561 551 639 b 650 576 635 639 650 615 b 631 275 650 535 631 381 b 714 63 631 58 714 107 b 582 -10 714 17 633 -10 b 486 104 481 -10 507 104 b 281 -11 464 104 425 -11 m 338 96 b 457 347 414 96 457 201 b 350 551 457 451 428 551 b 229 317 271 551 229 446 b 338 96 229 188 265 96 "},"á":{"ha":733,"x_min":0,"x_max":0,"o":"m 336 728 b 261 763 282 728 261 746 b 339 833 261 786 300 794 b 425 915 379 874 368 915 b 518 865 479 915 518 894 b 336 728 518 801 413 728 m 281 -11 b 47 314 131 -11 47 119 b 311 642 47 507 165 642 b 492 561 432 642 475 561 b 599 639 510 561 551 639 b 650 576 635 639 650 615 b 631 275 650 535 631 381 b 714 63 631 58 714 107 b 582 -10 714 17 633 -10 b 486 104 481 -10 507 104 b 281 -11 464 104 425 -11 m 338 96 b 457 347 414 96 457 201 b 350 551 457 451 428 551 b 229 317 271 551 229 446 b 338 96 229 188 265 96 "},"ă":{"ha":733,"x_min":0,"x_max":0,"o":"m 368 731 b 168 881 231 731 168 822 b 203 921 168 906 181 921 b 368 831 247 921 257 831 b 531 921 478 831 488 921 b 565 881 553 921 565 906 b 368 731 565 821 506 731 m 281 -11 b 47 314 131 -11 47 119 b 311 642 47 507 165 642 b 492 561 432 642 475 561 b 599 639 510 561 551 639 b 650 576 635 639 650 615 b 631 275 650 535 631 381 b 714 63 631 58 714 107 b 582 -10 714 17 633 -10 b 486 104 481 -10 507 104 b 281 -11 464 104 425 -11 m 338 96 b 457 347 414 96 457 201 b 350 551 457 451 428 551 b 229 317 271 551 229 446 b 338 96 229 188 265 96 "},"â":{"ha":733,"x_min":0,"x_max":0,"o":"m 229 728 b 158 763 190 728 158 743 b 257 856 158 788 215 806 b 364 911 290 890 300 911 l 372 911 b 478 856 438 911 446 890 b 578 763 519 806 578 788 b 506 728 578 743 544 728 b 368 814 461 728 400 772 b 229 728 333 772 275 728 m 281 -11 b 47 314 131 -11 47 119 b 311 642 47 507 165 642 b 492 561 432 642 475 561 b 599 639 510 561 551 639 b 650 576 635 639 650 615 b 631 275 650 535 631 381 b 714 63 631 58 714 107 b 582 -10 714 17 633 -10 b 486 104 481 -10 507 104 b 281 -11 464 104 425 -11 m 338 96 b 457 347 414 96 457 201 b 350 551 457 451 428 551 b 229 317 271 551 229 446 b 338 96 229 188 265 96 "},"ä":{"ha":733,"x_min":0,"x_max":0,"o":"m 236 740 b 146 824 189 740 146 779 b 236 906 146 865 185 906 b 328 822 286 906 328 867 b 236 740 328 781 286 740 m 496 740 b 407 824 449 740 407 779 b 496 906 407 865 444 906 b 589 822 546 906 590 867 b 496 740 588 781 546 740 m 281 -11 b 47 314 131 -11 47 119 b 311 642 47 507 165 642 b 492 561 432 642 475 561 b 599 639 510 561 551 639 b 650 576 635 639 650 615 b 631 275 650 535 631 381 b 714 63 631 58 714 107 b 582 -10 714 17 633 -10 b 486 104 481 -10 507 104 b 281 -11 464 104 425 -11 m 338 96 b 457 347 414 96 457 201 b 350 551 457 451 428 551 b 229 317 271 551 229 446 b 338 96 229 188 265 96 "},"à":{"ha":733,"x_min":0,"x_max":0,"o":"m 400 728 b 217 865 324 728 217 801 b 310 915 217 894 257 915 b 392 844 361 915 363 878 b 474 764 418 800 474 786 b 400 728 474 746 447 728 m 281 -11 b 47 314 131 -11 47 119 b 311 642 47 507 165 642 b 492 561 432 642 475 561 b 599 639 510 561 551 639 b 650 576 635 639 650 615 b 631 275 650 535 631 381 b 714 63 631 58 714 107 b 582 -10 714 17 633 -10 b 486 104 481 -10 507 104 b 281 -11 464 104 425 -11 m 338 96 b 457 347 414 96 457 201 b 350 551 457 451 428 551 b 229 317 271 551 229 446 b 338 96 229 188 265 96 "},"ā":{"ha":733,"x_min":0,"x_max":0,"o":"m 206 776 b 169 808 181 776 169 783 l 169 839 b 206 871 169 864 181 871 l 528 871 b 564 839 553 871 564 864 l 564 808 b 528 776 564 783 553 776 m 281 -11 b 47 314 131 -11 47 119 b 311 642 47 507 165 642 b 492 561 432 642 475 561 b 599 639 510 561 551 639 b 650 576 635 639 650 615 b 631 275 650 535 631 381 b 714 63 631 58 714 107 b 582 -10 714 17 633 -10 b 486 104 481 -10 507 104 b 281 -11 464 104 425 -11 m 338 96 b 457 347 414 96 457 201 b 350 551 457 451 428 551 b 229 317 271 551 229 446 b 338 96 229 188 265 96 "},"ą":{"ha":733,"x_min":0,"x_max":0,"o":"m 569 -254 b 433 -147 493 -254 433 -212 b 547 -1 433 -86 492 -33 b 486 104 489 17 503 104 b 281 -11 464 104 425 -11 b 47 314 131 -11 47 119 b 311 642 47 507 165 642 b 492 561 432 642 475 561 b 599 639 510 561 551 639 b 650 576 635 639 650 615 b 631 275 650 535 631 381 b 714 63 631 58 714 107 b 661 4 714 38 692 22 b 544 -112 622 -19 544 -61 b 604 -160 544 -143 567 -160 b 678 -147 636 -160 657 -147 b 707 -172 696 -147 707 -154 b 569 -254 707 -206 646 -254 m 338 96 b 457 347 414 96 457 201 b 350 551 457 451 428 551 b 229 317 271 551 229 446 b 338 96 229 188 265 96 "},"å":{"ha":733,"x_min":0,"x_max":0,"o":"m 367 713 b 201 864 275 713 201 781 b 367 1017 201 947 275 1017 b 532 864 460 1017 532 947 b 367 713 532 781 460 713 m 368 785 b 446 864 410 785 446 819 b 368 943 446 908 410 943 b 289 864 324 943 289 908 b 368 785 289 819 324 785 m 281 -11 b 47 314 131 -11 47 119 b 311 642 47 507 165 642 b 492 561 432 642 475 561 b 599 639 510 561 551 639 b 650 576 635 639 650 615 b 631 275 650 535 631 381 b 714 63 631 58 714 107 b 582 -10 714 17 633 -10 b 486 104 481 -10 507 104 b 281 -11 464 104 425 -11 m 338 96 b 457 347 414 96 457 201 b 350 551 457 451 428 551 b 229 317 271 551 229 446 b 338 96 229 188 265 96 "},"ã":{"ha":733,"x_min":0,"x_max":0,"o":"m 463 719 b 283 822 376 719 319 822 b 206 722 240 822 260 722 b 160 797 179 722 160 754 b 274 926 160 858 189 926 b 451 824 358 926 417 824 b 529 924 494 824 475 924 b 575 850 557 924 575 892 b 463 719 575 790 546 719 m 281 -11 b 47 314 131 -11 47 119 b 311 642 47 507 165 642 b 492 561 432 642 475 561 b 599 639 510 561 551 639 b 650 576 635 639 650 615 b 631 275 650 535 631 381 b 714 63 631 58 714 107 b 582 -10 714 17 633 -10 b 486 104 481 -10 507 104 b 281 -11 464 104 425 -11 m 338 96 b 457 347 414 96 457 201 b 350 551 457 451 428 551 b 229 317 271 551 229 446 b 338 96 229 188 265 96 "},"æ":{"ha":1003,"x_min":0,"x_max":0,"o":"m 685 -17 b 449 117 492 -17 469 117 b 219 -12 431 117 376 -12 b 36 146 101 -12 36 57 b 322 357 36 279 199 326 b 407 425 379 375 407 385 l 407 449 b 322 547 407 506 376 547 b 125 414 215 547 176 414 b 60 531 90 414 60 493 b 333 643 60 574 197 643 b 517 563 465 643 489 563 b 728 640 544 563 583 640 b 964 454 885 640 964 558 b 593 254 964 329 844 254 b 575 243 581 254 575 250 b 726 101 575 153 638 101 b 919 168 839 101 885 168 b 947 140 938 168 947 158 b 685 -17 947 82 851 -17 m 594 328 b 786 451 735 328 786 374 b 701 558 786 518 761 558 b 574 363 626 558 574 489 b 594 328 574 335 581 328 m 286 106 b 408 251 349 106 408 146 l 408 260 b 385 286 408 271 406 286 b 203 176 304 286 203 250 b 286 106 203 128 239 106 "},"b":{"ha":724,"x_min":0,"x_max":0,"o":"m 351 -11 b 82 213 224 -11 82 74 l 83 706 b 17 849 83 836 17 807 b 161 910 17 889 103 910 b 256 782 226 910 256 869 b 250 574 256 708 250 617 b 258 550 250 554 253 550 b 440 642 282 550 310 642 b 676 321 575 642 676 518 b 351 -11 676 122 556 -11 m 367 75 b 493 304 453 75 493 165 b 383 535 493 446 453 535 b 258 275 310 535 258 450 b 367 75 258 135 293 75 "},"":{"ha":724,"x_min":0,"x_max":0,"o":"m 351 -11 b 676 321 556 -11 676 122 b 440 642 676 518 575 642 b 258 550 310 642 282 550 b 250 574 253 550 250 554 b 256 782 250 617 256 708 b 161 910 256 869 226 910 b 17 849 103 910 17 889 b 83 706 17 807 83 836 l 82 213 b 351 -11 82 74 224 -11 m 367 75 b 258 275 293 75 258 135 b 383 535 258 450 310 535 b 493 304 453 535 493 446 b 367 75 493 165 453 75 "},"c":{"ha":632,"x_min":0,"x_max":0,"o":"m 353 -19 b 47 313 188 -19 47 99 b 357 642 47 526 192 642 b 603 504 521 642 603 546 b 528 381 603 458 564 381 b 357 557 464 381 450 557 b 231 329 278 557 231 450 b 390 103 231 200 288 103 b 569 188 489 103 526 188 b 597 160 588 188 597 178 b 353 -19 597 92 499 -19 "},"ć":{"ha":632,"x_min":0,"x_max":0,"o":"m 318 728 b 243 763 264 728 243 746 b 321 833 243 786 282 794 b 407 915 361 874 350 915 b 500 865 461 915 500 894 b 318 728 500 801 394 728 m 353 -19 b 47 313 188 -19 47 99 b 357 642 47 526 192 642 b 603 504 521 642 603 546 b 528 381 603 458 564 381 b 357 557 464 381 450 557 b 231 329 278 557 231 450 b 390 103 231 200 288 103 b 569 188 489 103 526 188 b 597 160 588 188 597 178 b 353 -19 597 92 499 -19 "},"č":{"ha":632,"x_min":0,"x_max":0,"o":"m 344 728 b 239 783 281 728 272 747 b 140 875 197 832 140 851 b 211 911 140 896 172 911 b 350 824 257 911 318 865 b 488 911 385 865 443 911 b 560 875 526 911 560 896 b 460 783 560 851 501 832 b 353 728 428 747 418 728 m 353 -19 b 47 313 188 -19 47 99 b 357 642 47 526 192 642 b 603 504 521 642 603 546 b 528 381 603 458 564 381 b 357 557 464 381 450 557 b 231 329 278 557 231 450 b 390 103 231 200 288 103 b 569 188 489 103 526 188 b 597 160 588 188 597 178 b 353 -19 597 92 499 -19 "},"ç":{"ha":632,"x_min":0,"x_max":0,"o":"m 569 188 b 597 160 588 188 597 178 b 388 -17 597 97 514 -1 b 469 -168 432 -67 469 -115 b 333 -254 469 -231 394 -254 b 224 -137 274 -254 224 -218 b 256 -94 224 -103 238 -94 b 339 -129 276 -94 313 -129 b 367 -103 356 -129 367 -121 b 314 -17 367 -81 340 -49 b 47 313 165 0 47 115 b 357 642 47 526 192 642 b 603 504 521 642 603 546 b 528 381 603 458 564 381 b 357 557 464 381 450 557 b 231 329 278 557 231 450 b 390 103 231 200 288 103 b 569 188 489 103 526 188 "},"ĉ":{"ha":632,"x_min":0,"x_max":0,"o":"m 211 728 b 140 763 172 728 140 743 b 239 856 140 788 197 806 b 346 911 272 890 282 911 l 354 911 b 460 856 419 911 428 890 b 560 763 501 806 560 788 b 488 728 560 743 526 728 b 350 814 443 728 382 772 b 211 728 315 772 257 728 m 353 -19 b 47 313 188 -19 47 99 b 357 642 47 526 192 642 b 603 504 521 642 603 546 b 528 381 603 458 564 381 b 357 557 464 381 450 557 b 231 329 278 557 231 450 b 390 103 231 200 288 103 b 569 188 489 103 526 188 b 597 160 588 188 597 178 b 353 -19 597 92 499 -19 "},"ċ":{"ha":632,"x_min":0,"x_max":0,"o":"m 349 731 b 254 815 299 731 254 769 b 349 897 254 858 294 897 b 444 814 400 897 444 861 b 349 731 443 771 400 731 m 353 -19 b 47 313 188 -19 47 99 b 357 642 47 526 192 642 b 603 504 521 642 603 546 b 528 381 603 458 564 381 b 357 557 464 381 450 557 b 231 329 278 557 231 450 b 390 103 231 200 288 103 b 569 188 489 103 526 188 b 597 160 588 188 597 178 b 353 -19 597 92 499 -19 "},"d":{"ha":739,"x_min":0,"x_max":0,"o":"m 285 -11 b 47 314 131 -11 47 119 b 304 642 47 507 165 642 b 460 575 414 642 444 575 b 468 604 465 575 468 592 l 468 731 b 404 849 468 828 404 810 b 550 910 404 889 492 910 b 644 786 615 910 644 869 b 635 272 644 668 635 444 b 718 63 635 58 718 107 b 586 -10 718 17 638 -10 b 490 104 485 -10 513 104 b 285 -11 468 104 429 -11 m 340 96 b 461 328 415 96 461 190 b 347 547 461 453 421 547 b 229 318 275 547 229 456 b 340 96 229 179 267 96 "},"ð":{"ha":735,"x_min":0,"x_max":0,"o":"m 482 792 b 676 333 622 665 676 499 b 358 -15 676 113 544 -15 b 47 301 171 -15 47 107 b 313 618 47 488 154 618 b 443 575 401 618 428 575 b 451 585 450 575 451 579 b 356 721 451 606 414 663 b 221 672 299 693 246 672 b 167 706 183 672 167 689 b 272 793 167 732 226 763 b 222 826 257 806 240 817 b 169 878 186 847 169 858 b 222 910 169 894 186 910 b 381 865 264 910 333 896 b 496 914 425 893 467 914 b 568 868 543 914 568 889 b 482 792 568 853 532 824 m 358 76 b 485 301 436 76 485 156 b 358 522 485 435 439 522 b 235 301 278 522 235 447 b 358 76 235 156 281 76 "},"ď":{"ha":921,"x_min":0,"x_max":0,"o":"m 285 -11 b 47 314 131 -11 47 119 b 304 642 47 507 165 642 b 460 575 414 642 444 575 b 468 604 465 575 468 592 l 468 731 b 404 849 468 828 404 810 b 550 910 404 889 492 910 b 644 786 615 910 644 869 b 635 272 644 668 635 444 b 718 63 635 58 718 107 b 586 -10 718 17 638 -10 b 490 104 485 -10 513 104 b 285 -11 468 104 429 -11 m 736 643 b 707 668 719 643 707 654 b 758 764 707 694 758 713 b 736 836 758 789 736 804 b 814 901 736 878 772 901 b 893 818 858 901 893 869 b 736 643 893 719 801 643 m 340 96 b 461 328 415 96 461 190 b 347 547 461 453 421 547 b 229 318 275 547 229 456 b 340 96 229 179 267 96 "},"đ":{"ha":740,"x_min":0,"x_max":0,"o":"m 713 792 b 749 761 738 792 749 786 l 749 729 b 713 699 749 706 738 699 l 643 699 b 635 272 640 560 635 397 b 718 63 635 58 718 107 b 586 -10 718 17 638 -10 b 490 104 485 -10 513 104 b 285 -11 468 104 429 -11 b 47 314 131 -11 47 119 b 304 642 47 507 165 642 b 460 575 414 642 444 575 b 468 604 465 575 468 592 b 469 699 468 614 469 646 l 350 699 b 314 729 325 699 314 706 l 314 761 b 350 792 314 786 325 792 l 468 792 b 442 863 461 836 442 838 b 560 910 442 889 492 910 b 644 843 615 910 644 896 l 644 792 m 340 96 b 461 328 415 96 461 190 b 347 547 461 453 421 547 b 229 318 275 547 229 456 b 340 96 229 179 267 96 "},"e":{"ha":658,"x_min":0,"x_max":0,"o":"m 340 -17 b 47 304 167 -17 47 107 b 371 642 47 508 178 642 b 621 454 540 642 621 558 b 249 254 621 329 501 254 b 232 242 238 254 232 250 b 383 101 232 150 299 101 b 576 168 496 101 542 168 b 604 140 594 168 604 158 b 340 -17 604 86 514 -17 m 251 328 b 442 451 392 328 442 374 b 357 558 442 518 418 558 b 229 363 283 558 229 489 b 251 328 229 335 238 328 "},"é":{"ha":658,"x_min":0,"x_max":0,"o":"m 328 728 b 253 763 274 728 253 746 b 331 833 253 786 292 794 b 417 915 371 874 360 915 b 510 865 471 915 510 894 b 328 728 510 801 404 728 m 340 -17 b 47 304 167 -17 47 107 b 371 642 47 508 178 642 b 621 454 540 642 621 558 b 249 254 621 329 501 254 b 232 242 238 254 232 250 b 383 101 232 150 299 101 b 576 168 496 101 542 168 b 604 140 594 168 604 158 b 340 -17 604 86 514 -17 m 251 328 b 442 451 392 328 442 374 b 357 558 442 518 418 558 b 229 363 283 558 229 489 b 251 328 229 335 238 328 "},"ĕ":{"ha":658,"x_min":0,"x_max":0,"o":"m 360 731 b 160 881 222 731 160 822 b 194 921 160 906 172 921 b 360 831 239 921 249 831 b 522 921 469 831 479 921 b 557 881 544 921 557 906 b 360 731 557 821 497 731 m 340 -17 b 47 304 167 -17 47 107 b 371 642 47 508 178 642 b 621 454 540 642 621 558 b 249 254 621 329 501 254 b 232 242 238 254 232 250 b 383 101 232 150 299 101 b 576 168 496 101 542 168 b 604 140 594 168 604 158 b 340 -17 604 86 514 -17 m 251 328 b 442 451 392 328 442 374 b 357 558 442 518 418 558 b 229 363 283 558 229 489 b 251 328 229 335 238 328 "},"ě":{"ha":658,"x_min":0,"x_max":0,"o":"m 354 728 b 249 783 290 728 282 747 b 150 875 207 832 150 851 b 221 911 150 896 182 911 b 360 824 267 911 328 865 b 497 911 394 865 453 911 b 569 875 536 911 569 896 b 469 783 569 851 511 832 b 363 728 438 747 428 728 m 340 -17 b 47 304 167 -17 47 107 b 371 642 47 508 178 642 b 621 454 540 642 621 558 b 249 254 621 329 501 254 b 232 242 238 254 232 250 b 383 101 232 150 299 101 b 576 168 496 101 542 168 b 604 140 594 168 604 158 b 340 -17 604 86 514 -17 m 251 328 b 442 451 392 328 442 374 b 357 558 442 518 418 558 b 229 363 283 558 229 489 b 251 328 229 335 238 328 "},"ê":{"ha":658,"x_min":0,"x_max":0,"o":"m 221 728 b 150 763 182 728 150 743 b 249 856 150 788 207 806 b 356 911 282 890 292 911 l 364 911 b 469 856 429 911 438 890 b 569 763 511 806 569 788 b 497 728 569 743 536 728 b 360 814 453 728 392 772 b 221 728 325 772 267 728 m 340 -17 b 47 304 167 -17 47 107 b 371 642 47 508 178 642 b 621 454 540 642 621 558 b 249 254 621 329 501 254 b 232 242 238 254 232 250 b 383 101 232 150 299 101 b 576 168 496 101 542 168 b 604 140 594 168 604 158 b 340 -17 604 86 514 -17 m 251 328 b 442 451 392 328 442 374 b 357 558 442 518 418 558 b 229 363 283 558 229 489 b 251 328 229 335 238 328 "},"ë":{"ha":658,"x_min":0,"x_max":0,"o":"m 228 740 b 138 824 181 740 138 779 b 228 906 138 865 176 906 b 319 822 278 906 319 867 b 228 740 319 781 278 740 m 488 740 b 399 824 440 740 399 779 b 488 906 399 865 436 906 b 581 822 538 906 582 867 b 488 740 579 781 538 740 m 340 -17 b 47 304 167 -17 47 107 b 371 642 47 508 178 642 b 621 454 540 642 621 558 b 249 254 621 329 501 254 b 232 242 238 254 232 250 b 383 101 232 150 299 101 b 576 168 496 101 542 168 b 604 140 594 168 604 158 b 340 -17 604 86 514 -17 m 251 328 b 442 451 392 328 442 374 b 357 558 442 518 418 558 b 229 363 283 558 229 489 b 251 328 229 335 238 328 "},"ė":{"ha":658,"x_min":0,"x_max":0,"o":"m 358 731 b 264 815 308 731 264 769 b 358 897 264 858 304 897 b 454 814 410 897 454 861 b 358 731 453 771 410 731 m 340 -17 b 47 304 167 -17 47 107 b 371 642 47 508 178 642 b 621 454 540 642 621 558 b 249 254 621 329 501 254 b 232 242 238 254 232 250 b 383 101 232 150 299 101 b 576 168 496 101 542 168 b 604 140 594 168 604 158 b 340 -17 604 86 514 -17 m 251 328 b 442 451 392 328 442 374 b 357 558 442 518 418 558 b 229 363 283 558 229 489 b 251 328 229 335 238 328 "},"è":{"ha":658,"x_min":0,"x_max":0,"o":"m 392 728 b 208 865 315 728 208 801 b 301 915 208 894 249 915 b 383 844 353 915 354 878 b 465 764 410 800 465 786 b 392 728 465 746 439 728 m 340 -17 b 47 304 167 -17 47 107 b 371 642 47 508 178 642 b 621 454 540 642 621 558 b 249 254 621 329 501 254 b 232 242 238 254 232 250 b 383 101 232 150 299 101 b 576 168 496 101 542 168 b 604 140 594 168 604 158 b 340 -17 604 86 514 -17 m 251 328 b 442 451 392 328 442 374 b 357 558 442 518 418 558 b 229 363 283 558 229 489 b 251 328 229 335 238 328 "},"ē":{"ha":658,"x_min":0,"x_max":0,"o":"m 197 776 b 161 808 172 776 161 783 l 161 839 b 197 871 161 864 172 871 l 519 871 b 556 839 544 871 556 864 l 556 808 b 519 776 556 783 544 776 m 340 -17 b 47 304 167 -17 47 107 b 371 642 47 508 178 642 b 621 454 540 642 621 558 b 249 254 621 329 501 254 b 232 242 238 254 232 250 b 383 101 232 150 299 101 b 576 168 496 101 542 168 b 604 140 594 168 604 158 b 340 -17 604 86 514 -17 m 251 328 b 442 451 392 328 442 374 b 357 558 442 518 418 558 b 229 363 283 558 229 489 b 251 328 229 335 238 328 "},"ę":{"ha":658,"x_min":0,"x_max":0,"o":"m 432 -240 b 297 -129 356 -240 297 -199 b 368 -15 297 -90 326 -50 b 340 -17 360 -17 351 -17 b 47 304 167 -17 47 107 b 371 642 47 508 178 642 b 621 454 540 642 621 558 b 249 254 621 329 501 254 b 232 242 238 254 232 250 b 383 101 232 150 299 101 b 576 168 496 101 542 168 b 604 140 594 168 604 158 b 528 33 604 110 586 79 b 407 -101 472 -14 407 -58 b 468 -146 407 -133 429 -146 b 542 -133 500 -146 519 -133 b 569 -158 560 -133 569 -140 b 432 -240 569 -192 510 -240 m 251 328 b 442 451 392 328 442 374 b 357 558 442 518 418 558 b 229 363 283 558 229 489 b 251 328 229 335 238 328 "},"ə":{"ha":653,"x_min":0,"x_max":0,"o":"m 294 -17 b 44 171 125 -17 44 67 b 415 371 44 296 163 371 b 432 383 428 371 432 375 b 282 524 432 475 365 524 b 89 457 169 524 124 457 b 61 485 71 457 61 465 b 324 642 61 539 150 642 b 618 321 497 642 618 518 b 294 -17 618 117 486 -17 m 307 67 b 435 263 382 67 435 136 b 414 297 435 290 428 297 b 222 174 274 297 222 251 b 307 67 222 107 247 67 "},"f":{"ha":499,"x_min":0,"x_max":0,"o":"m 194 -135 b 101 -78 104 -135 101 -99 b 108 503 101 81 108 310 b 79 526 108 518 103 526 b 19 564 40 526 19 529 b 71 608 19 593 43 596 b 121 708 110 625 115 660 b 367 921 140 811 183 921 b 553 843 475 921 553 874 b 485 722 553 803 521 722 b 440 756 469 722 456 735 b 347 835 425 775 385 835 b 285 708 310 835 285 804 l 285 646 b 308 622 285 631 293 622 l 440 624 b 469 583 463 624 469 610 b 428 526 469 547 451 526 l 308 526 b 285 503 293 526 285 518 l 283 188 b 289 -79 283 39 289 -42 b 194 -135 289 -112 267 -135 "},"g":{"ha":725,"x_min":0,"x_max":0,"o":"m 342 -256 b 92 -139 207 -256 92 -189 b 154 -25 92 -89 121 -25 b 356 -167 207 -25 247 -167 b 476 -8 461 -167 472 -106 b 478 74 478 13 478 65 b 471 89 478 86 476 89 b 292 11 454 89 421 11 b 47 317 163 11 47 118 b 314 642 47 507 160 642 b 493 561 433 642 476 561 b 600 639 511 561 551 639 b 651 576 636 639 651 615 b 638 278 651 536 638 429 l 638 25 b 342 -256 638 -121 571 -256 m 342 107 b 464 335 415 107 464 199 b 350 551 464 438 432 551 b 231 325 269 551 231 449 b 342 107 231 200 265 107 "},"ğ":{"ha":725,"x_min":0,"x_max":0,"o":"m 361 731 b 161 881 224 731 161 822 b 196 921 161 906 174 921 b 361 831 240 921 250 831 b 524 921 471 831 481 921 b 558 881 546 921 558 906 b 361 731 558 821 499 731 m 342 -256 b 92 -139 207 -256 92 -189 b 154 -25 92 -89 121 -25 b 356 -167 207 -25 247 -167 b 476 -8 461 -167 472 -106 b 478 74 478 13 478 65 b 471 89 478 86 476 89 b 292 11 454 89 421 11 b 47 317 163 11 47 118 b 314 642 47 507 160 642 b 493 561 433 642 476 561 b 600 639 511 561 551 639 b 651 576 636 639 651 615 b 638 278 651 536 638 429 l 638 25 b 342 -256 638 -121 571 -256 m 342 107 b 464 335 415 107 464 199 b 350 551 464 438 432 551 b 231 325 269 551 231 449 b 342 107 231 200 265 107 "},"ĝ":{"ha":725,"x_min":0,"x_max":0,"o":"m 222 728 b 151 763 183 728 151 743 b 250 856 151 788 208 806 b 357 911 283 890 293 911 l 365 911 b 471 856 431 911 439 890 b 571 763 513 806 571 788 b 499 728 571 743 538 728 b 361 814 454 728 393 772 b 222 728 326 772 268 728 m 342 -256 b 92 -139 207 -256 92 -189 b 154 -25 92 -89 121 -25 b 356 -167 207 -25 247 -167 b 476 -8 461 -167 472 -106 b 478 74 478 13 478 65 b 471 89 478 86 476 89 b 292 11 454 89 421 11 b 47 317 163 11 47 118 b 314 642 47 507 160 642 b 493 561 433 642 476 561 b 600 639 511 561 551 639 b 651 576 636 639 651 615 b 638 278 651 536 638 429 l 638 25 b 342 -256 638 -121 571 -256 m 342 107 b 464 335 415 107 464 199 b 350 551 464 438 432 551 b 231 325 269 551 231 449 b 342 107 231 200 265 107 "},"ģ":{"ha":725,"x_min":0,"x_max":0,"o":"m 356 724 b 278 807 313 724 278 756 b 435 982 278 906 369 982 b 463 957 450 982 463 971 b 413 861 463 931 413 913 b 435 789 413 836 435 821 b 356 724 435 747 397 724 m 342 -256 b 92 -139 207 -256 92 -189 b 154 -25 92 -89 121 -25 b 356 -167 207 -25 247 -167 b 476 -8 461 -167 472 -106 b 478 74 478 13 478 65 b 471 89 478 86 476 89 b 292 11 454 89 421 11 b 47 317 163 11 47 118 b 314 642 47 507 160 642 b 493 561 433 642 476 561 b 600 639 511 561 551 639 b 651 576 636 639 651 615 b 638 278 651 536 638 429 l 638 25 b 342 -256 638 -121 571 -256 m 342 107 b 464 335 415 107 464 199 b 350 551 464 438 432 551 b 231 325 269 551 231 449 b 342 107 231 200 265 107 "},"ġ":{"ha":725,"x_min":0,"x_max":0,"o":"m 360 731 b 265 815 310 731 265 769 b 360 897 265 858 306 897 b 456 814 411 897 456 861 b 360 731 454 771 411 731 m 342 -256 b 92 -139 207 -256 92 -189 b 154 -25 92 -89 121 -25 b 356 -167 207 -25 247 -167 b 476 -8 461 -167 472 -106 b 478 74 478 13 478 65 b 471 89 478 86 476 89 b 292 11 454 89 421 11 b 47 317 163 11 47 118 b 314 642 47 507 160 642 b 493 561 433 642 476 561 b 600 639 511 561 551 639 b 651 576 636 639 651 615 b 638 278 651 536 638 429 l 638 25 b 342 -256 638 -121 571 -256 m 342 107 b 464 335 415 107 464 199 b 350 551 464 438 432 551 b 231 325 269 551 231 449 b 342 107 231 200 265 107 "},"h":{"ha":746,"x_min":0,"x_max":0,"o":"m 171 -7 b 82 44 107 -7 82 14 b 96 424 82 56 96 150 l 96 706 b 29 849 96 836 29 807 b 174 910 29 889 115 910 b 268 782 239 910 268 869 b 264 563 268 710 264 604 b 272 539 264 543 267 539 b 469 642 296 539 329 642 b 656 426 607 642 656 531 b 639 197 656 358 639 257 b 724 64 639 68 724 106 b 601 -12 724 22 665 -12 b 467 158 521 -12 467 39 b 479 421 467 242 479 356 b 407 532 479 489 457 532 b 268 196 335 532 268 446 l 268 49 b 171 -7 268 14 251 -7 "},"ħ":{"ha":746,"x_min":0,"x_max":0,"o":"m 639 197 b 724 64 639 68 724 106 b 601 -12 724 22 665 -12 b 467 158 521 -12 467 39 b 479 421 467 242 479 356 b 407 532 479 489 457 532 b 268 196 335 532 268 446 l 268 49 b 171 -7 268 14 251 -7 b 82 44 107 -7 82 14 b 96 424 82 56 96 150 l 96 699 l 21 699 b -15 729 -4 699 -15 706 l -15 761 b 21 792 -15 786 -4 792 l 94 792 b 68 863 88 836 68 838 b 183 910 68 889 128 910 b 267 843 239 910 267 896 l 267 792 l 383 792 b 419 761 408 792 419 786 l 419 729 b 383 699 419 706 408 699 l 265 699 b 264 563 265 639 264 586 b 272 540 264 544 267 540 b 469 642 296 540 329 642 b 656 426 607 642 656 531 b 639 197 656 358 639 257 "},"ĥ":{"ha":746,"x_min":0,"x_max":0,"o":"m 33 897 b -42 933 -7 897 -42 913 b 63 1031 -42 960 19 979 b 175 1089 97 1068 107 1089 l 185 1089 b 294 1031 251 1089 261 1068 b 397 933 338 979 397 960 b 322 897 397 913 364 897 b 178 988 276 897 213 944 b 33 897 143 944 81 897 m 171 -7 b 82 44 107 -7 82 14 b 96 424 82 56 96 150 l 96 653 b 29 794 96 783 29 754 b 174 856 29 835 115 856 b 268 729 239 856 268 815 b 264 563 268 657 264 604 b 272 540 264 544 267 540 b 469 642 296 540 329 642 b 656 426 607 642 656 531 b 639 197 656 358 639 257 b 724 64 639 68 724 106 b 601 -12 724 22 665 -12 b 467 158 521 -12 467 39 b 479 421 467 242 479 356 b 407 532 479 489 457 532 b 268 196 335 532 268 446 l 268 49 b 171 -7 268 14 251 -7 "},"i":{"ha":367,"x_min":0,"x_max":0,"o":"m 175 722 b 69 815 115 722 69 765 b 175 907 69 865 115 907 b 279 814 231 907 279 865 b 175 722 279 764 232 722 m 217 -12 b 83 158 138 -12 83 38 b 93 390 83 228 93 318 b 29 564 93 560 29 524 b 174 632 29 608 113 632 b 271 501 249 632 271 586 b 258 190 271 424 258 253 b 344 63 258 68 344 108 b 217 -12 344 22 286 -12 "},"ı":{"ha":367,"x_min":0,"x_max":0,"o":"m 217 -12 b 83 158 138 -12 83 38 b 93 390 83 228 93 318 b 29 564 93 560 29 524 b 174 632 29 608 113 632 b 271 501 249 632 271 586 b 258 190 271 424 258 253 b 344 63 258 68 344 108 b 217 -12 344 22 286 -12 "},"í":{"ha":367,"x_min":0,"x_max":0,"o":"m 143 728 b 68 763 96 728 68 746 b 129 847 68 786 107 796 b 193 915 150 879 140 915 b 285 865 246 915 285 894 b 143 728 285 801 218 728 m 217 -12 b 83 158 138 -12 83 38 b 93 390 83 228 93 318 b 29 564 93 560 29 524 b 174 632 29 608 113 632 b 271 501 249 632 271 586 b 258 190 271 424 258 253 b 344 63 258 68 344 108 b 217 -12 344 22 286 -12 "},"ĭ":{"ha":367,"x_min":0,"x_max":0,"o":"m 178 731 b -22 881 40 731 -22 822 b 13 921 -22 906 -10 921 b 178 831 57 921 67 831 b 340 921 288 831 297 921 b 375 881 363 921 375 906 b 178 731 375 821 315 731 m 217 -12 b 83 158 138 -12 83 38 b 93 390 83 228 93 318 b 29 564 93 560 29 524 b 174 632 29 608 113 632 b 271 501 249 632 271 586 b 258 190 271 424 258 253 b 344 63 258 68 344 108 b 217 -12 344 22 286 -12 "},"î":{"ha":367,"x_min":0,"x_max":0,"o":"m 72 728 b 18 763 42 728 18 743 b 86 856 18 788 56 804 b 175 911 111 890 118 911 l 181 911 b 268 856 236 911 244 890 b 338 763 300 804 338 788 b 282 728 338 743 313 728 b 178 783 246 728 201 754 b 72 728 153 754 108 728 m 217 -12 b 83 158 138 -12 83 38 b 93 390 83 228 93 318 b 29 564 93 560 29 524 b 174 632 29 608 113 632 b 271 501 249 632 271 586 b 258 190 271 424 258 253 b 344 63 258 68 344 108 b 217 -12 344 22 286 -12 "},"ï":{"ha":367,"x_min":0,"x_max":0,"o":"m 65 740 b -21 824 21 740 -21 779 b 65 906 -21 865 15 906 b 153 822 111 906 153 867 b 65 740 151 781 111 740 m 288 740 b 203 824 243 740 203 779 b 288 906 203 865 238 906 b 375 822 335 906 376 867 b 288 740 375 781 335 740 m 217 -12 b 83 158 138 -12 83 38 b 93 390 83 228 93 318 b 29 564 93 560 29 524 b 174 632 29 608 113 632 b 271 501 249 632 271 586 b 258 190 271 424 258 253 b 344 63 258 68 344 108 b 217 -12 344 22 286 -12 "},"ì":{"ha":367,"x_min":0,"x_max":0,"o":"m 210 728 b 68 865 135 728 68 801 b 160 915 68 894 107 915 b 225 847 213 915 203 879 b 285 763 246 796 285 786 b 210 728 285 746 257 728 m 217 -12 b 83 158 138 -12 83 38 b 93 390 83 228 93 318 b 29 564 93 560 29 524 b 174 632 29 608 113 632 b 271 501 249 632 271 586 b 258 190 271 424 258 253 b 344 63 258 68 344 108 b 217 -12 344 22 286 -12 "},"ī":{"ha":367,"x_min":0,"x_max":0,"o":"m 15 776 b -21 808 -10 776 -21 783 l -21 839 b 15 871 -21 864 -10 871 l 338 871 b 374 839 363 871 374 864 l 374 808 b 338 776 374 783 363 776 m 217 -12 b 83 158 138 -12 83 38 b 93 390 83 228 93 318 b 29 564 93 560 29 524 b 174 632 29 608 113 632 b 271 501 249 632 271 586 b 258 190 271 424 258 253 b 344 63 258 68 344 108 b 217 -12 344 22 286 -12 "},"į":{"ha":367,"x_min":0,"x_max":0,"o":"m 175 722 b 69 815 115 722 69 765 b 175 907 69 865 115 907 b 279 814 231 907 279 865 b 175 722 279 764 232 722 m 203 -254 b 69 -143 128 -254 69 -212 b 168 -4 69 -89 114 -36 b 83 158 115 14 83 65 b 93 390 83 228 93 318 b 29 564 93 560 29 524 b 174 632 29 608 113 632 b 271 501 249 632 271 586 b 258 190 271 424 258 253 b 344 63 258 68 344 108 b 179 -115 344 -8 179 -31 b 239 -160 179 -147 201 -160 b 307 -147 268 -160 285 -147 b 335 -172 325 -147 335 -154 b 203 -254 335 -208 276 -254 "},"ĩ":{"ha":367,"x_min":0,"x_max":0,"o":"m 272 719 b 93 822 186 719 129 822 b 15 722 50 822 69 722 b -31 797 -11 722 -31 754 b 83 926 -31 858 -1 926 b 261 824 168 926 226 824 b 339 924 304 824 285 924 b 385 850 367 924 385 892 b 272 719 385 790 356 719 m 217 -12 b 83 158 138 -12 83 38 b 93 390 83 228 93 318 b 29 564 93 560 29 524 b 174 632 29 608 113 632 b 271 501 249 632 271 586 b 258 190 271 424 258 253 b 344 63 258 68 344 108 b 217 -12 344 22 286 -12 "},"j":{"ha":356,"x_min":0,"x_max":0,"o":"m 175 722 b 69 815 115 722 69 765 b 175 907 69 865 115 907 b 279 814 231 907 279 865 b 175 722 279 764 232 722 m 100 -210 b 18 -162 58 -210 18 -194 b 93 -11 18 -125 93 -126 l 93 397 b 29 564 93 556 29 524 b 172 632 29 608 113 632 b 269 501 247 632 269 586 l 269 -11 b 100 -210 269 -185 160 -210 "},"ȷ":{"ha":356,"x_min":0,"x_max":0,"o":"m 100 -210 b 18 -162 58 -210 18 -194 b 93 -11 18 -125 93 -126 l 93 397 b 29 564 93 556 29 524 b 172 632 29 608 113 632 b 269 501 247 632 269 586 l 269 -11 b 100 -210 269 -185 160 -210 "},"ĵ":{"ha":356,"x_min":0,"x_max":0,"o":"m 74 728 b 19 763 43 728 19 743 b 88 856 19 788 57 804 b 176 911 113 890 119 911 l 182 911 b 269 856 238 911 246 890 b 339 763 301 804 339 788 b 283 728 339 743 314 728 b 179 783 247 728 203 754 b 74 728 154 754 110 728 m 100 -210 b 18 -162 58 -210 18 -194 b 93 -11 18 -125 93 -126 l 93 397 b 29 564 93 556 29 524 b 172 632 29 608 113 632 b 269 501 247 632 269 586 l 269 -11 b 100 -210 269 -185 160 -210 "},"k":{"ha":704,"x_min":0,"x_max":0,"o":"m 558 -15 b 381 150 483 -15 449 24 l 294 290 b 272 307 288 303 286 307 b 261 292 265 307 261 303 b 268 49 261 164 268 104 b 171 -7 268 14 251 -7 b 82 44 107 -7 82 14 b 96 424 82 56 96 150 l 96 706 b 29 849 96 836 29 807 b 174 910 29 889 115 910 b 268 782 239 910 268 869 b 261 442 268 713 261 528 l 261 406 b 271 390 261 394 263 390 b 293 406 282 390 286 396 b 551 639 392 563 475 639 b 642 588 608 639 642 614 b 574 450 642 547 613 450 b 485 492 536 450 515 492 b 410 422 457 492 410 439 b 517 249 410 399 435 368 b 601 139 557 189 581 154 b 663 122 621 122 636 122 b 689 99 679 122 689 113 b 558 -15 689 40 632 -15 "},"ķ":{"ha":704,"x_min":0,"x_max":0,"o":"m 558 -15 b 381 150 483 -15 449 24 l 294 290 b 272 307 288 303 286 307 b 261 292 265 307 261 303 b 268 49 261 164 268 104 b 171 -7 268 14 251 -7 b 82 44 107 -7 82 14 b 96 424 82 56 96 150 l 96 706 b 29 849 96 836 29 807 b 174 910 29 889 115 910 b 268 782 239 910 268 869 b 261 442 268 713 261 528 l 261 406 b 271 390 261 394 263 390 b 293 406 282 390 286 396 b 551 639 392 563 475 639 b 642 588 608 639 642 614 b 574 450 642 547 613 450 b 485 492 536 450 515 492 b 410 422 457 492 410 439 b 517 249 410 399 435 368 b 601 139 557 189 581 154 b 663 122 621 122 636 122 b 689 99 679 122 689 113 b 558 -15 689 40 632 -15 m 292 -322 b 263 -297 275 -322 263 -312 b 314 -201 263 -271 314 -253 b 290 -129 314 -176 290 -161 b 369 -64 290 -87 328 -64 b 449 -147 414 -64 449 -96 b 292 -322 449 -246 356 -322 "},"l":{"ha":361,"x_min":0,"x_max":0,"o":"m 215 -12 b 81 158 135 -12 81 38 b 92 721 81 297 92 601 b 29 849 92 835 29 807 b 174 910 29 889 115 910 b 268 786 239 910 268 871 b 256 190 268 683 256 263 b 340 63 256 68 340 108 b 215 -12 340 22 281 -12 "},"ĺ":{"ha":361,"x_min":0,"x_max":0,"o":"m 150 968 b 71 1006 101 968 71 988 b 157 1090 71 1029 131 1044 b 244 1164 188 1124 189 1164 b 340 1111 300 1164 340 1142 b 150 968 340 1044 231 968 m 215 -12 b 81 158 135 -12 81 38 b 92 721 81 297 92 601 b 29 849 92 835 29 807 b 174 910 29 889 115 910 b 268 786 239 910 268 871 b 256 190 268 683 256 263 b 340 63 256 68 340 108 b 215 -12 340 22 281 -12 "},"ľ":{"ha":547,"x_min":0,"x_max":0,"o":"m 215 -12 b 81 158 135 -12 81 38 b 92 721 81 297 92 601 b 29 849 92 835 29 807 b 174 910 29 889 115 910 b 268 786 239 910 268 871 b 256 190 268 683 256 263 b 340 63 256 68 340 108 b 215 -12 340 22 281 -12 m 361 640 b 333 665 346 640 333 651 b 385 761 333 692 385 710 b 361 833 385 786 361 801 b 440 899 361 875 399 899 b 519 815 483 899 519 867 b 361 640 519 717 426 640 "},"ļ":{"ha":361,"x_min":0,"x_max":0,"o":"m 215 -12 b 81 158 135 -12 81 38 b 92 721 81 297 92 601 b 29 849 92 835 29 807 b 174 910 29 889 115 910 b 268 786 239 910 268 871 b 256 190 268 683 256 263 b 340 63 256 68 340 108 b 215 -12 340 22 281 -12 m 131 -322 b 101 -297 114 -322 101 -312 b 153 -201 101 -271 153 -253 b 129 -129 153 -176 129 -161 b 208 -64 129 -87 167 -64 b 288 -147 253 -64 288 -96 b 131 -322 288 -246 194 -322 "},"ŀ":{"ha":554,"x_min":0,"x_max":0,"o":"m 215 -12 b 81 158 135 -12 81 38 b 92 721 81 297 92 601 b 29 849 92 835 29 807 b 174 910 29 889 115 910 b 268 786 239 910 268 871 b 256 190 268 683 256 263 b 340 63 256 68 340 108 b 215 -12 340 22 281 -12 m 449 357 b 344 451 386 357 344 396 b 449 542 344 506 386 542 b 554 450 510 542 554 504 b 449 357 554 394 510 357 "},"ł":{"ha":408,"x_min":0,"x_max":0,"o":"m 406 636 b 443 611 435 636 443 625 b 404 561 443 594 432 581 l 310 496 b 303 190 306 363 303 228 b 388 63 303 68 388 108 b 263 -12 388 22 328 -12 b 128 158 182 -12 128 38 b 132 374 128 213 129 290 b 76 353 114 361 100 353 b 39 378 47 353 39 364 b 78 425 39 394 50 407 l 133 464 b 139 721 136 567 139 664 b 76 849 139 835 76 807 b 221 910 76 889 163 910 b 315 786 286 910 315 871 b 311 588 315 750 314 674 l 336 604 b 406 636 364 624 376 636 "},"m":{"ha":1094,"x_min":0,"x_max":0,"o":"m 171 -7 b 82 44 107 -7 82 14 b 99 378 82 74 99 231 b 15 564 99 557 15 522 b 158 635 15 610 108 635 b 256 524 263 635 233 524 b 457 642 278 524 318 642 b 615 519 588 642 594 519 b 818 642 635 519 679 642 b 1003 426 954 642 1003 531 b 986 197 1003 358 986 257 b 1071 64 986 68 1071 106 b 949 -12 1071 22 1014 -12 b 814 158 869 -12 814 39 b 828 421 814 242 828 356 b 760 532 828 489 806 532 b 632 231 697 532 632 438 b 633 49 632 139 633 83 b 536 -7 633 14 617 -7 b 454 44 474 -7 454 14 b 463 408 454 74 467 231 b 394 532 461 475 450 532 b 268 196 333 532 268 446 l 268 49 b 171 -7 268 14 250 -7 "},"n":{"ha":744,"x_min":0,"x_max":0,"o":"m 171 -7 b 82 44 107 -7 82 14 b 99 378 82 74 99 231 b 15 564 99 557 15 522 b 158 635 15 610 108 635 b 256 524 263 635 233 524 b 467 642 278 524 319 642 b 653 426 604 642 653 531 b 636 197 653 358 636 257 b 721 64 636 68 721 106 b 599 -12 721 22 664 -12 b 464 158 518 -12 464 39 b 478 421 464 242 478 356 b 406 532 478 489 456 532 b 268 196 333 532 268 446 l 268 49 b 171 -7 268 14 250 -7 "},"ń":{"ha":744,"x_min":0,"x_max":0,"o":"m 324 728 b 249 763 269 728 249 746 b 326 833 249 786 288 794 b 413 915 367 874 356 915 b 506 865 467 915 506 894 b 324 728 506 801 400 728 m 171 -7 b 82 44 107 -7 82 14 b 99 378 82 74 99 231 b 15 564 99 557 15 522 b 158 635 15 610 108 635 b 256 524 263 635 233 524 b 467 642 278 524 319 642 b 653 426 604 642 653 531 b 636 197 653 358 636 257 b 721 64 636 68 721 106 b 599 -12 721 22 664 -12 b 464 158 518 -12 464 39 b 478 421 464 242 478 356 b 406 532 478 489 456 532 b 268 196 333 532 268 446 l 268 49 b 171 -7 268 14 250 -7 "},"ň":{"ha":744,"x_min":0,"x_max":0,"o":"m 350 728 b 244 783 286 728 278 747 b 146 875 203 832 146 851 b 217 911 146 896 178 911 b 356 824 263 911 324 865 b 493 911 390 865 449 911 b 565 875 532 911 565 896 b 465 783 565 851 507 832 b 358 728 433 747 424 728 m 171 -7 b 82 44 107 -7 82 14 b 99 378 82 74 99 231 b 15 564 99 557 15 522 b 158 635 15 610 108 635 b 256 524 263 635 233 524 b 467 642 278 524 319 642 b 653 426 604 642 653 531 b 636 197 653 358 636 257 b 721 64 636 68 721 106 b 599 -12 721 22 664 -12 b 464 158 518 -12 464 39 b 478 421 464 242 478 356 b 406 532 478 489 456 532 b 268 196 333 532 268 446 l 268 49 b 171 -7 268 14 250 -7 "},"ņ":{"ha":744,"x_min":0,"x_max":0,"o":"m 171 -7 b 82 44 107 -7 82 14 b 99 378 82 74 99 231 b 15 564 99 557 15 522 b 158 635 15 610 108 635 b 256 524 263 635 233 524 b 467 642 278 524 319 642 b 653 426 604 642 653 531 b 636 197 653 358 636 257 b 721 64 636 68 721 106 b 599 -12 721 22 664 -12 b 464 158 518 -12 464 39 b 478 421 464 242 478 356 b 406 532 478 489 456 532 b 268 196 333 532 268 446 l 268 49 b 171 -7 268 14 250 -7 m 310 -322 b 281 -297 293 -322 281 -312 b 332 -201 281 -271 332 -253 b 308 -129 332 -176 308 -161 b 388 -64 308 -87 346 -64 b 467 -147 432 -64 467 -96 b 310 -322 467 -246 374 -322 "},"ŋ":{"ha":728,"x_min":0,"x_max":0,"o":"m 483 -210 b 403 -162 442 -210 403 -194 b 476 -11 403 -125 476 -126 l 476 421 b 406 532 476 489 456 532 b 268 196 333 532 268 447 l 268 49 b 171 -7 268 14 250 -7 b 82 44 107 -7 82 14 b 99 378 82 74 99 231 b 15 564 99 557 15 522 b 158 635 15 610 108 635 b 256 524 263 635 233 524 b 467 642 278 524 319 642 b 653 426 604 642 653 531 l 653 -11 b 483 -210 653 -185 543 -210 "},"ñ":{"ha":744,"x_min":0,"x_max":0,"o":"m 450 719 b 271 822 364 719 307 822 b 193 722 228 822 247 722 b 147 797 167 722 147 754 b 261 926 147 858 176 926 b 439 824 346 926 404 824 b 517 924 482 824 463 924 b 563 850 544 924 563 892 b 450 719 563 790 533 719 m 171 -7 b 82 44 107 -7 82 14 b 99 378 82 74 99 231 b 15 564 99 557 15 522 b 158 635 15 610 108 635 b 256 524 263 635 233 524 b 467 642 278 524 319 642 b 653 426 604 642 653 531 b 636 197 653 358 636 257 b 721 64 636 68 721 106 b 599 -12 721 22 664 -12 b 464 158 518 -12 464 39 b 478 421 464 242 478 356 b 406 532 478 489 456 532 b 268 196 333 532 268 446 l 268 49 b 171 -7 268 14 250 -7 "},"o":{"ha":719,"x_min":0,"x_max":0,"o":"m 360 -17 b 47 311 169 -17 47 108 b 360 640 47 514 169 640 b 672 313 550 640 672 515 b 360 -17 672 110 550 -17 m 360 68 b 485 313 442 68 485 146 b 360 556 485 481 442 556 b 235 313 278 556 235 481 b 360 68 235 146 278 68 "},"ó":{"ha":719,"x_min":0,"x_max":0,"o":"m 328 728 b 253 763 274 728 253 746 b 331 833 253 786 292 794 b 417 915 371 874 360 915 b 510 865 471 915 510 894 b 328 728 510 801 404 728 m 360 -17 b 47 311 169 -17 47 108 b 360 640 47 514 169 640 b 672 313 550 640 672 515 b 360 -17 672 110 550 -17 m 360 68 b 485 313 442 68 485 146 b 360 556 485 481 442 556 b 235 313 278 556 235 481 b 360 68 235 146 278 68 "},"ŏ":{"ha":719,"x_min":0,"x_max":0,"o":"m 360 731 b 160 881 222 731 160 822 b 194 921 160 906 172 921 b 360 831 239 921 249 831 b 522 921 469 831 479 921 b 557 881 544 921 557 906 b 360 731 557 821 497 731 m 360 -17 b 47 311 169 -17 47 108 b 360 640 47 514 169 640 b 672 313 550 640 672 515 b 360 -17 672 110 550 -17 m 360 68 b 485 313 442 68 485 146 b 360 556 485 481 442 556 b 235 313 278 556 235 481 b 360 68 235 146 278 68 "},"ô":{"ha":719,"x_min":0,"x_max":0,"o":"m 221 728 b 150 763 182 728 150 743 b 249 856 150 788 207 806 b 356 911 282 890 292 911 l 364 911 b 469 856 429 911 438 890 b 569 763 511 806 569 788 b 497 728 569 743 536 728 b 360 814 453 728 392 772 b 221 728 325 772 267 728 m 360 -17 b 47 311 169 -17 47 108 b 360 640 47 514 169 640 b 672 313 550 640 672 515 b 360 -17 672 110 550 -17 m 360 68 b 485 313 442 68 485 146 b 360 556 485 481 442 556 b 235 313 278 556 235 481 b 360 68 235 146 278 68 "},"ö":{"ha":719,"x_min":0,"x_max":0,"o":"m 228 740 b 138 824 181 740 138 779 b 228 906 138 865 176 906 b 319 822 278 906 319 867 b 228 740 319 781 278 740 m 488 740 b 399 824 440 740 399 779 b 488 906 399 865 436 906 b 581 822 538 906 582 867 b 488 740 579 781 538 740 m 360 -17 b 47 311 169 -17 47 108 b 360 640 47 514 169 640 b 672 313 550 640 672 515 b 360 -17 672 110 550 -17 m 360 68 b 485 313 442 68 485 146 b 360 556 485 481 442 556 b 235 313 278 556 235 481 b 360 68 235 146 278 68 "},"ò":{"ha":719,"x_min":0,"x_max":0,"o":"m 392 728 b 208 865 315 728 208 801 b 301 915 208 894 249 915 b 383 844 353 915 354 878 b 465 764 410 800 465 786 b 392 728 465 746 439 728 m 360 -17 b 47 311 169 -17 47 108 b 360 640 47 514 169 640 b 672 313 550 640 672 515 b 360 -17 672 110 550 -17 m 360 68 b 485 313 442 68 485 146 b 360 556 485 481 442 556 b 235 313 278 556 235 481 b 360 68 235 146 278 68 "},"ő":{"ha":719,"x_min":0,"x_max":0,"o":"m 221 725 b 147 761 174 725 147 743 b 229 842 147 783 203 797 b 310 913 258 875 260 913 b 404 863 364 913 404 892 b 221 725 404 799 296 725 m 460 725 b 385 761 411 725 385 743 b 468 842 385 783 442 797 b 549 913 496 875 497 913 b 642 863 601 913 642 892 b 460 725 642 799 535 725 m 360 -17 b 47 311 169 -17 47 108 b 360 640 47 514 169 640 b 672 313 550 640 672 515 b 360 -17 672 110 550 -17 m 360 68 b 485 313 442 68 485 146 b 360 556 485 481 442 556 b 235 313 278 556 235 481 b 360 68 235 146 278 68 "},"ō":{"ha":719,"x_min":0,"x_max":0,"o":"m 197 776 b 161 808 172 776 161 783 l 161 839 b 197 871 161 864 172 871 l 519 871 b 556 839 544 871 556 864 l 556 808 b 519 776 556 783 544 776 m 360 -17 b 47 311 169 -17 47 108 b 360 640 47 514 169 640 b 672 313 550 640 672 515 b 360 -17 672 110 550 -17 m 360 68 b 485 313 442 68 485 146 b 360 556 485 481 442 556 b 235 313 278 556 235 481 b 360 68 235 146 278 68 "},"ø":{"ha":719,"x_min":0,"x_max":0,"o":"m 603 535 b 672 313 647 479 672 404 b 360 -17 672 110 550 -17 b 174 36 286 -17 224 1 l 131 -12 b 72 -47 107 -40 100 -47 b 35 -22 44 -47 35 -36 b 64 29 35 -8 44 6 l 117 89 b 47 311 72 144 47 221 b 360 640 47 514 169 640 b 547 586 433 640 497 621 l 589 635 b 647 669 610 658 618 669 b 683 644 675 669 683 658 b 654 593 683 629 674 617 m 235 313 b 239 231 235 282 236 256 l 458 485 b 360 556 438 533 404 556 b 235 313 278 556 235 481 m 485 313 b 481 393 485 342 483 368 l 261 139 b 360 68 282 92 315 68 b 485 313 442 68 485 146 "},"õ":{"ha":719,"x_min":0,"x_max":0,"o":"m 454 719 b 275 822 368 719 311 822 b 197 722 232 822 251 722 b 151 797 171 722 151 754 b 265 926 151 858 181 926 b 443 824 350 926 408 824 b 521 924 486 824 467 924 b 567 850 549 924 567 892 b 454 719 567 790 538 719 m 360 -17 b 47 311 169 -17 47 108 b 360 640 47 514 169 640 b 672 313 550 640 672 515 b 360 -17 672 110 550 -17 m 360 68 b 485 313 442 68 485 146 b 360 556 485 481 442 556 b 235 313 278 556 235 481 b 360 68 235 146 278 68 "},"œ":{"ha":1097,"x_min":0,"x_max":0,"o":"m 360 -17 b 47 311 169 -17 47 108 b 360 640 47 514 169 640 b 579 535 524 640 561 535 b 808 642 597 535 644 642 b 1058 454 978 642 1058 558 b 688 254 1058 329 940 254 b 671 242 675 254 671 250 b 821 101 671 150 738 101 b 1014 168 935 101 981 168 b 1042 140 1032 168 1042 158 b 779 -17 1042 86 953 -17 b 576 88 632 -17 593 88 b 360 -17 558 88 513 -17 m 690 328 b 881 451 831 328 881 374 b 796 558 881 518 857 558 b 668 363 721 558 668 489 b 690 328 668 335 675 328 m 360 68 b 485 313 442 68 485 146 b 360 556 485 481 442 556 b 235 313 278 556 235 481 b 360 68 235 146 278 68 "},"p":{"ha":733,"x_min":0,"x_max":0,"o":"m 164 -249 b 76 -194 101 -249 76 -226 b 99 365 76 -160 99 97 b 15 564 99 567 15 521 b 149 638 15 610 97 638 b 244 526 251 638 222 526 b 449 642 265 526 306 642 b 688 311 593 642 688 519 b 429 -11 688 106 572 -11 b 260 67 310 -11 275 67 b 253 44 254 67 253 63 b 260 -193 253 -10 260 -160 b 164 -249 260 -226 243 -249 m 388 83 b 503 304 458 83 503 174 b 392 535 503 447 463 535 b 267 306 318 535 267 442 b 388 83 267 178 313 83 "},"þ":{"ha":736,"x_min":0,"x_max":0,"o":"m 167 -249 b 79 -194 104 -249 79 -226 b 100 481 79 -160 100 38 l 100 678 b 29 849 100 836 29 807 b 174 910 29 889 115 910 b 268 782 239 910 268 869 b 263 574 268 708 263 608 b 271 550 263 554 265 550 b 453 642 294 550 322 642 b 689 310 596 642 689 518 b 432 -11 689 104 574 -11 b 263 67 313 -11 278 67 b 256 44 257 67 256 63 b 263 -193 256 -10 263 -160 b 167 -249 263 -226 246 -249 m 390 83 b 506 304 461 83 506 172 b 396 535 506 446 465 535 b 269 304 321 535 269 442 b 390 83 269 176 315 83 "},"q":{"ha":728,"x_min":0,"x_max":0,"o":"m 557 -249 b 461 -193 479 -249 461 -226 b 481 50 461 -156 481 -39 b 472 67 481 63 478 67 b 301 -11 456 67 421 -11 b 47 314 158 -11 47 97 b 311 642 47 507 165 642 b 497 561 436 642 479 561 b 603 639 514 561 554 639 b 653 576 639 639 653 615 b 640 317 653 536 640 429 l 640 106 b 646 -194 640 -62 646 -165 b 557 -249 646 -226 619 -249 m 343 83 b 467 324 418 83 467 175 b 353 551 467 444 433 551 b 229 317 271 551 229 453 b 343 83 229 175 267 83 "},"r":{"ha":558,"x_min":0,"x_max":0,"o":"m 179 -7 b 85 44 110 -7 85 14 b 99 353 85 61 99 258 b 15 564 99 564 15 522 b 158 635 15 610 108 635 b 257 494 269 635 235 494 b 431 635 279 494 310 635 b 517 576 490 635 517 610 b 464 438 517 519 500 438 b 369 483 426 438 406 483 b 268 232 332 483 268 439 b 272 50 268 153 272 67 b 179 -7 272 29 271 -7 "},"ŕ":{"ha":558,"x_min":0,"x_max":0,"o":"m 253 731 b 178 765 199 731 178 749 b 256 836 178 789 217 797 b 342 918 296 876 285 918 b 435 868 396 918 435 897 b 253 731 435 804 329 731 m 179 -7 b 85 44 110 -7 85 14 b 99 353 85 61 99 258 b 15 564 99 564 15 522 b 158 635 15 610 108 635 b 257 494 269 635 235 494 b 431 635 279 494 310 635 b 517 576 490 635 517 610 b 464 438 517 519 500 438 b 369 483 426 438 406 483 b 268 232 332 483 268 439 b 272 50 268 153 272 67 b 179 -7 272 29 271 -7 "},"ř":{"ha":558,"x_min":0,"x_max":0,"o":"m 279 731 b 174 786 215 731 207 750 b 75 878 132 835 75 854 b 146 914 75 899 107 914 b 285 826 192 914 253 868 b 422 914 319 868 378 914 b 494 878 461 914 494 899 b 394 786 494 854 436 835 b 288 731 363 750 353 731 m 179 -7 b 85 44 110 -7 85 14 b 99 353 85 61 99 258 b 15 564 99 564 15 522 b 158 635 15 610 108 635 b 257 494 269 635 235 494 b 431 635 279 494 310 635 b 517 576 490 635 517 610 b 464 438 517 519 500 438 b 369 483 426 438 406 483 b 268 232 332 483 268 439 b 272 50 268 153 272 67 b 179 -7 272 29 271 -7 "},"ŗ":{"ha":558,"x_min":0,"x_max":0,"o":"m 179 -7 b 85 44 110 -7 85 14 b 99 353 85 61 99 258 b 15 564 99 564 15 522 b 158 635 15 610 108 635 b 257 494 269 635 235 494 b 431 635 279 494 310 635 b 517 576 490 635 517 610 b 464 438 517 519 500 438 b 369 483 426 438 406 483 b 268 232 332 483 268 439 b 272 50 268 153 272 67 b 179 -7 272 29 271 -7 m 94 -322 b 65 -297 78 -322 65 -312 b 117 -201 65 -271 117 -253 b 93 -129 117 -176 93 -161 b 172 -64 93 -87 131 -64 b 251 -147 217 -64 251 -96 b 94 -322 251 -246 158 -322 "},"s":{"ha":622,"x_min":0,"x_max":0,"o":"m 306 -15 b 44 97 156 -15 44 56 b 110 214 44 133 75 214 b 322 69 164 214 189 69 b 403 135 368 69 403 93 b 254 254 403 178 374 207 b 57 458 135 300 57 361 b 308 640 57 554 138 640 b 557 550 444 640 557 592 b 492 428 557 508 524 428 b 306 557 443 428 429 557 b 221 497 256 557 221 538 b 374 383 221 458 247 433 b 571 172 496 336 571 275 b 306 -15 571 68 489 -15 "},"":{"ha":622,"x_min":0,"x_max":0,"o":"m 306 -15 b 571 172 489 -15 571 68 b 374 383 571 275 496 336 b 221 497 247 433 221 458 b 306 557 221 538 256 557 b 492 428 429 557 443 428 b 557 550 524 428 557 508 b 308 640 557 592 444 640 b 57 458 138 640 57 554 b 254 254 57 361 135 300 b 403 135 374 207 403 178 b 322 69 403 93 368 69 b 110 214 189 69 164 214 b 44 97 75 214 44 133 b 306 -15 44 56 156 -15 "},"ś":{"ha":622,"x_min":0,"x_max":0,"o":"m 282 728 b 207 763 228 728 207 746 b 285 833 207 786 246 794 b 371 915 325 874 314 915 b 464 865 425 915 464 894 b 282 728 464 801 358 728 m 306 -15 b 44 97 156 -15 44 56 b 110 214 44 133 75 214 b 322 69 164 214 189 69 b 403 135 368 69 403 93 b 254 254 403 178 374 207 b 57 458 135 300 57 361 b 308 640 57 554 138 640 b 557 550 444 640 557 592 b 492 428 557 508 524 428 b 306 557 443 428 429 557 b 221 497 256 557 221 538 b 374 383 221 458 247 433 b 571 172 496 336 571 275 b 306 -15 571 68 489 -15 "},"š":{"ha":622,"x_min":0,"x_max":0,"o":"m 308 728 b 203 783 244 728 236 747 b 104 875 161 832 104 851 b 175 911 104 896 136 911 b 314 824 221 911 282 865 b 451 911 349 865 407 911 b 524 875 490 911 524 896 b 424 783 524 851 465 832 b 317 728 392 747 382 728 m 306 -15 b 44 97 156 -15 44 56 b 110 214 44 133 75 214 b 322 69 164 214 189 69 b 403 135 368 69 403 93 b 254 254 403 178 374 207 b 57 458 135 300 57 361 b 308 640 57 554 138 640 b 557 550 444 640 557 592 b 492 428 557 508 524 428 b 306 557 443 428 429 557 b 221 497 256 557 221 538 b 374 383 221 458 247 433 b 571 172 496 336 571 275 b 306 -15 571 68 489 -15 "},"ş":{"ha":622,"x_min":0,"x_max":0,"o":"m 571 172 b 350 -14 571 76 503 -1 b 436 -168 397 -64 436 -114 b 300 -254 436 -231 361 -254 b 190 -137 240 -254 190 -218 b 222 -94 190 -103 204 -94 b 306 -129 243 -94 279 -129 b 333 -103 322 -129 333 -121 b 278 -14 333 -81 306 -46 b 44 97 142 -7 44 58 b 110 214 44 133 75 214 b 322 69 164 214 189 69 b 403 135 368 69 403 93 b 254 254 403 178 374 207 b 57 458 135 300 57 361 b 308 640 57 554 138 640 b 557 550 444 640 557 592 b 492 428 557 508 524 428 b 306 557 443 428 429 557 b 221 497 256 557 221 538 b 374 383 221 458 247 433 b 571 172 496 336 571 275 "},"ŝ":{"ha":622,"x_min":0,"x_max":0,"o":"m 175 728 b 104 763 136 728 104 743 b 203 856 104 788 161 806 b 310 911 236 890 246 911 l 318 911 b 424 856 383 911 392 890 b 524 763 465 806 524 788 b 451 728 524 743 490 728 b 314 814 407 728 346 772 b 175 728 279 772 221 728 m 306 -15 b 44 97 156 -15 44 56 b 110 214 44 133 75 214 b 322 69 164 214 189 69 b 403 135 368 69 403 93 b 254 254 403 178 374 207 b 57 458 135 300 57 361 b 308 640 57 554 138 640 b 557 550 444 640 557 592 b 492 428 557 508 524 428 b 306 557 443 428 429 557 b 221 497 256 557 221 538 b 374 383 221 458 247 433 b 571 172 496 336 571 275 b 306 -15 571 68 489 -15 "},"ș":{"ha":622,"x_min":0,"x_max":0,"o":"m 306 -15 b 44 97 156 -15 44 56 b 110 214 44 133 75 214 b 322 69 164 214 189 69 b 403 135 368 69 403 93 b 254 254 403 178 374 207 b 57 458 135 300 57 361 b 308 640 57 554 138 640 b 557 550 444 640 557 592 b 492 428 557 508 524 428 b 306 557 443 428 429 557 b 221 497 256 557 221 538 b 374 383 221 458 247 433 b 571 172 496 336 571 275 b 306 -15 571 68 489 -15 m 240 -322 b 211 -297 224 -322 211 -312 b 263 -201 211 -271 263 -253 b 239 -129 263 -176 239 -161 b 318 -64 239 -87 276 -64 b 397 -147 363 -64 397 -96 b 240 -322 397 -246 304 -322 "},"ß":{"ha":782,"x_min":0,"x_max":0,"o":"m 207 -135 b 111 -79 129 -135 111 -112 b 115 503 111 15 115 329 b 93 526 115 518 108 526 b 25 561 36 526 25 538 b 69 607 25 585 38 593 b 121 682 104 625 115 639 b 397 921 144 822 210 921 b 650 731 593 921 650 807 b 531 490 650 588 531 563 b 767 169 531 414 767 332 b 544 -15 767 58 675 -15 b 369 71 431 -15 369 38 b 414 128 369 92 388 128 b 526 74 443 128 463 74 b 599 140 579 74 599 106 b 404 439 599 242 404 294 b 488 704 404 538 488 581 b 394 835 488 781 467 835 b 293 633 324 835 293 792 l 290 207 b 296 -82 290 49 296 -44 b 207 -135 296 -112 269 -135 "},"t":{"ha":501,"x_min":0,"x_max":0,"o":"m 285 -15 b 108 189 154 -15 108 75 l 108 503 b 79 526 108 518 103 526 b 19 565 40 526 19 529 b 78 613 19 592 35 593 b 181 714 129 638 154 669 b 247 782 200 761 214 782 l 260 782 b 285 758 276 782 285 774 l 285 646 b 308 622 285 631 293 622 b 440 624 353 622 404 624 b 469 583 463 624 469 610 b 428 526 469 547 451 526 l 308 526 b 285 503 293 526 285 518 l 285 193 b 353 108 285 135 311 108 b 443 135 399 108 421 135 b 469 107 461 135 469 125 b 285 -15 469 75 417 -15 "},"ŧ":{"ha":501,"x_min":0,"x_max":0,"o":"m 443 135 b 469 107 461 135 469 125 b 285 -15 469 75 417 -15 b 108 189 154 -15 108 75 l 108 278 l 67 278 b 31 308 42 278 31 283 l 31 340 b 67 371 31 364 42 371 l 108 371 l 108 503 b 79 526 108 518 103 526 b 19 565 40 526 19 529 b 78 613 19 592 35 593 b 181 714 129 638 154 669 b 247 782 200 761 214 782 l 260 782 b 285 758 276 782 285 774 l 285 646 b 308 622 285 631 293 622 b 440 624 353 622 404 624 b 469 583 463 624 469 610 b 428 526 469 547 451 526 l 308 526 b 285 503 293 526 285 518 l 285 371 l 408 371 b 444 340 433 371 444 364 l 444 308 b 408 278 444 283 433 278 l 285 278 l 285 193 b 353 108 285 135 311 108 b 443 135 399 108 421 135 "},"ť":{"ha":575,"x_min":0,"x_max":0,"o":"m 382 682 b 353 706 365 682 353 692 b 404 801 353 733 404 750 b 381 874 404 826 381 842 b 460 939 381 917 418 939 b 539 857 504 939 539 908 b 382 682 539 757 446 682 m 285 -15 b 108 189 154 -15 108 75 l 108 503 b 79 526 108 518 103 526 b 19 565 40 526 19 529 b 78 613 19 592 35 593 b 181 714 129 638 154 669 b 247 782 200 761 214 782 l 260 782 b 285 758 276 782 285 774 l 285 646 b 308 622 285 631 293 622 b 440 624 353 622 404 624 b 469 583 463 624 469 610 b 428 526 469 547 451 526 l 308 526 b 285 503 293 526 285 518 l 285 193 b 353 108 285 135 311 108 b 443 135 399 108 421 135 b 469 107 461 135 469 125 b 285 -15 469 75 417 -15 "},"ţ":{"ha":501,"x_min":0,"x_max":0,"o":"m 443 135 b 469 107 461 135 469 125 b 301 -15 469 76 421 -7 b 386 -168 347 -65 386 -115 b 250 -254 386 -231 311 -254 b 140 -137 190 -254 140 -218 b 172 -94 140 -103 154 -94 b 256 -129 193 -94 229 -129 b 283 -103 272 -129 283 -121 b 221 -7 283 -78 251 -40 b 108 189 139 19 108 96 l 108 503 b 79 526 108 518 103 526 b 19 565 40 526 19 529 b 78 613 19 592 35 593 b 181 714 129 638 154 669 b 247 782 200 761 214 782 l 260 782 b 285 758 276 782 285 774 l 285 646 b 308 622 285 631 293 622 b 440 624 353 622 404 624 b 469 583 463 624 469 610 b 428 526 469 547 451 526 l 308 526 b 285 503 293 526 285 518 l 285 193 b 353 108 285 135 311 108 b 443 135 399 108 421 135 "},"ț":{"ha":501,"x_min":0,"x_max":0,"o":"m 285 -15 b 108 189 154 -15 108 75 l 108 503 b 79 526 108 518 103 526 b 19 565 40 526 19 529 b 78 613 19 592 35 593 b 181 714 129 638 154 669 b 247 782 200 761 214 782 l 260 782 b 285 758 276 782 285 774 l 285 646 b 308 622 285 631 293 622 b 440 624 353 622 404 624 b 469 583 463 624 469 610 b 428 526 469 547 451 526 l 308 526 b 285 503 293 526 285 518 l 285 193 b 353 108 285 135 311 108 b 443 135 399 108 421 135 b 469 107 461 135 469 125 b 285 -15 469 75 417 -15 m 190 -322 b 161 -297 174 -322 161 -312 b 213 -201 161 -271 213 -253 b 189 -129 213 -176 189 -161 b 268 -64 189 -87 226 -64 b 347 -147 313 -64 347 -96 b 190 -322 347 -246 254 -322 "},"u":{"ha":731,"x_min":0,"x_max":0,"o":"m 267 -14 b 81 204 129 -14 81 97 b 90 422 81 275 90 340 b 26 564 90 554 26 522 b 164 632 26 606 104 632 b 267 488 228 632 267 585 b 256 210 267 386 256 278 b 328 96 256 139 279 96 b 456 367 400 96 456 183 b 450 575 456 460 450 517 b 547 632 450 610 468 632 b 638 579 611 632 638 610 b 628 250 638 550 628 399 b 711 65 628 72 711 107 b 578 -6 711 19 628 -6 b 481 104 474 -6 503 104 b 267 -14 458 104 414 -14 "},"ú":{"ha":731,"x_min":0,"x_max":0,"o":"m 321 728 b 246 763 267 728 246 746 b 324 833 246 786 285 794 b 410 915 364 874 353 915 b 503 865 464 915 503 894 b 321 728 503 801 397 728 m 267 -14 b 81 204 129 -14 81 97 b 90 422 81 275 90 340 b 26 564 90 554 26 522 b 164 632 26 606 104 632 b 267 488 228 632 267 585 b 256 210 267 386 256 278 b 328 96 256 139 279 96 b 456 367 400 96 456 183 b 450 575 456 460 450 517 b 547 632 450 610 468 632 b 638 579 611 632 638 610 b 628 250 638 550 628 399 b 711 65 628 72 711 107 b 578 -6 711 19 628 -6 b 481 104 474 -6 503 104 b 267 -14 458 104 414 -14 "},"ŭ":{"ha":731,"x_min":0,"x_max":0,"o":"m 353 731 b 153 881 215 731 153 822 b 188 921 153 906 165 921 b 353 831 232 921 242 831 b 515 921 463 831 472 921 b 550 881 538 921 550 906 b 353 731 550 821 490 731 m 267 -14 b 81 204 129 -14 81 97 b 90 422 81 275 90 340 b 26 564 90 554 26 522 b 164 632 26 606 104 632 b 267 488 228 632 267 585 b 256 210 267 386 256 278 b 328 96 256 139 279 96 b 456 367 400 96 456 183 b 450 575 456 460 450 517 b 547 632 450 610 468 632 b 638 579 611 632 638 610 b 628 250 638 550 628 399 b 711 65 628 72 711 107 b 578 -6 711 19 628 -6 b 481 104 474 -6 503 104 b 267 -14 458 104 414 -14 "},"û":{"ha":731,"x_min":0,"x_max":0,"o":"m 214 728 b 143 763 175 728 143 743 b 242 856 143 788 200 806 b 349 911 275 890 285 911 l 357 911 b 463 856 422 911 431 890 b 563 763 504 806 563 788 b 490 728 563 743 529 728 b 353 814 446 728 385 772 b 214 728 318 772 260 728 m 267 -14 b 81 204 129 -14 81 97 b 90 422 81 275 90 340 b 26 564 90 554 26 522 b 164 632 26 606 104 632 b 267 488 228 632 267 585 b 256 210 267 386 256 278 b 328 96 256 139 279 96 b 456 367 400 96 456 183 b 450 575 456 460 450 517 b 547 632 450 610 468 632 b 638 579 611 632 638 610 b 628 250 638 550 628 399 b 711 65 628 72 711 107 b 578 -6 711 19 628 -6 b 481 104 474 -6 503 104 b 267 -14 458 104 414 -14 "},"ü":{"ha":731,"x_min":0,"x_max":0,"o":"m 221 740 b 131 824 174 740 131 779 b 221 906 131 865 169 906 b 313 822 271 906 313 867 b 221 740 313 781 271 740 m 481 740 b 392 824 433 740 392 779 b 481 906 392 865 429 906 b 574 822 531 906 575 867 b 481 740 572 781 531 740 m 267 -14 b 81 204 129 -14 81 97 b 90 422 81 275 90 340 b 26 564 90 554 26 522 b 164 632 26 606 104 632 b 267 488 228 632 267 585 b 256 210 267 386 256 278 b 328 96 256 139 279 96 b 456 367 400 96 456 183 b 450 575 456 460 450 517 b 547 632 450 610 468 632 b 638 579 611 632 638 610 b 628 250 638 550 628 399 b 711 65 628 72 711 107 b 578 -6 711 19 628 -6 b 481 104 474 -6 503 104 b 267 -14 458 104 414 -14 "},"ù":{"ha":731,"x_min":0,"x_max":0,"o":"m 385 728 b 201 865 308 728 201 801 b 294 915 201 894 242 915 b 376 844 346 915 347 878 b 458 764 403 800 458 786 b 385 728 458 746 432 728 m 267 -14 b 81 204 129 -14 81 97 b 90 422 81 275 90 340 b 26 564 90 554 26 522 b 164 632 26 606 104 632 b 267 488 228 632 267 585 b 256 210 267 386 256 278 b 328 96 256 139 279 96 b 456 367 400 96 456 183 b 450 575 456 460 450 517 b 547 632 450 610 468 632 b 638 579 611 632 638 610 b 628 250 638 550 628 399 b 711 65 628 72 711 107 b 578 -6 711 19 628 -6 b 481 104 474 -6 503 104 b 267 -14 458 104 414 -14 "},"ű":{"ha":731,"x_min":0,"x_max":0,"o":"m 213 725 b 139 761 165 725 139 743 b 221 842 139 783 194 797 b 301 913 250 875 251 913 b 396 863 356 913 396 892 b 213 725 396 799 288 725 m 451 725 b 376 761 403 725 376 743 b 460 842 376 783 433 797 b 540 913 488 875 489 913 b 633 863 593 913 633 892 b 451 725 633 799 526 725 m 267 -14 b 81 204 129 -14 81 97 b 90 422 81 275 90 340 b 26 564 90 554 26 522 b 164 632 26 606 104 632 b 267 488 228 632 267 585 b 256 210 267 386 256 278 b 328 96 256 139 279 96 b 456 367 400 96 456 183 b 450 575 456 460 450 517 b 547 632 450 610 468 632 b 638 579 611 632 638 610 b 628 250 638 550 628 399 b 711 65 628 72 711 107 b 578 -6 711 19 628 -6 b 481 104 474 -6 503 104 b 267 -14 458 104 414 -14 "},"ū":{"ha":731,"x_min":0,"x_max":0,"o":"m 190 776 b 154 808 165 776 154 783 l 154 839 b 190 871 154 864 165 871 l 513 871 b 549 839 538 871 549 864 l 549 808 b 513 776 549 783 538 776 m 267 -14 b 81 204 129 -14 81 97 b 90 422 81 275 90 340 b 26 564 90 554 26 522 b 164 632 26 606 104 632 b 267 488 228 632 267 585 b 256 210 267 386 256 278 b 328 96 256 139 279 96 b 456 367 400 96 456 183 b 450 575 456 460 450 517 b 547 632 450 610 468 632 b 638 579 611 632 638 610 b 628 250 638 550 628 399 b 711 65 628 72 711 107 b 578 -6 711 19 628 -6 b 481 104 474 -6 503 104 b 267 -14 458 104 414 -14 "},"ų":{"ha":731,"x_min":0,"x_max":0,"o":"m 565 -254 b 431 -143 489 -254 431 -212 b 544 -1 431 -89 483 -36 b 481 104 483 19 499 104 b 267 -14 458 104 414 -14 b 81 204 129 -14 81 97 b 90 422 81 275 90 340 b 26 564 90 554 26 522 b 164 632 26 606 104 632 b 267 488 228 632 267 585 b 256 210 267 386 256 278 b 328 96 256 139 279 96 b 456 367 400 96 456 183 b 450 575 456 460 450 517 b 547 632 450 610 468 632 b 638 579 611 632 638 610 b 628 250 638 550 628 399 b 711 65 628 72 711 107 b 657 4 711 40 688 22 b 540 -115 618 -19 540 -61 b 601 -160 540 -143 563 -160 b 675 -147 633 -160 653 -147 b 703 -172 693 -147 703 -154 b 565 -254 703 -206 643 -254 "},"ů":{"ha":731,"x_min":0,"x_max":0,"o":"m 351 713 b 186 864 260 713 186 781 b 351 1017 186 947 260 1017 b 517 864 444 1017 517 947 b 351 713 517 781 444 713 m 353 785 b 431 864 394 785 431 819 b 353 943 431 908 394 943 b 274 864 308 943 274 908 b 353 785 274 819 308 785 m 267 -14 b 81 204 129 -14 81 97 b 90 422 81 275 90 340 b 26 564 90 554 26 522 b 164 632 26 606 104 632 b 267 488 228 632 267 585 b 256 210 267 386 256 278 b 328 96 256 139 279 96 b 456 367 400 96 456 183 b 450 575 456 460 450 517 b 547 632 450 610 468 632 b 638 579 611 632 638 610 b 628 250 638 550 628 399 b 711 65 628 72 711 107 b 578 -6 711 19 628 -6 b 481 104 474 -6 503 104 b 267 -14 458 104 414 -14 "},"ũ":{"ha":731,"x_min":0,"x_max":0,"o":"m 447 719 b 268 822 361 719 304 822 b 190 722 225 822 244 722 b 144 797 164 722 144 754 b 258 926 144 858 174 926 b 436 824 343 926 401 824 b 514 924 479 824 460 924 b 560 850 542 924 560 892 b 447 719 560 790 531 719 m 267 -14 b 81 204 129 -14 81 97 b 90 422 81 275 90 340 b 26 564 90 554 26 522 b 164 632 26 606 104 632 b 267 488 228 632 267 585 b 256 210 267 386 256 278 b 328 96 256 139 279 96 b 456 367 400 96 456 183 b 450 575 456 460 450 517 b 547 632 450 610 468 632 b 638 579 611 632 638 610 b 628 250 638 550 628 399 b 711 65 628 72 711 107 b 578 -6 711 19 628 -6 b 481 104 474 -6 503 104 b 267 -14 458 104 414 -14 "},"v":{"ha":675,"x_min":0,"x_max":0,"o":"m 324 -14 b 57 332 139 -14 57 111 b 82 608 57 533 68 590 b 165 636 94 628 124 636 b 260 583 235 636 260 614 b 238 314 260 550 238 449 b 357 96 238 175 271 96 b 492 292 443 96 492 181 b 372 539 492 464 372 489 b 475 651 372 574 426 651 b 621 342 529 651 621 542 b 324 -14 621 133 507 -14 "},"w":{"ha":1036,"x_min":0,"x_max":0,"o":"m 267 -14 b 81 204 129 -14 81 97 b 92 422 81 275 92 340 b 26 564 92 554 26 522 b 164 632 26 606 106 632 b 268 488 228 632 268 585 b 256 210 268 386 256 278 b 328 96 256 139 279 96 b 456 388 386 96 456 163 b 446 606 456 492 424 560 b 529 632 458 624 489 632 b 625 579 599 632 625 610 b 624 319 625 550 624 440 b 735 93 624 182 656 93 b 853 283 808 93 853 172 b 742 539 853 449 742 489 b 843 651 742 574 796 651 b 982 343 899 651 982 536 b 707 -14 982 143 882 -14 b 493 125 535 -14 514 125 b 267 -14 474 125 431 -14 "},"":{"ha":1036,"x_min":0,"x_max":0,"o":"m 267 -14 b 493 125 431 -14 474 125 b 707 -14 514 125 535 -14 b 982 343 882 -14 982 143 b 843 651 982 536 899 651 b 742 539 796 651 742 574 b 853 283 742 489 853 449 b 735 93 853 172 808 93 b 624 319 656 93 624 182 b 625 579 624 440 625 550 b 529 632 625 610 599 632 b 446 606 489 632 458 624 b 456 388 424 560 456 492 b 328 96 456 163 386 96 b 256 210 279 96 256 139 b 268 488 256 278 268 386 b 164 632 268 585 228 632 b 26 564 106 632 26 606 b 92 422 26 522 92 554 b 81 204 92 340 81 275 b 267 -14 81 97 129 -14 "},"ẃ":{"ha":1036,"x_min":0,"x_max":0,"o":"m 494 728 b 419 763 440 728 419 746 b 497 833 419 786 458 794 b 583 915 538 874 526 915 b 676 865 638 915 676 894 b 494 728 676 801 571 728 m 267 -14 b 81 204 129 -14 81 97 b 92 422 81 275 92 340 b 26 564 92 554 26 522 b 164 632 26 606 106 632 b 268 488 228 632 268 585 b 256 210 268 386 256 278 b 328 96 256 139 279 96 b 456 388 386 96 456 163 b 446 606 456 492 424 560 b 529 632 458 624 489 632 b 625 579 599 632 625 610 b 624 319 625 550 624 440 b 735 93 624 182 656 93 b 853 283 808 93 853 172 b 742 539 853 449 742 489 b 843 651 742 574 796 651 b 982 343 899 651 982 536 b 707 -14 982 143 882 -14 b 493 125 535 -14 514 125 b 267 -14 474 125 431 -14 "},"ŵ":{"ha":1036,"x_min":0,"x_max":0,"o":"m 388 728 b 317 763 349 728 317 743 b 415 856 317 788 374 806 b 522 911 449 890 458 911 l 531 911 b 636 856 596 911 604 890 b 736 763 678 806 736 788 b 664 728 736 743 703 728 b 526 814 619 728 558 772 b 388 728 492 772 433 728 m 267 -14 b 81 204 129 -14 81 97 b 92 422 81 275 92 340 b 26 564 92 554 26 522 b 164 632 26 606 106 632 b 268 488 228 632 268 585 b 256 210 268 386 256 278 b 328 96 256 139 279 96 b 456 388 386 96 456 163 b 446 606 456 492 424 560 b 529 632 458 624 489 632 b 625 579 599 632 625 610 b 624 319 625 550 624 440 b 735 93 624 182 656 93 b 853 283 808 93 853 172 b 742 539 853 449 742 489 b 843 651 742 574 796 651 b 982 343 899 651 982 536 b 707 -14 982 143 882 -14 b 493 125 535 -14 514 125 b 267 -14 474 125 431 -14 "},"ẅ":{"ha":1036,"x_min":0,"x_max":0,"o":"m 394 740 b 304 824 347 740 304 779 b 394 906 304 865 343 906 b 486 822 444 906 486 867 b 394 740 486 781 444 740 m 654 740 b 565 824 607 740 565 779 b 654 906 565 865 603 906 b 747 822 704 906 749 867 b 654 740 746 781 704 740 m 267 -14 b 81 204 129 -14 81 97 b 92 422 81 275 92 340 b 26 564 92 554 26 522 b 164 632 26 606 106 632 b 268 488 228 632 268 585 b 256 210 268 386 256 278 b 328 96 256 139 279 96 b 456 388 386 96 456 163 b 446 606 456 492 424 560 b 529 632 458 624 489 632 b 625 579 599 632 625 610 b 624 319 625 550 624 440 b 735 93 624 182 656 93 b 853 283 808 93 853 172 b 742 539 853 449 742 489 b 843 651 742 574 796 651 b 982 343 899 651 982 536 b 707 -14 982 143 882 -14 b 493 125 535 -14 514 125 b 267 -14 474 125 431 -14 "},"ẁ":{"ha":1036,"x_min":0,"x_max":0,"o":"m 558 728 b 375 865 482 728 375 801 b 468 915 375 894 415 915 b 550 844 519 915 521 878 b 632 764 576 800 632 786 b 558 728 632 746 606 728 m 267 -14 b 81 204 129 -14 81 97 b 92 422 81 275 92 340 b 26 564 92 554 26 522 b 164 632 26 606 106 632 b 268 488 228 632 268 585 b 256 210 268 386 256 278 b 328 96 256 139 279 96 b 456 388 386 96 456 163 b 446 606 456 492 424 560 b 529 632 458 624 489 632 b 625 579 599 632 625 610 b 624 319 625 550 624 440 b 735 93 624 182 656 93 b 853 283 808 93 853 172 b 742 539 853 449 742 489 b 843 651 742 574 796 651 b 982 343 899 651 982 536 b 707 -14 982 143 882 -14 b 493 125 535 -14 514 125 b 267 -14 474 125 431 -14 "},"x":{"ha":674,"x_min":0,"x_max":0,"o":"m 117 -14 b 19 40 51 -14 19 14 b 85 169 19 81 47 169 b 185 122 114 169 158 122 b 238 261 208 122 238 156 b 57 500 238 406 181 500 b 32 525 42 500 32 511 b 163 638 32 583 90 638 b 335 456 253 638 308 575 b 347 436 336 449 339 436 b 358 456 356 436 357 449 b 538 638 385 575 456 638 b 636 585 604 638 636 611 b 569 456 636 544 607 456 b 478 501 538 456 507 501 b 426 399 453 501 426 469 b 624 122 426 240 497 122 b 649 97 640 122 649 111 b 517 -15 649 40 592 -15 b 333 196 431 -15 353 46 b 322 219 332 207 331 219 b 310 196 314 219 311 207 b 117 -14 290 46 204 -14 "},"y":{"ha":719,"x_min":0,"x_max":0,"o":"m 333 -256 b 82 -139 196 -256 82 -189 b 146 -25 82 -89 113 -25 b 346 -167 199 -25 239 -167 b 468 24 440 -167 468 -122 l 468 93 b 461 110 468 106 465 110 b 274 18 443 110 399 18 b 81 226 122 18 81 121 b 90 422 81 297 90 357 b 26 564 90 554 26 522 b 164 632 26 606 106 632 b 267 488 228 632 267 585 b 256 233 267 386 256 300 b 328 119 256 163 279 119 b 456 401 400 119 456 210 b 457 575 456 460 457 517 b 554 632 457 610 474 632 b 643 579 617 632 643 610 b 626 268 643 550 626 415 l 626 33 b 333 -256 626 -118 563 -256 "},"":{"ha":719,"x_min":0,"x_max":0,"o":"m 333 -256 b 626 33 563 -256 626 -118 l 626 268 b 643 579 626 415 643 550 b 554 632 643 610 617 632 b 457 575 474 632 457 610 b 456 401 457 517 456 460 b 328 119 456 210 400 119 b 256 233 279 119 256 163 b 267 488 256 300 267 386 b 164 632 267 585 228 632 b 26 564 106 632 26 606 b 90 422 26 522 90 554 b 81 226 90 357 81 297 b 274 18 81 121 122 18 b 461 110 399 18 443 110 b 468 93 465 110 468 106 l 468 24 b 346 -167 468 -122 440 -167 b 146 -25 239 -167 199 -25 b 82 -139 113 -25 82 -89 b 333 -256 82 -189 196 -256 "},"ý":{"ha":719,"x_min":0,"x_max":0,"o":"m 321 728 b 246 763 267 728 246 746 b 324 833 246 786 285 794 b 410 915 364 874 353 915 b 503 865 464 915 503 894 b 321 728 503 801 397 728 m 333 -256 b 82 -139 196 -256 82 -189 b 146 -25 82 -89 113 -25 b 346 -167 199 -25 239 -167 b 468 24 440 -167 468 -122 l 468 93 b 461 110 468 106 465 110 b 274 18 443 110 399 18 b 81 226 122 18 81 121 b 90 422 81 297 90 357 b 26 564 90 554 26 522 b 164 632 26 606 106 632 b 267 488 228 632 267 585 b 256 233 267 386 256 300 b 328 119 256 163 279 119 b 456 401 400 119 456 210 b 457 575 456 460 457 517 b 554 632 457 610 474 632 b 643 579 617 632 643 610 b 626 268 643 550 626 415 l 626 33 b 333 -256 626 -118 563 -256 "},"ŷ":{"ha":719,"x_min":0,"x_max":0,"o":"m 214 728 b 143 763 175 728 143 743 b 242 856 143 788 200 806 b 349 911 275 890 285 911 l 357 911 b 463 856 422 911 431 890 b 563 763 504 806 563 788 b 490 728 563 743 529 728 b 353 814 446 728 385 772 b 214 728 318 772 260 728 m 333 -256 b 82 -139 196 -256 82 -189 b 146 -25 82 -89 113 -25 b 346 -167 199 -25 239 -167 b 468 24 440 -167 468 -122 l 468 93 b 461 110 468 106 465 110 b 274 18 443 110 399 18 b 81 226 122 18 81 121 b 90 422 81 297 90 357 b 26 564 90 554 26 522 b 164 632 26 606 106 632 b 267 488 228 632 267 585 b 256 233 267 386 256 300 b 328 119 256 163 279 119 b 456 401 400 119 456 210 b 457 575 456 460 457 517 b 554 632 457 610 474 632 b 643 579 617 632 643 610 b 626 268 643 550 626 415 l 626 33 b 333 -256 626 -118 563 -256 "},"ÿ":{"ha":719,"x_min":0,"x_max":0,"o":"m 221 740 b 131 824 174 740 131 779 b 221 906 131 865 169 906 b 313 822 271 906 313 867 b 221 740 313 781 271 740 m 481 740 b 392 824 433 740 392 779 b 481 906 392 865 429 906 b 574 822 531 906 575 867 b 481 740 572 781 531 740 m 333 -256 b 82 -139 196 -256 82 -189 b 146 -25 82 -89 113 -25 b 346 -167 199 -25 239 -167 b 468 24 440 -167 468 -122 l 468 93 b 461 110 468 106 465 110 b 274 18 443 110 399 18 b 81 226 122 18 81 121 b 90 422 81 297 90 357 b 26 564 90 554 26 522 b 164 632 26 606 106 632 b 267 488 228 632 267 585 b 256 233 267 386 256 300 b 328 119 256 163 279 119 b 456 401 400 119 456 210 b 457 575 456 460 457 517 b 554 632 457 610 474 632 b 643 579 617 632 643 610 b 626 268 643 550 626 415 l 626 33 b 333 -256 626 -118 563 -256 "},"ỳ":{"ha":719,"x_min":0,"x_max":0,"o":"m 385 728 b 201 865 308 728 201 801 b 294 915 201 894 242 915 b 376 844 346 915 347 878 b 458 764 403 800 458 786 b 385 728 458 746 432 728 m 333 -256 b 82 -139 196 -256 82 -189 b 146 -25 82 -89 113 -25 b 346 -167 199 -25 239 -167 b 468 24 440 -167 468 -122 l 468 93 b 461 110 468 106 465 110 b 274 18 443 110 399 18 b 81 226 122 18 81 121 b 90 422 81 297 90 357 b 26 564 90 554 26 522 b 164 632 26 606 106 632 b 267 488 228 632 267 585 b 256 233 267 386 256 300 b 328 119 256 163 279 119 b 456 401 400 119 456 210 b 457 575 456 460 457 517 b 554 632 457 610 474 632 b 643 579 617 632 643 610 b 626 268 643 550 626 415 l 626 33 b 333 -256 626 -118 563 -256 "},"z":{"ha":636,"x_min":0,"x_max":0,"o":"m 442 -19 b 207 25 347 -19 263 25 b 92 0 153 25 131 0 b 38 64 67 0 38 18 b 161 253 38 128 58 188 l 417 458 b 431 474 425 464 431 468 b 415 481 431 478 426 481 l 208 481 b 100 435 126 481 132 435 b 43 531 69 435 43 481 b 179 639 43 583 82 639 b 403 603 275 639 347 603 b 521 629 457 603 483 629 b 575 544 543 629 575 611 b 454 369 575 461 535 419 l 210 169 b 197 156 204 167 197 163 b 211 147 197 151 201 147 l 417 147 b 546 201 515 147 511 201 b 590 115 574 201 590 161 b 442 -19 590 44 542 -19 "},"ź":{"ha":636,"x_min":0,"x_max":0,"o":"m 274 728 b 199 763 219 728 199 746 b 276 833 199 786 238 794 b 363 915 317 874 306 915 b 456 865 417 915 456 894 b 274 728 456 801 350 728 m 442 -19 b 207 25 347 -19 263 25 b 92 0 153 25 131 0 b 38 64 67 0 38 18 b 161 253 38 128 58 188 l 417 458 b 431 474 425 464 431 468 b 415 481 431 478 426 481 l 208 481 b 100 435 126 481 132 435 b 43 531 69 435 43 481 b 179 639 43 583 82 639 b 403 603 275 639 347 603 b 521 629 457 603 483 629 b 575 544 543 629 575 611 b 454 369 575 461 535 419 l 210 169 b 197 156 204 167 197 163 b 211 147 197 151 201 147 l 417 147 b 546 201 515 147 511 201 b 590 115 574 201 590 161 b 442 -19 590 44 542 -19 "},"ž":{"ha":636,"x_min":0,"x_max":0,"o":"m 300 728 b 194 783 236 728 228 747 b 96 875 153 832 96 851 b 167 911 96 896 128 911 b 306 824 213 911 274 865 b 443 911 340 865 399 911 b 515 875 482 911 515 896 b 415 783 515 851 457 832 b 308 728 383 747 374 728 m 442 -19 b 207 25 347 -19 263 25 b 92 0 153 25 131 0 b 38 64 67 0 38 18 b 161 253 38 128 58 188 l 417 458 b 431 474 425 464 431 468 b 415 481 431 478 426 481 l 208 481 b 100 435 126 481 132 435 b 43 531 69 435 43 481 b 179 639 43 583 82 639 b 403 603 275 639 347 603 b 521 629 457 603 483 629 b 575 544 543 629 575 611 b 454 369 575 461 535 419 l 210 169 b 197 156 204 167 197 163 b 211 147 197 151 201 147 l 417 147 b 546 201 515 147 511 201 b 590 115 574 201 590 161 b 442 -19 590 44 542 -19 "},"ż":{"ha":636,"x_min":0,"x_max":0,"o":"m 304 731 b 210 815 254 731 210 769 b 304 897 210 858 250 897 b 400 814 356 897 400 861 b 304 731 399 771 356 731 m 442 -19 b 207 25 347 -19 263 25 b 92 0 153 25 131 0 b 38 64 67 0 38 18 b 161 253 38 128 58 188 l 417 458 b 431 474 425 464 431 468 b 415 481 431 478 426 481 l 208 481 b 100 435 126 481 132 435 b 43 531 69 435 43 481 b 179 639 43 583 82 639 b 403 603 275 639 347 603 b 521 629 457 603 483 629 b 575 544 543 629 575 611 b 454 369 575 461 535 419 l 210 169 b 197 156 204 167 197 163 b 211 147 197 151 201 147 l 417 147 b 546 201 515 147 511 201 b 590 115 574 201 590 161 b 442 -19 590 44 542 -19 "},"ﬁ":{"ha":772,"x_min":0,"x_max":0,"o":"m 194 -135 b 101 -78 104 -135 101 -99 b 108 503 101 81 108 310 b 79 526 108 518 103 526 b 19 564 40 526 19 529 b 71 608 19 593 43 596 b 121 706 110 625 115 660 b 411 921 140 811 233 921 b 668 826 524 921 668 868 b 590 706 668 786 629 706 b 518 764 564 706 543 735 b 404 835 493 796 458 835 b 285 674 344 835 285 793 l 285 646 b 308 622 285 631 293 622 b 579 632 506 622 506 632 b 676 501 654 632 676 586 b 664 190 676 424 664 253 b 750 63 664 68 750 108 b 622 -12 750 22 692 -12 b 489 158 543 -12 489 38 b 499 390 489 228 499 318 b 443 526 499 476 488 526 l 308 526 b 285 503 293 526 285 518 l 283 188 b 289 -79 283 39 289 -42 b 194 -135 289 -112 267 -135 "},"ﬂ":{"ha":786,"x_min":0,"x_max":0,"o":"m 194 -135 b 101 -78 104 -135 101 -99 b 108 503 101 81 108 310 b 79 526 108 518 103 526 b 19 564 40 526 19 529 b 71 608 19 593 43 596 b 117 681 100 621 110 646 b 450 918 149 838 254 918 b 693 786 651 918 693 865 b 679 190 693 681 679 263 b 765 63 679 68 765 108 b 639 -12 765 22 704 -12 b 504 158 560 -12 504 38 b 515 749 504 297 515 619 b 424 832 515 814 472 832 b 285 681 374 832 286 803 l 285 646 b 308 622 285 631 293 622 b 406 624 342 622 381 624 b 435 583 426 624 435 610 b 392 526 435 547 417 526 l 308 526 b 285 503 293 526 285 518 l 283 188 b 289 -79 283 39 289 -42 b 194 -135 289 -112 267 -135 "},"ª":{"ha":567,"x_min":0,"x_max":0,"o":"m 226 428 b 56 633 132 428 56 510 b 239 846 56 763 135 846 b 374 796 335 846 353 796 b 444 844 392 796 413 844 b 476 803 467 844 476 829 b 461 618 476 776 461 685 b 515 475 461 493 515 508 b 435 428 515 446 467 428 b 369 506 369 428 383 506 b 226 428 356 506 324 428 m 258 514 b 332 650 308 514 332 574 b 267 771 332 713 315 771 b 194 638 215 771 194 717 b 258 514 194 564 211 514 m 103 238 b 69 268 78 238 69 251 b 103 321 69 300 81 321 l 467 321 b 497 289 490 321 497 307 b 465 236 497 258 486 236 "},"º":{"ha":538,"x_min":0,"x_max":0,"o":"m 268 428 b 56 638 139 428 56 508 b 268 850 56 768 139 850 b 482 639 399 850 482 769 b 268 428 482 511 399 428 m 268 503 b 344 639 315 503 344 546 b 268 774 344 733 315 774 b 194 639 218 774 194 735 b 268 503 194 544 224 503 m 435 236 b 103 238 332 236 206 238 b 71 268 78 238 71 251 b 103 321 71 300 82 321 l 433 321 b 467 289 458 321 467 307 b 435 236 467 258 456 236 "},"Δ":{"ha":801,"x_min":0,"x_max":0,"o":"m 79 -1 b 22 46 47 -1 22 15 b 43 106 22 60 29 75 b 144 369 53 132 90 239 b 267 719 211 529 267 697 b 215 782 267 757 215 757 b 372 857 215 822 283 857 b 551 726 458 857 521 817 l 744 156 b 778 50 765 96 778 67 b 718 -1 778 17 750 -1 m 553 96 b 569 111 564 96 569 103 l 567 121 l 393 643 b 375 668 388 657 385 668 b 360 643 367 668 364 657 l 178 121 b 174 111 175 115 174 113 b 190 96 174 103 181 96 "},"Ω":{"ha":801,"x_min":0,"x_max":0,"o":"m 110 -6 b 29 100 51 -6 29 28 b 68 194 29 165 36 194 b 199 94 110 194 150 94 l 246 94 b 263 108 260 94 263 100 l 263 160 b 242 186 263 171 257 179 b 18 501 146 229 18 322 b 401 864 18 699 161 864 b 783 501 642 864 783 699 b 560 186 783 322 656 229 b 539 160 544 179 539 171 l 539 108 b 554 94 539 100 542 94 l 603 94 b 733 194 651 94 692 194 b 772 100 765 194 772 165 b 692 -6 772 28 750 -6 b 564 0 650 -6 606 0 l 489 0 b 443 42 461 0 443 15 l 444 207 b 468 251 444 226 446 239 b 589 494 542 288 589 372 b 401 764 589 649 525 764 b 213 494 276 764 213 647 b 333 251 213 372 260 288 b 358 207 354 239 358 226 l 358 42 b 313 0 358 15 340 0 l 236 0 b 110 -6 196 0 151 -6 "},"μ":{"ha":721,"x_min":0,"x_max":0,"o":"m 142 -249 b 53 -194 79 -249 53 -226 b 78 422 53 -164 78 124 b 15 564 78 551 15 524 b 154 632 15 606 94 632 b 256 488 229 632 256 583 b 246 225 256 413 246 269 b 319 103 246 146 268 103 b 446 350 389 103 446 190 b 440 575 446 460 440 517 b 538 632 440 610 457 632 b 626 579 600 632 626 610 b 618 250 626 550 618 403 b 700 65 618 72 700 107 b 565 -6 700 19 618 -6 b 469 104 464 -6 492 104 b 318 6 449 104 418 6 b 236 33 260 6 247 33 b 226 0 231 33 226 29 b 239 -193 226 -75 239 -171 b 142 -249 239 -226 221 -249 "},"π":{"ha":824,"x_min":0,"x_max":0,"o":"m 608 -15 b 431 189 478 -15 431 75 l 431 493 b 406 522 431 514 424 522 l 350 522 b 325 493 333 522 325 514 l 325 389 b 179 -15 325 104 232 -15 b 76 97 131 -15 76 63 b 207 407 76 153 207 179 l 207 499 b 183 522 207 514 199 522 b 75 521 150 522 97 521 b 42 560 50 521 42 532 b 83 622 42 599 61 622 l 521 622 b 754 624 600 622 708 624 b 786 586 779 624 786 613 b 749 522 786 547 768 522 l 632 522 b 608 499 617 522 608 514 l 608 193 b 676 108 608 135 635 108 b 767 135 722 108 744 135 b 793 107 785 135 793 125 b 608 -15 793 75 740 -15 "},"₀":{"ha":506,"x_min":0,"x_max":0,"o":"m 254 -178 b 33 65 113 -178 33 -81 b 254 308 33 211 113 308 b 472 65 393 308 472 213 b 254 -178 472 -81 393 -178 m 254 -101 b 333 65 307 -101 333 -46 b 254 232 333 176 307 232 b 172 65 197 232 172 176 b 254 -101 172 -46 197 -101 "},"₁":{"ha":315,"x_min":0,"x_max":0,"o":"m 163 -172 b 96 -137 111 -172 96 -156 b 101 32 96 -118 101 -46 l 101 182 b 100 189 101 185 101 188 b 44 207 88 201 63 192 b 36 228 40 210 36 219 b 193 304 36 263 147 304 b 233 258 217 304 233 288 l 233 -137 b 163 -172 233 -154 218 -172 "},"₂":{"ha":469,"x_min":0,"x_max":0,"o":"m 344 -175 b 164 -158 264 -175 203 -158 b 76 -174 132 -158 108 -174 b 35 -121 56 -174 35 -158 b 283 169 35 24 283 60 b 222 232 283 203 265 232 b 79 133 156 232 126 133 b 33 208 54 133 33 168 b 232 308 33 240 118 308 b 418 167 342 308 418 251 b 165 -57 418 33 217 -8 b 154 -69 156 -64 154 -67 b 161 -74 154 -72 156 -74 l 300 -74 b 394 -40 367 -74 368 -40 b 435 -103 417 -40 435 -65 b 344 -175 435 -142 404 -175 "},"₃":{"ha":474,"x_min":0,"x_max":0,"o":"m 231 -178 b 31 -90 107 -178 31 -122 b 72 -10 31 -49 49 -10 b 229 -101 117 -10 157 -101 b 304 -39 275 -101 304 -78 b 200 33 304 6 272 33 l 160 33 b 143 68 149 33 143 49 b 160 106 143 92 149 106 l 200 106 b 292 172 242 106 292 125 b 225 233 292 213 263 233 b 82 151 154 233 126 151 b 42 229 56 151 42 189 b 226 308 42 260 122 308 b 418 183 328 308 418 265 b 332 81 418 133 379 99 b 318 71 322 76 318 74 b 332 63 318 68 319 67 b 438 -46 392 46 438 13 b 231 -178 438 -128 344 -178 "},"₄":{"ha":472,"x_min":0,"x_max":0,"o":"m 317 -172 b 253 -136 276 -172 253 -161 b 256 -86 253 -128 256 -96 b 242 -75 256 -78 251 -75 l 67 -75 b 10 -22 29 -75 10 -56 b 338 306 10 122 225 306 b 385 261 383 306 385 275 l 385 10 b 403 -7 385 -1 392 -7 l 433 -7 b 454 -21 447 -7 454 -12 b 447 -54 454 -25 450 -46 b 426 -75 443 -69 439 -75 l 403 -75 b 385 -92 390 -75 385 -82 l 385 -137 b 317 -172 385 -160 361 -172 m 243 -7 b 260 10 254 -7 260 -1 l 260 185 b 256 192 260 189 258 192 b 125 15 228 192 126 85 b 146 -7 125 -3 132 -7 "},"₅":{"ha":464,"x_min":0,"x_max":0,"o":"m 226 -178 b 31 -99 118 -178 31 -133 b 69 -29 31 -56 49 -29 b 219 -103 114 -29 146 -103 b 297 -26 274 -103 297 -68 b 225 51 297 18 269 51 b 108 19 176 51 150 19 b 46 58 65 19 46 38 b 57 210 46 81 57 121 l 57 258 b 103 297 57 282 64 297 b 281 292 142 297 213 292 b 382 307 346 292 356 307 b 413 258 407 307 413 282 b 322 190 413 222 388 190 b 165 207 256 190 183 207 b 147 193 154 207 149 199 b 136 96 143 161 136 100 b 139 90 136 92 138 90 b 267 126 147 90 181 126 b 428 -22 354 126 428 68 b 226 -178 428 -111 361 -178 "},"₆":{"ha":488,"x_min":0,"x_max":0,"o":"m 256 -178 b 33 64 118 -178 33 -90 b 258 308 33 222 138 308 b 436 236 360 308 436 267 b 394 168 436 193 419 168 b 263 232 346 168 326 232 b 169 115 200 232 169 169 b 172 90 169 103 171 90 b 293 140 179 90 197 140 b 454 -15 378 140 454 78 b 256 -178 454 -107 372 -178 m 251 -103 b 324 -19 294 -103 324 -72 b 251 63 324 32 294 63 b 178 -19 210 63 178 32 b 251 -103 178 -72 207 -103 "},"₇":{"ha":442,"x_min":0,"x_max":0,"o":"m 185 -172 b 121 -126 133 -172 121 -157 b 300 183 121 1 215 128 b 313 196 308 188 313 192 b 304 199 313 199 311 199 l 149 199 b 54 165 82 199 81 165 b 13 231 32 165 13 192 b 110 303 13 268 43 303 b 290 289 169 303 253 289 b 378 303 321 289 346 303 b 425 242 400 303 425 289 b 256 -126 425 144 256 106 b 185 -172 256 -160 236 -172 "},"₈":{"ha":489,"x_min":0,"x_max":0,"o":"m 249 -178 b 36 -43 132 -178 36 -128 b 126 56 36 14 86 42 b 138 65 131 57 138 60 b 125 75 138 68 129 74 b 53 179 96 92 53 121 b 249 308 53 264 140 308 b 444 190 365 308 444 261 b 368 103 444 139 399 114 b 354 94 360 100 354 99 b 367 85 354 90 358 89 b 460 -33 407 67 460 33 b 249 -178 460 -136 363 -178 m 269 128 b 339 185 285 128 339 150 b 249 236 339 222 292 236 b 169 192 210 236 169 222 b 269 128 169 150 254 128 m 249 -106 b 333 -51 293 -106 333 -86 b 224 25 333 -3 239 25 b 151 -42 208 25 151 3 b 249 -106 151 -85 204 -106 "},"₉":{"ha":488,"x_min":0,"x_max":0,"o":"m 229 -178 b 51 -106 128 -178 51 -136 b 93 -37 51 -62 68 -37 b 225 -101 142 -37 161 -101 b 318 15 288 -101 318 -39 b 315 40 318 28 317 40 b 194 -10 308 40 290 -10 b 33 146 110 -10 33 53 b 232 308 33 238 115 308 b 454 67 369 308 454 221 b 229 -178 454 -92 350 -178 m 236 68 b 310 150 278 68 310 99 b 236 233 310 203 279 233 b 164 150 193 233 164 203 b 236 68 164 99 193 68 "},"⁰":{"ha":506,"x_min":0,"x_max":0,"o":"m 254 428 b 33 671 113 428 33 525 b 254 914 33 817 113 914 b 472 671 393 914 472 818 b 254 428 472 525 393 428 m 254 504 b 333 671 307 504 333 560 b 254 838 333 782 307 838 b 172 671 197 838 172 782 b 254 504 172 560 197 504 "},"¹":{"ha":315,"x_min":0,"x_max":0,"o":"m 163 433 b 96 468 111 433 96 450 b 101 638 96 488 101 560 l 101 788 b 100 794 101 790 101 793 b 44 813 88 807 63 797 b 36 833 40 815 36 825 b 193 910 36 868 147 910 b 233 864 217 910 233 893 l 233 468 b 163 433 233 451 218 433 "},"²":{"ha":469,"x_min":0,"x_max":0,"o":"m 344 431 b 164 447 264 431 203 447 b 76 432 132 447 108 432 b 35 485 56 432 35 447 b 283 775 35 629 283 665 b 222 838 283 808 265 838 b 79 739 156 838 126 739 b 33 814 54 739 33 774 b 232 914 33 846 118 914 b 418 772 342 914 418 857 b 165 549 418 639 217 597 b 154 536 156 542 154 539 b 161 532 154 533 156 532 l 300 532 b 394 565 367 532 368 565 b 435 503 417 565 435 540 b 344 431 435 464 404 431 "},"³":{"ha":474,"x_min":0,"x_max":0,"o":"m 231 428 b 31 515 107 428 31 483 b 72 596 31 557 49 596 b 229 504 117 596 157 504 b 304 567 275 504 304 528 b 200 639 304 611 272 639 l 160 639 b 143 674 149 639 143 654 b 160 711 143 697 149 711 l 200 711 b 292 778 242 711 292 731 b 225 839 292 818 263 839 b 82 757 154 839 126 757 b 42 835 56 757 42 794 b 226 914 42 865 122 914 b 418 789 328 914 418 871 b 332 686 418 739 379 704 b 318 676 322 682 318 679 b 332 668 318 674 319 672 b 438 560 392 651 438 618 b 231 428 438 478 344 428 "},"⁴":{"ha":472,"x_min":0,"x_max":0,"o":"m 317 433 b 253 469 276 433 253 444 b 256 519 253 478 256 510 b 242 531 256 528 251 531 l 67 531 b 10 583 29 531 10 550 b 338 911 10 728 225 911 b 385 867 383 911 385 881 l 385 615 b 403 599 385 604 392 599 l 433 599 b 454 585 447 599 454 593 b 447 551 454 581 450 560 b 426 531 443 536 439 531 l 403 531 b 385 514 390 531 385 524 l 385 468 b 317 433 385 446 361 433 m 243 599 b 260 615 254 599 260 604 l 260 790 b 256 797 260 794 258 797 b 125 621 228 797 126 690 b 146 599 125 603 132 599 "},"⁵":{"ha":464,"x_min":0,"x_max":0,"o":"m 226 428 b 31 507 118 428 31 472 b 69 576 31 550 49 576 b 219 503 114 576 146 503 b 297 579 274 503 297 538 b 225 657 297 624 269 657 b 108 625 176 657 150 625 b 46 664 65 625 46 643 b 57 815 46 686 57 726 l 57 864 b 103 903 57 888 64 903 b 281 897 142 903 213 897 b 382 913 346 897 356 913 b 413 864 407 913 413 888 b 322 796 413 828 388 796 b 165 813 256 796 183 813 b 147 799 154 813 149 804 b 136 701 143 767 136 706 b 139 696 136 697 138 696 b 267 732 147 696 181 732 b 428 583 354 732 428 674 b 226 428 428 494 361 428 "},"⁶":{"ha":488,"x_min":0,"x_max":0,"o":"m 256 428 b 33 669 118 428 33 515 b 258 914 33 828 138 914 b 436 842 360 914 436 872 b 394 774 436 799 419 774 b 263 838 346 774 326 838 b 169 721 200 838 169 775 b 172 696 169 708 171 696 b 293 746 179 696 197 746 b 454 590 378 746 454 683 b 256 428 454 499 372 428 m 251 503 b 324 586 294 503 324 533 b 251 668 324 638 294 668 b 178 586 210 668 178 638 b 251 503 178 533 207 503 "},"⁷":{"ha":442,"x_min":0,"x_max":0,"o":"m 185 433 b 121 479 133 433 121 449 b 300 789 121 607 215 733 b 313 801 308 793 313 797 b 304 804 313 804 311 804 l 149 804 b 54 771 82 804 81 771 b 13 836 32 771 13 797 b 110 908 13 874 43 908 b 290 894 169 908 253 894 b 378 908 321 894 346 908 b 425 847 400 908 425 894 b 256 479 425 750 256 711 b 185 433 256 446 236 433 "},"⁸":{"ha":489,"x_min":0,"x_max":0,"o":"m 249 428 b 36 563 132 428 36 478 b 126 661 36 619 86 647 b 138 671 131 663 138 665 b 125 681 138 674 129 679 b 53 785 96 697 53 726 b 249 914 53 869 140 914 b 444 796 365 914 444 867 b 368 708 444 744 399 719 b 354 700 360 706 354 704 b 367 690 354 696 358 694 b 460 572 407 672 460 639 b 249 428 460 469 363 428 m 269 733 b 339 790 285 733 339 756 b 249 842 339 828 292 842 b 169 797 210 842 169 828 b 269 733 169 756 254 733 m 249 500 b 333 554 293 500 333 519 b 224 631 333 603 239 631 b 151 564 208 631 151 608 b 249 500 151 521 204 500 "},"⁹":{"ha":488,"x_min":0,"x_max":0,"o":"m 229 428 b 51 500 128 428 51 469 b 93 568 51 543 68 568 b 225 504 142 568 161 504 b 318 621 288 504 318 567 b 315 646 318 633 317 646 b 194 596 308 646 290 596 b 33 751 110 596 33 658 b 232 914 33 843 115 914 b 454 672 369 914 454 826 b 229 428 454 514 350 428 m 236 674 b 310 756 278 674 310 704 b 236 839 310 808 279 839 b 164 756 193 839 164 808 b 236 674 164 704 193 674 "},"⁄":{"ha":236,"x_min":0,"x_max":0,"o":"m -136 -53 b -169 -28 -161 -53 -169 -42 b -144 26 -169 -12 -158 0 l 319 863 b 374 897 335 890 349 897 b 407 872 397 897 407 886 b 382 818 407 857 396 844 l -79 -18 b -136 -53 -94 -46 -108 -53 "},"½":{"ha":1022,"x_min":0,"x_max":0,"o":"m 179 -53 b 146 -28 154 -53 146 -42 b 171 26 146 -12 157 0 l 635 863 b 689 897 650 890 664 897 b 722 872 713 897 722 886 b 697 818 722 857 711 844 l 236 -18 b 179 -53 221 -46 207 -53 m 163 376 b 96 411 111 376 96 393 b 101 581 96 431 101 503 l 101 731 b 100 738 101 733 101 736 b 44 756 88 750 63 740 b 36 776 40 758 36 768 b 193 853 36 811 147 853 b 233 807 217 853 233 836 l 233 411 b 163 376 233 394 218 376 m 897 -8 b 717 8 817 -8 756 8 b 629 -7 685 8 661 -7 b 588 46 608 -7 588 8 b 836 336 588 190 836 226 b 775 399 836 369 818 399 b 632 300 708 399 679 300 b 586 375 607 300 586 335 b 785 475 586 407 671 475 b 971 333 894 475 971 418 b 718 110 971 200 769 158 b 707 97 708 103 707 100 b 714 93 707 94 708 93 l 853 93 b 947 126 919 93 921 126 b 988 64 969 126 988 101 b 897 -8 988 25 957 -8 "},"⅓":{"ha":1025,"x_min":0,"x_max":0,"o":"m 179 -53 b 146 -28 154 -53 146 -42 b 171 26 146 -12 157 0 l 635 863 b 689 897 650 890 664 897 b 722 872 713 897 722 886 b 697 818 722 857 711 844 l 236 -18 b 179 -53 221 -46 207 -53 m 163 376 b 96 411 111 376 96 393 b 101 581 96 431 101 503 l 101 731 b 100 738 101 733 101 736 b 44 756 88 750 63 740 b 36 776 40 758 36 768 b 193 853 36 811 147 853 b 233 807 217 853 233 836 l 233 411 b 163 376 233 394 218 376 m 783 -11 b 583 76 660 -11 583 44 b 625 157 583 118 601 157 b 782 65 669 157 710 65 b 857 128 828 65 857 89 b 753 200 857 172 825 200 l 713 200 b 696 235 701 200 696 215 b 713 272 696 258 701 272 l 753 272 b 844 339 794 272 844 292 b 778 400 844 379 815 400 b 635 318 707 400 679 318 b 594 396 608 318 594 356 b 779 475 594 426 675 475 b 971 350 881 475 971 432 b 885 247 971 300 932 265 b 871 238 875 243 871 240 b 885 229 871 235 872 233 b 990 121 944 213 990 179 b 783 -11 990 39 897 -11 "},"⅔":{"ha":1179,"x_min":0,"x_max":0,"o":"m 333 -53 b 300 -28 308 -53 300 -42 b 325 26 300 -12 311 0 l 789 863 b 843 897 804 890 818 897 b 876 872 867 897 876 886 b 851 818 876 857 865 844 l 390 -18 b 333 -53 375 -46 361 -53 m 344 374 b 164 390 264 374 203 390 b 76 375 132 390 108 375 b 35 428 56 375 35 390 b 283 718 35 572 283 608 b 222 781 283 751 265 781 b 79 682 156 781 126 682 b 33 757 54 682 33 717 b 232 857 33 789 118 857 b 418 715 342 857 418 800 b 165 492 418 582 217 540 b 154 479 156 485 154 482 b 161 475 154 476 156 475 l 300 475 b 394 508 367 475 368 508 b 435 446 417 508 435 483 b 344 374 435 407 404 374 m 936 -11 b 736 76 813 -11 736 44 b 778 157 736 118 754 157 b 935 65 822 157 863 65 b 1010 128 981 65 1010 89 b 906 200 1010 172 978 200 l 865 200 b 849 235 854 200 849 215 b 865 272 849 258 854 272 l 906 272 b 997 339 947 272 997 292 b 931 400 997 379 968 400 b 788 318 860 400 832 318 b 747 396 761 318 747 356 b 932 475 747 426 828 475 b 1124 350 1033 475 1124 432 b 1038 247 1124 300 1085 265 b 1024 238 1028 243 1024 240 b 1038 229 1024 235 1025 233 b 1143 121 1097 213 1143 179 b 936 -11 1143 39 1050 -11 "},"¼":{"ha":961,"x_min":0,"x_max":0,"o":"m 179 -53 b 146 -28 154 -53 146 -42 b 171 26 146 -12 157 0 l 635 863 b 689 897 650 890 664 897 b 722 872 713 897 722 886 b 697 818 722 857 711 844 l 236 -18 b 179 -53 221 -46 207 -53 m 163 376 b 96 411 111 376 96 393 b 101 581 96 431 101 503 l 101 731 b 100 738 101 733 101 736 b 44 756 88 750 63 740 b 36 776 40 758 36 768 b 193 853 36 811 147 853 b 233 807 217 853 233 836 l 233 411 b 163 376 233 394 218 376 m 806 -6 b 742 31 765 -6 742 6 b 744 81 742 39 744 71 b 731 92 744 89 740 92 l 556 92 b 499 144 518 92 499 111 b 826 472 499 289 714 472 b 874 428 872 472 874 442 l 874 176 b 892 160 874 165 881 160 l 922 160 b 943 146 936 160 943 154 b 936 113 943 142 939 121 b 915 92 932 97 928 92 l 892 92 b 874 75 879 92 874 85 l 874 29 b 806 -6 874 7 850 -6 m 732 160 b 749 176 743 160 749 165 l 749 351 b 744 358 749 356 747 358 b 614 182 717 358 615 251 b 635 160 614 164 621 160 "},"¾":{"ha":1101,"x_min":0,"x_max":0,"o":"m 321 -53 b 288 -28 296 -53 288 -42 b 313 26 288 -12 299 0 l 776 863 b 831 897 792 890 806 897 b 864 872 854 897 864 886 b 839 818 864 857 853 844 l 378 -18 b 321 -53 363 -46 349 -53 m 231 371 b 31 458 107 371 31 426 b 72 539 31 500 49 539 b 229 447 117 539 157 447 b 304 510 275 447 304 471 b 200 582 304 554 272 582 l 160 582 b 143 617 149 582 143 597 b 160 654 143 640 149 654 l 200 654 b 292 721 242 654 292 674 b 225 782 292 761 263 782 b 82 700 154 782 126 700 b 42 778 56 700 42 738 b 226 857 42 808 122 857 b 418 732 328 857 418 814 b 332 629 418 682 379 647 b 318 619 322 625 318 622 b 332 611 318 617 319 615 b 438 503 392 594 438 561 b 231 371 438 421 344 371 m 946 -6 b 882 31 906 -6 882 6 b 885 81 882 39 885 71 b 871 92 885 89 881 92 l 696 92 b 639 144 658 92 639 111 b 967 472 639 289 854 472 b 1014 428 1013 472 1014 442 l 1014 176 b 1032 160 1014 165 1021 160 l 1063 160 b 1083 146 1076 160 1083 154 b 1076 113 1083 142 1079 121 b 1056 92 1072 97 1068 92 l 1032 92 b 1014 75 1019 92 1014 85 l 1014 29 b 946 -6 1014 7 990 -6 m 872 160 b 889 176 883 160 889 165 l 889 351 b 885 358 889 356 888 358 b 754 182 857 358 756 251 b 775 160 754 164 761 160 "},"⅕":{"ha":1017,"x_min":0,"x_max":0,"o":"m 179 -53 b 146 -28 154 -53 146 -42 b 171 26 146 -12 157 0 l 635 863 b 689 897 650 890 664 897 b 722 872 713 897 722 886 b 697 818 722 857 711 844 l 236 -18 b 179 -53 221 -46 207 -53 m 163 376 b 96 411 111 376 96 393 b 101 581 96 431 101 503 l 101 731 b 100 738 101 733 101 736 b 44 756 88 750 63 740 b 36 776 40 758 36 768 b 193 853 36 811 147 853 b 233 807 217 853 233 836 l 233 411 b 163 376 233 394 218 376 m 779 -11 b 583 68 671 -11 583 33 b 622 138 583 111 601 138 b 772 64 667 138 699 64 b 850 140 826 64 850 99 b 778 218 850 185 822 218 b 661 186 729 218 703 186 b 599 225 618 186 599 204 b 610 376 599 247 610 288 l 610 425 b 656 464 610 449 617 464 b 833 458 694 464 765 458 b 935 474 899 458 908 474 b 965 425 960 474 965 449 b 875 357 965 389 940 357 b 718 374 808 357 736 374 b 700 360 707 374 701 365 b 689 263 696 328 689 267 b 692 257 689 258 690 257 b 819 293 700 257 733 293 b 981 144 907 293 981 235 b 779 -11 981 56 914 -11 "},"⅖":{"ha":1171,"x_min":0,"x_max":0,"o":"m 333 -53 b 300 -28 308 -53 300 -42 b 325 26 300 -12 311 0 l 789 863 b 843 897 804 890 818 897 b 876 872 867 897 876 886 b 851 818 876 857 865 844 l 390 -18 b 333 -53 375 -46 361 -53 m 344 374 b 164 390 264 374 203 390 b 76 375 132 390 108 375 b 35 428 56 375 35 390 b 283 718 35 572 283 608 b 222 781 283 751 265 781 b 79 682 156 781 126 682 b 33 757 54 682 33 717 b 232 857 33 789 118 857 b 418 715 342 857 418 800 b 165 492 418 582 217 540 b 154 479 156 485 154 482 b 161 475 154 476 156 475 l 300 475 b 394 508 367 475 368 508 b 435 446 417 508 435 483 b 344 374 435 407 404 374 m 932 -11 b 736 68 824 -11 736 33 b 775 138 736 111 754 138 b 925 64 819 138 851 64 b 1003 140 979 64 1003 99 b 931 218 1003 185 975 218 b 814 186 882 218 856 186 b 751 225 771 186 751 204 b 763 376 751 247 763 288 l 763 425 b 808 464 763 449 769 464 b 986 458 847 464 918 458 b 1088 474 1051 458 1061 474 b 1118 425 1113 474 1118 449 b 1028 357 1118 389 1093 357 b 871 374 961 357 889 374 b 853 360 860 374 854 365 b 842 263 849 328 842 267 b 844 257 842 258 843 257 b 972 293 853 257 886 293 b 1133 144 1060 293 1133 235 b 932 -11 1133 56 1067 -11 "},"⅗":{"ha":1158,"x_min":0,"x_max":0,"o":"m 321 -53 b 288 -28 296 -53 288 -42 b 313 26 288 -12 299 0 l 776 863 b 831 897 792 890 806 897 b 864 872 854 897 864 886 b 839 818 864 857 853 844 l 378 -18 b 321 -53 363 -46 349 -53 m 231 371 b 31 458 107 371 31 426 b 72 539 31 500 49 539 b 229 447 117 539 157 447 b 304 510 275 447 304 471 b 200 582 304 554 272 582 l 160 582 b 143 617 149 582 143 597 b 160 654 143 640 149 654 l 200 654 b 292 721 242 654 292 674 b 225 782 292 761 263 782 b 82 700 154 782 126 700 b 42 778 56 700 42 738 b 226 857 42 808 122 857 b 418 732 328 857 418 814 b 332 629 418 682 379 647 b 318 619 322 625 318 622 b 332 611 318 617 319 615 b 438 503 392 594 438 561 b 231 371 438 421 344 371 m 919 -11 b 724 68 811 -11 724 33 b 763 138 724 111 742 138 b 913 64 807 138 839 64 b 990 140 967 64 990 99 b 918 218 990 185 963 218 b 801 186 869 218 843 186 b 739 225 758 186 739 204 b 750 376 739 247 750 288 l 750 425 b 796 464 750 449 757 464 b 974 458 835 464 906 458 b 1075 474 1039 458 1049 474 b 1106 425 1100 474 1106 449 b 1015 357 1106 389 1081 357 b 858 374 949 357 876 374 b 840 360 847 374 842 365 b 829 263 836 328 829 267 b 832 257 829 258 831 257 b 960 293 840 257 874 293 b 1121 144 1047 293 1121 235 b 919 -11 1121 56 1054 -11 "},"⅘":{"ha":1158,"x_min":0,"x_max":0,"o":"m 321 -53 b 288 -28 296 -53 288 -42 b 313 26 288 -12 299 0 l 776 863 b 831 897 792 890 806 897 b 864 872 854 897 864 886 b 839 818 864 857 853 844 l 378 -18 b 321 -53 363 -46 349 -53 m 317 376 b 253 413 276 376 253 388 b 256 463 253 421 256 453 b 242 474 256 471 251 474 l 67 474 b 10 526 29 474 10 493 b 338 854 10 671 225 854 b 385 810 383 854 385 824 l 385 558 b 403 542 385 547 392 542 l 433 542 b 454 528 447 542 454 536 b 447 494 454 524 450 503 b 426 474 443 479 439 474 l 403 474 b 385 457 390 474 385 467 l 385 411 b 317 376 385 389 361 376 m 243 542 b 260 558 254 542 260 547 l 260 733 b 256 740 260 738 258 740 b 125 564 228 740 126 633 b 146 542 125 546 132 542 m 919 -11 b 724 68 811 -11 724 33 b 763 138 724 111 742 138 b 913 64 807 138 839 64 b 990 140 967 64 990 99 b 918 218 990 185 963 218 b 801 186 869 218 843 186 b 739 225 758 186 739 204 b 750 376 739 247 750 288 l 750 425 b 796 464 750 449 757 464 b 974 458 835 464 906 458 b 1075 474 1039 458 1049 474 b 1106 425 1100 474 1106 449 b 1015 357 1106 389 1081 357 b 858 374 949 357 876 374 b 840 360 847 374 842 365 b 829 263 836 328 829 267 b 832 257 829 258 831 257 b 960 293 840 257 874 293 b 1121 144 1047 293 1121 235 b 919 -11 1121 56 1054 -11 "},"⅙":{"ha":1004,"x_min":0,"x_max":0,"o":"m 179 -53 b 146 -28 154 -53 146 -42 b 171 26 146 -12 157 0 l 635 863 b 689 897 650 890 664 897 b 722 872 713 897 722 886 b 697 818 722 857 711 844 l 236 -18 b 179 -53 221 -46 207 -53 m 163 376 b 96 411 111 376 96 393 b 101 581 96 431 101 503 l 101 731 b 100 738 101 733 101 736 b 44 756 88 750 63 740 b 36 776 40 758 36 768 b 193 853 36 811 147 853 b 233 807 217 853 233 836 l 233 411 b 163 376 233 394 218 376 m 772 -11 b 550 231 635 -11 550 76 b 775 475 550 389 654 475 b 953 403 876 475 953 433 b 911 335 953 360 936 335 b 779 399 863 335 843 399 b 686 282 717 399 686 336 b 689 257 686 269 688 257 b 810 307 696 257 714 307 b 971 151 894 307 971 244 b 772 -11 971 60 889 -11 m 768 64 b 840 147 811 64 840 94 b 768 229 840 199 811 229 b 694 147 726 229 694 199 b 768 64 694 94 724 64 "},"⅚":{"ha":1131,"x_min":0,"x_max":0,"o":"m 306 -53 b 272 -28 281 -53 272 -42 b 297 26 272 -12 283 0 l 761 863 b 815 897 776 890 790 897 b 849 872 839 897 849 886 b 824 818 849 857 838 844 l 363 -18 b 306 -53 347 -46 333 -53 m 226 371 b 31 450 118 371 31 415 b 69 519 31 493 49 519 b 219 446 114 519 146 446 b 297 522 274 446 297 481 b 225 600 297 567 269 600 b 108 568 176 600 150 568 b 46 607 65 568 46 586 b 57 758 46 629 57 669 l 57 807 b 103 846 57 831 64 846 b 281 840 142 846 213 840 b 382 856 346 840 356 856 b 413 807 407 856 413 831 b 322 739 413 771 388 739 b 165 756 256 739 183 756 b 147 742 154 756 149 747 b 136 644 143 710 136 649 b 139 639 136 640 138 639 b 267 675 147 639 181 675 b 428 526 354 675 428 617 b 226 371 428 438 361 371 m 899 -11 b 676 231 761 -11 676 76 b 901 475 676 389 781 475 b 1079 403 1003 475 1079 433 b 1038 335 1079 360 1063 335 b 906 399 989 335 969 399 b 813 282 843 399 813 336 b 815 257 813 269 814 257 b 936 307 822 257 840 307 b 1097 151 1021 307 1097 244 b 899 -11 1097 60 1015 -11 m 894 64 b 967 147 938 64 967 94 b 894 229 967 199 938 229 b 821 147 853 229 821 199 b 894 64 821 94 850 64 "},"⅐":{"ha":1018,"x_min":0,"x_max":0,"o":"m 179 -53 b 146 -28 154 -53 146 -42 b 171 26 146 -12 157 0 l 635 863 b 689 897 650 890 664 897 b 722 872 713 897 722 886 b 697 818 722 857 711 844 l 236 -18 b 179 -53 221 -46 207 -53 m 163 376 b 96 411 111 376 96 393 b 101 581 96 431 101 503 l 101 731 b 100 738 101 733 101 736 b 44 756 88 750 63 740 b 36 776 40 758 36 768 b 193 853 36 811 147 853 b 233 807 217 853 233 836 l 233 411 b 163 376 233 394 218 376 m 761 -6 b 697 40 710 -6 697 10 b 876 350 697 168 792 294 b 889 363 885 354 889 358 b 881 365 889 365 888 365 l 725 365 b 631 332 658 365 657 332 b 589 397 608 332 589 358 b 686 469 589 435 619 469 b 867 456 746 469 829 456 b 954 469 897 456 922 469 b 1001 408 976 469 1001 456 b 832 40 1001 311 832 272 b 761 -6 832 7 813 -6 "},"⅛":{"ha":1011,"x_min":0,"x_max":0,"o":"m 179 -53 b 146 -28 154 -53 146 -42 b 171 26 146 -12 157 0 l 635 863 b 689 897 650 890 664 897 b 722 872 713 897 722 886 b 697 818 722 857 711 844 l 236 -18 b 179 -53 221 -46 207 -53 m 163 376 b 96 411 111 376 96 393 b 101 581 96 431 101 503 l 101 731 b 100 738 101 733 101 736 b 44 756 88 750 63 740 b 36 776 40 758 36 768 b 193 853 36 811 147 853 b 233 807 217 853 233 836 l 233 411 b 163 376 233 394 218 376 m 771 -11 b 558 124 654 -11 558 39 b 649 222 558 181 608 208 b 660 232 653 224 660 226 b 647 242 660 235 651 240 b 575 346 618 258 575 288 b 771 475 575 431 663 475 b 967 357 888 475 967 428 b 890 269 967 306 921 281 b 876 261 882 267 876 265 b 889 251 876 257 881 256 b 982 133 929 233 982 200 b 771 -11 982 31 885 -11 m 792 294 b 861 351 807 294 861 317 b 771 403 861 389 814 403 b 692 358 732 403 692 389 b 792 294 692 317 776 294 m 771 61 b 856 115 815 61 856 81 b 746 192 856 164 761 192 b 674 125 731 192 674 169 b 771 61 674 82 726 61 "},"⅜":{"ha":1153,"x_min":0,"x_max":0,"o":"m 321 -53 b 288 -28 296 -53 288 -42 b 313 26 288 -12 299 0 l 776 863 b 831 897 792 890 806 897 b 864 872 854 897 864 886 b 839 818 864 857 853 844 l 378 -18 b 321 -53 363 -46 349 -53 m 231 371 b 31 458 107 371 31 426 b 72 539 31 500 49 539 b 229 447 117 539 157 447 b 304 510 275 447 304 471 b 200 582 304 554 272 582 l 160 582 b 143 617 149 582 143 597 b 160 654 143 640 149 654 l 200 654 b 292 721 242 654 292 674 b 225 782 292 761 263 782 b 82 700 154 782 126 700 b 42 778 56 700 42 738 b 226 857 42 808 122 857 b 418 732 328 857 418 814 b 332 629 418 682 379 647 b 318 619 322 625 318 622 b 332 611 318 617 319 615 b 438 503 392 594 438 561 b 231 371 438 421 344 371 m 911 -11 b 699 124 794 -11 699 39 b 789 222 699 181 749 208 b 800 232 793 224 800 226 b 788 242 800 235 792 240 b 715 346 758 258 715 288 b 911 475 715 431 803 475 b 1107 357 1028 475 1107 428 b 1031 269 1107 306 1061 281 b 1017 261 1022 267 1017 265 b 1029 251 1017 257 1021 256 b 1122 133 1069 233 1122 200 b 911 -11 1122 31 1025 -11 m 932 294 b 1001 351 947 294 1001 317 b 911 403 1001 389 954 403 b 832 358 872 403 832 389 b 932 294 832 317 917 294 m 911 61 b 996 115 956 61 996 81 b 886 192 996 164 901 192 b 814 125 871 192 814 169 b 911 61 814 82 867 61 "},"⅝":{"ha":1138,"x_min":0,"x_max":0,"o":"m 306 -53 b 272 -28 281 -53 272 -42 b 297 26 272 -12 283 0 l 761 863 b 815 897 776 890 790 897 b 849 872 839 897 849 886 b 824 818 849 857 838 844 l 363 -18 b 306 -53 347 -46 333 -53 m 226 371 b 31 450 118 371 31 415 b 69 519 31 493 49 519 b 219 446 114 519 146 446 b 297 522 274 446 297 481 b 225 600 297 567 269 600 b 108 568 176 600 150 568 b 46 607 65 568 46 586 b 57 758 46 629 57 669 l 57 807 b 103 846 57 831 64 846 b 281 840 142 846 213 840 b 382 856 346 840 356 856 b 413 807 407 856 413 831 b 322 739 413 771 388 739 b 165 756 256 739 183 756 b 147 742 154 756 149 747 b 136 644 143 710 136 649 b 139 639 136 640 138 639 b 267 675 147 639 181 675 b 428 526 354 675 428 617 b 226 371 428 438 361 371 m 897 -11 b 685 124 781 -11 685 39 b 775 222 685 181 735 208 b 786 232 779 224 786 226 b 774 242 786 235 778 240 b 701 346 744 258 701 288 b 897 475 701 431 789 475 b 1093 357 1014 475 1093 428 b 1017 269 1093 306 1047 281 b 1003 261 1008 267 1003 265 b 1015 251 1003 257 1007 256 b 1108 133 1056 233 1108 200 b 897 -11 1108 31 1011 -11 m 918 294 b 988 351 933 294 988 317 b 897 403 988 389 940 403 b 818 358 858 403 818 389 b 918 294 818 317 903 294 m 897 61 b 982 115 942 61 982 81 b 872 192 982 164 888 192 b 800 125 857 192 800 169 b 897 61 800 82 853 61 "},"⅞":{"ha":1040,"x_min":0,"x_max":0,"o":"m 208 -53 b 175 -28 183 -53 175 -42 b 200 26 175 -12 186 0 l 664 863 b 718 897 679 890 693 897 b 751 872 742 897 751 886 b 726 818 751 857 740 844 l 265 -18 b 208 -53 250 -46 236 -53 m 185 376 b 121 422 133 376 121 392 b 300 732 121 550 215 676 b 313 744 308 736 313 740 b 304 747 313 747 311 747 l 149 747 b 54 714 82 747 81 714 b 13 779 32 714 13 740 b 110 851 13 817 43 851 b 290 838 169 851 253 838 b 378 851 321 838 346 851 b 425 790 400 851 425 838 b 256 422 425 693 256 654 b 185 376 256 389 236 376 m 800 -11 b 588 124 683 -11 588 39 b 678 222 588 181 638 208 b 689 232 682 224 689 226 b 676 242 689 235 681 240 b 604 346 647 258 604 288 b 800 475 604 431 692 475 b 996 357 917 475 996 428 b 919 269 996 306 950 281 b 906 261 911 267 906 265 b 918 251 906 257 910 256 b 1011 133 958 233 1011 200 b 800 -11 1011 31 914 -11 m 821 294 b 890 351 836 294 890 317 b 800 403 890 389 843 403 b 721 358 761 403 721 389 b 821 294 721 317 806 294 m 800 61 b 885 115 844 61 885 81 b 775 192 885 164 790 192 b 703 125 760 192 703 169 b 800 61 703 82 756 61 "},"⅑":{"ha":1018,"x_min":0,"x_max":0,"o":"m 179 -53 b 146 -28 154 -53 146 -42 b 171 26 146 -12 157 0 l 635 863 b 689 897 650 890 664 897 b 722 872 713 897 722 886 b 697 818 722 857 711 844 l 236 -18 b 179 -53 221 -46 207 -53 m 163 376 b 96 411 111 376 96 393 b 101 581 96 431 101 503 l 101 731 b 100 738 101 733 101 736 b 44 756 88 750 63 740 b 36 776 40 758 36 768 b 193 853 36 811 147 853 b 233 807 217 853 233 836 l 233 411 b 163 376 233 394 218 376 m 760 -11 b 582 61 658 -11 582 31 b 624 129 582 104 599 129 b 756 65 672 129 692 65 b 849 182 818 65 849 128 b 846 207 849 194 847 207 b 725 157 839 207 821 157 b 564 313 640 157 564 219 b 763 475 564 404 646 475 b 985 233 900 475 985 388 b 760 -11 985 75 881 -11 m 767 235 b 840 317 808 235 840 265 b 767 400 840 369 810 400 b 694 317 724 400 694 369 b 767 235 694 265 724 235 "},"⅒":{"ha":1374,"x_min":0,"x_max":0,"o":"m 179 -53 b 146 -28 154 -53 146 -42 b 171 26 146 -12 157 0 l 635 863 b 689 897 650 890 664 897 b 722 872 713 897 722 886 b 697 818 722 857 711 844 l 236 -18 b 179 -53 221 -46 207 -53 m 163 376 b 96 411 111 376 96 393 b 101 581 96 431 101 503 l 101 731 b 100 738 101 733 101 736 b 44 756 88 750 63 740 b 36 776 40 758 36 768 b 193 853 36 811 147 853 b 233 807 217 853 233 836 l 233 411 b 163 376 233 394 218 376 m 1122 -11 b 901 232 981 -11 901 86 b 1122 475 901 378 981 475 b 1340 232 1261 475 1340 379 b 1122 -11 1340 86 1261 -11 m 715 -6 b 649 29 664 -6 649 11 b 654 199 649 49 654 121 l 654 349 b 653 356 654 351 654 354 b 597 374 640 368 615 358 b 589 394 593 376 589 386 b 746 471 589 429 700 471 b 786 425 769 471 786 454 l 786 29 b 715 -6 786 13 771 -6 m 1122 65 b 1201 232 1175 65 1201 121 b 1122 399 1201 343 1175 399 b 1040 232 1065 399 1040 343 b 1122 65 1040 121 1065 65 "},".":{"ha":342,"x_min":0,"x_max":0,"o":"m 171 -7 b 67 86 108 -7 67 32 b 171 178 67 142 108 178 b 275 86 232 178 275 140 b 171 -7 275 31 232 -7 "},",":{"ha":342,"x_min":0,"x_max":0,"o":"m 75 -125 b 42 -97 56 -125 42 -114 b 101 24 42 -65 101 -44 b 75 110 101 54 75 72 b 169 188 75 161 118 188 b 263 89 221 188 263 151 b 75 -125 263 -36 151 -125 "},":":{"ha":342,"x_min":0,"x_max":0,"o":"m 171 339 b 67 432 108 339 67 378 b 171 524 67 488 108 524 b 275 432 232 524 275 486 b 171 339 275 376 232 339 m 171 -7 b 67 86 108 -7 67 32 b 171 178 67 142 108 178 b 275 86 232 178 275 140 b 171 -7 275 31 232 -7 "},";":{"ha":342,"x_min":0,"x_max":0,"o":"m 171 339 b 67 432 108 339 67 378 b 171 524 67 488 108 524 b 275 432 232 524 275 486 b 171 339 275 376 232 339 m 75 -125 b 42 -97 56 -125 42 -114 b 101 24 42 -65 101 -44 b 75 110 101 54 75 72 b 169 188 75 161 118 188 b 263 89 221 188 263 151 b 75 -125 263 -36 151 -125 "},"…":{"ha":1013,"x_min":0,"x_max":0,"o":"m 171 -7 b 67 86 108 -7 67 32 b 171 178 67 142 108 178 b 275 86 232 178 275 140 b 171 -7 275 31 232 -7 m 506 -7 b 400 86 443 -7 400 32 b 506 178 400 142 443 178 b 610 86 567 178 610 140 b 506 -7 610 31 567 -7 m 840 -7 b 736 86 779 -7 736 32 b 840 178 736 142 779 178 b 946 86 903 178 946 140 b 840 -7 946 31 903 -7 "},"!":{"ha":342,"x_min":0,"x_max":0,"o":"m 169 260 b 76 715 113 260 76 382 b 169 853 76 807 110 853 b 265 715 232 853 265 807 b 169 260 265 383 226 260 m 171 -7 b 71 82 111 -7 71 29 b 171 169 71 135 111 169 b 271 81 231 169 271 133 b 171 -7 271 29 231 -7 "},"¡":{"ha":342,"x_min":0,"x_max":0,"o":"m 171 615 b 271 528 231 615 271 579 b 171 439 271 475 231 439 b 71 526 111 439 71 474 b 171 615 71 579 111 615 m 169 349 b 265 -107 226 349 265 225 b 169 -244 265 -199 232 -244 b 76 -107 110 -244 76 -199 b 169 349 76 226 113 349 "},"?":{"ha":638,"x_min":0,"x_max":0,"o":"m 303 260 b 240 351 272 260 240 294 b 414 660 240 481 414 557 b 303 768 414 718 381 768 b 104 606 183 768 167 606 b 22 722 71 606 22 679 b 311 863 22 788 163 863 b 594 646 461 863 594 785 b 407 376 594 519 464 449 b 303 260 353 308 343 260 m 314 -7 b 214 82 254 -7 214 31 b 314 169 214 135 254 169 b 414 81 372 169 414 133 b 314 -7 414 29 372 -7 "},"¿":{"ha":592,"x_min":0,"x_max":0,"o":"m 389 615 b 489 526 449 615 489 578 b 389 439 489 474 449 439 b 289 528 331 439 289 475 b 389 615 289 579 331 615 m 400 349 b 463 257 431 349 463 314 b 289 -51 463 128 289 51 b 400 -160 289 -110 322 -160 b 599 3 519 -160 536 3 b 681 -114 632 3 681 -71 b 392 -254 681 -179 540 -254 b 108 -37 242 -254 108 -176 b 296 232 108 89 239 160 b 400 349 350 300 360 349 "},"·":{"ha":342,"x_min":0,"x_max":0,"o":"m 171 289 b 67 383 108 289 67 328 b 171 474 67 438 108 474 b 275 382 232 474 275 436 b 171 289 275 326 232 289 "},"•":{"ha":511,"x_min":0,"x_max":0,"o":"m 256 233 b 92 388 158 233 92 297 b 256 538 92 478 158 538 b 419 386 351 538 419 475 b 256 233 419 296 351 233 "},"*":{"ha":579,"x_min":0,"x_max":0,"o":"m 192 368 b 89 451 149 368 89 415 b 213 579 89 507 213 561 b 199 588 213 583 210 588 b 83 593 185 589 124 590 b 28 644 63 593 28 607 b 96 750 28 694 57 750 b 133 738 108 750 119 747 b 238 671 194 704 222 671 b 243 679 243 671 243 674 b 211 822 243 704 211 747 b 290 874 211 854 238 874 b 368 822 340 874 368 854 b 335 679 368 747 335 704 b 342 671 335 674 338 671 b 444 738 356 671 385 704 b 482 750 460 747 471 750 b 551 644 522 750 551 694 b 490 593 551 607 517 593 b 381 588 456 590 394 589 b 367 579 369 588 367 583 b 489 451 367 561 489 507 b 386 368 489 413 431 368 b 335 419 356 368 343 401 b 289 525 313 465 303 525 b 243 419 275 525 265 465 b 192 368 236 401 224 368 "},"#":{"ha":801,"x_min":0,"x_max":0,"o":"m 732 660 b 767 621 761 660 769 647 b 714 558 761 582 740 558 b 624 560 679 558 651 558 l 596 301 b 696 303 628 303 657 303 b 729 264 725 303 732 290 b 676 201 724 224 703 201 b 586 203 642 201 614 201 l 568 33 b 489 -11 565 7 547 -11 b 431 32 442 -11 428 6 l 449 204 l 376 204 b 304 204 349 204 325 204 l 286 33 b 214 -11 285 7 267 -11 b 149 32 160 -11 146 6 l 167 203 b 63 201 135 201 103 201 b 35 240 39 201 32 214 b 82 303 39 281 61 303 b 176 301 119 303 147 303 l 204 560 l 100 560 b 72 597 76 560 69 571 b 119 661 76 638 97 661 b 215 660 157 661 186 661 l 231 811 b 304 856 233 838 250 856 b 368 813 357 856 371 839 l 351 658 l 424 658 b 496 658 450 658 474 658 l 511 811 b 579 856 514 838 531 856 b 650 813 639 856 651 839 l 633 660 l 732 660 m 485 561 l 413 561 b 342 561 386 561 363 561 l 314 300 l 392 300 b 458 300 417 300 439 300 "},"/":{"ha":575,"x_min":0,"x_max":0,"o":"m 88 -190 b 40 -150 51 -190 40 -168 b 50 -101 40 -133 46 -117 b 331 821 71 -36 307 744 b 431 907 346 874 363 907 b 518 851 497 907 518 885 b 486 750 518 818 500 785 b 144 -151 469 708 165 -108 b 88 -190 133 -174 124 -190 "},"\\":{"ha":575,"x_min":0,"x_max":0,"o":"m 588 -190 b 531 -151 551 -190 542 -174 b 189 750 510 -108 206 708 b 158 851 175 785 158 818 b 244 907 158 885 178 907 b 346 821 313 907 329 874 b 625 -101 368 744 604 -36 b 635 -150 629 -117 635 -133 b 588 -190 635 -168 624 -190 "},"(":{"ha":424,"x_min":0,"x_max":0,"o":"m 361 -192 b 78 360 268 -192 79 33 b 361 901 76 679 268 901 b 394 874 383 901 394 889 b 247 360 394 826 246 713 b 394 -164 247 -1 394 -117 b 361 -192 394 -179 383 -192 "},")":{"ha":425,"x_min":0,"x_max":0,"o":"m 114 -192 b 81 -164 92 -192 81 -179 b 228 360 81 -117 228 -1 b 81 874 229 713 81 826 b 114 901 81 889 92 901 b 397 360 207 901 399 679 b 114 -192 396 33 207 -192 "},"{":{"ha":424,"x_min":0,"x_max":0,"o":"m 354 -189 b 126 50 257 -189 126 -110 b 143 228 126 111 143 179 b 21 361 143 331 21 303 b 143 496 21 418 143 392 b 126 672 143 542 126 604 b 354 913 126 833 257 913 b 406 879 394 913 406 899 b 293 671 406 833 293 831 b 306 513 293 632 306 567 b 211 374 306 433 271 392 b 179 361 201 371 179 368 b 211 349 179 354 201 351 b 306 210 271 329 306 289 b 293 51 306 157 293 99 b 406 -158 293 -108 406 -112 b 354 -189 406 -176 394 -189 "},"}":{"ha":424,"x_min":0,"x_max":0,"o":"m 143 -189 b 92 -158 103 -189 92 -176 b 204 51 92 -112 204 -108 b 192 210 204 99 192 157 b 286 349 192 289 226 329 b 318 361 296 351 318 354 b 286 374 318 368 296 371 b 192 513 226 392 192 433 b 204 671 192 567 204 632 b 92 879 204 831 92 833 b 143 913 92 899 103 913 b 371 672 240 913 371 833 b 354 496 371 604 354 542 b 476 361 354 392 476 418 b 354 228 476 303 354 331 b 371 50 354 179 371 111 b 143 -189 371 -110 240 -189 "},"[":{"ha":424,"x_min":0,"x_max":0,"o":"m 161 -176 b 85 -115 104 -176 85 -151 b 96 178 85 -76 96 -51 l 96 549 b 85 835 96 772 85 797 b 161 896 85 872 104 896 l 347 897 b 382 854 374 897 382 883 b 343 801 382 819 363 801 l 254 803 b 238 783 242 803 238 794 l 238 -64 b 254 -82 238 -75 242 -82 l 343 -81 b 382 -135 363 -81 382 -99 b 347 -176 382 -162 374 -176 "},"]":{"ha":424,"x_min":0,"x_max":0,"o":"m 151 -176 b 115 -135 124 -176 115 -162 b 154 -81 115 -99 135 -81 l 243 -82 b 260 -64 256 -82 260 -75 l 260 783 b 243 803 260 794 256 803 l 154 801 b 115 854 135 801 115 819 b 151 897 115 883 124 897 l 336 896 b 413 835 393 896 413 872 b 403 549 413 797 403 772 l 403 178 b 413 -115 403 -51 413 -76 b 336 -176 413 -151 393 -176 "},"-":{"ha":481,"x_min":0,"x_max":0,"o":"m 90 299 b 58 344 65 299 58 311 b 99 414 58 390 78 414 l 392 414 b 422 368 415 414 422 401 b 382 299 422 321 403 299 "},"­":{"ha":481,"x_min":0,"x_max":0,"o":"m 90 299 b 58 344 65 299 58 311 b 99 414 58 390 78 414 l 392 414 b 422 368 415 414 422 401 b 382 299 422 321 403 299 "},"–":{"ha":954,"x_min":0,"x_max":0,"o":"m 138 299 b 108 338 115 299 108 311 b 150 394 108 375 126 394 b 486 393 249 394 331 393 b 817 394 640 393 719 394 b 846 356 839 394 846 381 b 804 297 846 318 828 297 b 486 300 711 297 635 300 b 138 299 326 300 240 299 "},"—":{"ha":1139,"x_min":0,"x_max":0,"o":"m 138 299 b 108 338 115 299 108 311 b 150 394 108 375 126 394 b 578 393 283 394 411 393 b 1001 394 744 393 869 394 b 1031 356 1024 394 1031 381 b 989 297 1031 318 1013 297 b 578 300 861 297 740 300 b 138 299 406 300 275 299 "},"‒":{"ha":801,"x_min":0,"x_max":0,"o":"m 138 299 b 108 338 115 299 108 311 b 150 394 108 375 126 394 b 410 393 226 394 306 393 b 664 394 511 393 589 394 b 693 356 686 394 693 381 b 651 297 693 318 675 297 b 410 300 581 297 507 300 b 138 299 301 300 218 299 "},"‑":{"ha":481,"x_min":0,"x_max":0,"o":"m 90 299 b 58 344 65 299 58 311 b 99 414 58 390 78 414 l 392 414 b 422 368 415 414 422 401 b 382 299 422 321 403 299 "},"_":{"ha":801,"x_min":0,"x_max":0,"o":"m 0 -96 b -29 -57 -21 -96 -29 -82 b 0 0 -29 -19 -18 0 l 801 0 b 831 -39 822 0 831 -14 b 801 -96 831 -76 819 -96 "},"‚":{"ha":288,"x_min":0,"x_max":0,"o":"m 83 -131 b 49 -101 64 -131 49 -118 b 85 14 49 -69 83 -44 b 57 110 85 49 57 67 b 149 188 56 161 100 188 b 240 88 199 188 239 151 b 83 -131 243 -33 144 -131 "},"„":{"ha":519,"x_min":0,"x_max":0,"o":"m 83 -131 b 49 -101 64 -131 49 -118 b 85 14 49 -69 83 -44 b 57 110 85 49 57 67 b 149 188 56 161 100 188 b 240 88 199 188 239 151 b 83 -131 243 -33 144 -131 m 315 -131 b 281 -101 296 -131 281 -118 b 317 14 281 -69 315 -44 b 289 110 317 49 289 67 b 381 188 288 161 332 188 b 472 88 431 188 471 151 b 315 -131 475 -33 376 -131 "},"“":{"ha":519,"x_min":0,"x_max":0,"o":"m 206 844 b 239 815 225 844 239 832 b 204 700 239 785 204 758 b 232 604 204 665 231 647 b 139 526 232 554 188 526 b 47 628 89 526 50 563 b 206 844 44 747 143 844 m 438 844 b 471 815 457 844 471 832 b 436 700 471 785 436 758 b 464 604 436 665 463 647 b 371 526 464 554 419 526 b 279 628 321 526 282 563 b 438 844 276 747 375 844 "},"”":{"ha":519,"x_min":0,"x_max":0,"o":"m 83 529 b 49 558 64 529 49 542 b 85 674 49 590 83 615 b 57 771 85 708 57 728 b 149 847 56 821 100 847 b 240 747 199 847 239 811 b 83 529 243 628 144 529 m 315 529 b 281 558 296 529 281 542 b 317 674 281 590 315 615 b 289 771 317 708 289 728 b 381 847 288 821 332 847 b 472 747 431 847 471 811 b 315 529 475 628 376 529 "},"‘":{"ha":288,"x_min":0,"x_max":0,"o":"m 206 844 b 239 815 225 844 239 832 b 204 700 239 785 204 758 b 232 604 204 665 231 647 b 139 526 232 554 188 526 b 47 628 89 526 50 563 b 206 844 44 747 143 844 "},"’":{"ha":288,"x_min":0,"x_max":0,"o":"m 83 529 b 49 558 64 529 49 542 b 85 674 49 590 83 615 b 57 771 85 708 57 728 b 149 847 56 821 100 847 b 240 747 199 847 239 811 b 83 529 243 628 144 529 "},"«":{"ha":657,"x_min":0,"x_max":0,"o":"m 292 75 b 58 319 242 75 58 253 b 292 565 58 388 242 565 b 325 532 313 565 325 551 b 210 319 325 500 210 378 b 325 108 210 263 325 140 b 292 75 325 89 313 75 m 550 75 b 317 319 500 75 317 253 b 550 565 317 388 500 565 b 583 532 571 565 583 551 b 468 319 583 500 468 378 b 583 108 468 263 583 140 b 550 75 583 89 571 75 "},"»":{"ha":657,"x_min":0,"x_max":0,"o":"m 107 75 b 74 108 86 75 74 89 b 189 319 74 140 189 263 b 74 532 189 378 74 500 b 107 565 74 551 86 565 b 340 319 157 565 340 388 b 107 75 340 253 157 75 m 365 75 b 332 108 344 75 332 89 b 447 319 332 140 447 263 b 332 532 447 378 332 500 b 365 565 332 551 344 565 b 599 319 415 565 599 388 b 365 75 599 253 415 75 "},"‹":{"ha":399,"x_min":0,"x_max":0,"o":"m 293 75 b 60 319 243 75 60 253 b 293 565 60 388 243 565 b 326 532 314 565 326 551 b 211 319 326 500 211 378 b 326 108 211 263 326 140 b 293 75 326 89 314 75 "},"›":{"ha":399,"x_min":0,"x_max":0,"o":"m 107 565 b 340 319 157 565 340 388 b 107 75 340 253 157 75 b 74 108 86 75 74 89 b 189 319 74 140 189 263 b 74 532 189 378 74 500 b 107 565 74 551 86 565 "},"‴":{"ha":839,"x_min":0,"x_max":0,"o":"m 124 526 b 88 578 103 526 88 542 b 106 767 88 617 94 714 b 199 850 115 818 150 850 b 281 774 247 850 281 818 b 124 526 281 696 185 526 m 363 526 b 325 578 342 526 325 542 b 343 767 325 617 333 714 b 436 850 354 818 388 850 b 519 774 485 850 519 818 b 363 526 519 696 424 526 m 601 526 b 565 578 581 526 565 542 b 583 767 565 617 572 714 b 676 850 593 818 628 850 b 758 774 725 850 758 818 b 601 526 758 696 663 526 "},"\"":{"ha":517,"x_min":0,"x_max":0,"o":"m 144 526 b 58 758 94 526 58 654 b 143 846 58 808 92 846 b 232 756 197 846 231 817 b 144 526 235 654 194 526 m 369 526 b 283 758 319 526 283 654 b 369 846 283 808 317 846 b 458 756 422 846 456 817 b 369 526 460 654 421 526 "},"'":{"ha":290,"x_min":0,"x_max":0,"o":"m 144 526 b 58 758 94 526 58 654 b 143 846 58 808 92 846 b 232 756 197 846 231 817 b 144 526 235 654 194 526 "}," ":{"ha":801,"x_min":0,"x_max":0,"o":""}," ":{"ha":342,"x_min":0,"x_max":0,"o":""}," ":{"ha":219,"x_min":0,"x_max":0,"o":""}," ":{"ha":160,"x_min":0,"x_max":0,"o":""},"​":{"ha":0,"x_min":0,"x_max":0,"o":""},"⁠":{"ha":0,"x_min":0,"x_max":0,"o":""},"﻿":{"ha":0,"x_min":0,"x_max":0,"o":""},"₿":{"ha":801,"x_min":0,"x_max":0,"o":"m 760 218 b 501 -6 760 108 681 19 l 500 -118 b 467 -147 500 -136 489 -147 b 413 -114 428 -147 413 -133 l 414 -12 l 392 -12 b 342 -12 376 -12 357 -12 l 340 -118 b 306 -147 340 -136 328 -147 b 253 -114 268 -147 253 -133 l 254 -11 b 90 51 114 -4 90 21 b 104 414 90 88 104 169 l 104 646 b 39 790 104 778 39 749 b 253 854 39 817 67 850 l 254 943 b 297 971 254 958 268 971 b 342 943 326 971 342 958 l 340 854 l 361 854 b 413 853 379 854 396 854 l 414 943 b 457 971 414 958 428 971 b 501 943 486 971 501 958 l 500 840 b 715 629 646 807 715 722 b 585 450 715 514 625 464 b 561 438 575 447 561 447 b 582 426 561 431 571 431 b 760 218 643 407 760 357 m 529 617 b 356 765 529 714 447 765 l 310 765 b 281 740 286 765 281 760 b 283 682 281 724 283 710 l 283 492 b 301 468 283 476 286 468 l 371 468 b 529 617 440 468 529 517 m 383 82 b 564 229 492 82 564 119 b 365 389 564 329 488 389 l 301 389 b 283 365 285 389 283 378 l 283 108 b 300 82 283 93 285 82 l 383 82 "},"¢":{"ha":801,"x_min":0,"x_max":0,"o":"m 669 188 b 699 160 689 188 699 178 b 478 -17 699 99 613 3 l 476 -118 b 443 -147 476 -136 465 -147 b 389 -114 404 -147 389 -133 l 390 -18 b 96 313 226 -1 96 115 b 390 639 96 510 228 622 l 390 739 b 433 767 390 754 404 767 b 478 739 463 767 478 756 l 478 640 b 704 504 631 626 704 542 b 626 381 704 458 663 381 b 478 547 569 381 551 508 l 476 103 b 669 188 585 107 626 188 m 285 329 b 389 121 285 233 322 154 l 390 549 b 285 329 324 519 285 428 "}}}
